<?xml version="1.0" encoding="utf-8"?>
<!-- Generator: Adobe Illustrator 20.0.0, SVG Export Plug-In . SVG Version: 6.00 Build 0)  -->
<!DOCTYPE svg PUBLIC "-//W3C//DTD SVG 1.1//EN" "http://www.w3.org/Graphics/SVG/1.1/DTD/svg11.dtd">
<svg version="1.1" id="Calque_1" xmlns="http://www.w3.org/2000/svg" xmlns:xlink="http://www.w3.org/1999/xlink" x="0px" y="0px"
	 viewBox="0 0 1012.1 800" style="enable-background:new 0 0 1012.1 800;" xml:space="preserve">
<style type="text/css">
	.st0{fill:#34A2DD;}
</style>
<g id="yncXrr.tif_2_">
	<g>
		<path d="M621.5,646c0-22.8-0.1-45.7,0.1-68.5c0.1-14.8,5.4-27.7,15.1-38.7c19.3-21.9,44.2-31.9,72.9-32.8
			c16.5-0.5,33-0.2,49.5-0.2c42.3,0,84.7-0.3,127,0.3c22.2,0.4,42.4,8.2,59.7,22.5c16.7,13.8,26,31.1,25.5,53.4
			c-0.5,20.5-0.1,41-0.1,61.5c0,1.8,0,3.6,0,5.5c-116.7,0-232.8,0-349.4,0C621.6,647.6,621.5,646.8,621.5,646z M954.7,573
			c-0.6-14.3-8.6-25.4-19.7-34c-15.9-12.4-34.4-17.2-54.2-17.2c-46.8-0.1-93.7-0.1-140.5,0c-14.6,0-29.4-0.1-43.9,1.3
			c-15.7,1.5-29.9,7.7-41.9,18.3c-10.6,9.4-16.8,21-17,35.4c-0.2,17.7-0.1,35.3-0.1,53c0,1,0.3,1.9,0.5,3.1c105.6,0,211,0,317,0
			C954.9,612.6,955.6,592.8,954.7,573z"/>
		<path class="st0" d="M649.9,422.2c-33.6-16.6-67.1-33.1-100.7-49.7c-8.2-4.1-16.4-7.8-23.8-13.8c-35.3-28.5-51.7-64.7-44.4-109.9
			c9.7-60.7,66.6-106,132-94c48,8.8,86.3,47.7,92.9,94.5c6.9,49.5-19.1,98.8-63.5,120.3c-1.6,0.8-3.1,1.6-4.8,2.5
			c6,17.6,11.9,34.7,18.1,52.8C653.1,423.7,651.5,423,649.9,422.2z M617.4,362.4c5.8-2.2,11.3-4.1,16.6-6.4
			c39.2-17.3,62.7-58.9,56.8-100.5c-6.6-46.2-40.4-80.9-84.2-86.3c-51.8-6.4-99.4,27.3-110,78c-8.9,42.5,13,87.3,52.2,107
			c24.5,12.3,49,24.4,73.6,36.6c1.5,0.7,3,1.4,5.6,2.5C624.2,382.3,620.8,372.4,617.4,362.4z"/>
		<path d="M719.2,399.4c0-10.3-0.9-20.7,0.2-31c3.9-37.5,35.9-66.9,74.3-69.1c34.8-1.9,69.5,25.2,77.4,60.7
			c1.1,5.2,1.9,10.5,1.9,15.8c0,19,1.1,38.1-1,56.9c-4.2,36.9-36.7,65.4-74,66.9c-34.8,1.4-69.2-24.8-76.7-60.1
			C718.5,426.7,718.8,399.5,719.2,399.4z M736.1,433.9c4.5,30.8,32.1,52,63.1,49.8c33.2-2.4,57.3-26.8,57.8-58.7
			c0.3-17.2,0.3-34.3-0.1-51.5c-0.7-29.2-22.4-53.3-51-57.3c-31.4-4.4-59.3,12.3-68,41.2c-1.9,6.3-2.5,13.1-2.9,19.6
			c-0.5,7.6-0.1,15.3-0.1,23C735.2,400,734.5,422.8,736.1,433.9z"/>
	</g>
</g>
<path class="st0" d="M379.9,649c-116.6,0-232.7,0-349.4,0c0-2,0-3.8,0-5.5c0-20.5,0.4-41-0.1-61.5c-0.5-22.3,8.8-39.6,25.5-53.4
	c17.3-14.2,37.4-22.1,59.7-22.5c42.3-0.7,84.7-0.3,127-0.3c16.5,0,33-0.4,49.5,0.2c28.7,0.9,53.7,10.9,72.9,32.8
	c9.7,11,15,23.9,15.1,38.7c0.1,22.8,0.1,45.7,0.1,68.5C380.1,646.8,380,647.6,379.9,649z M46.7,633c105.9,0,211.4,0,317,0
	c0.2-1.2,0.5-2.1,0.5-3.1c0-17.7,0.1-35.3-0.1-53c-0.2-14.3-6.5-26-17-35.4c-11.9-10.6-26.2-16.8-41.9-18.3
	c-14.5-1.4-29.3-1.3-43.9-1.3c-46.8-0.1-93.7-0.1-140.5,0c-19.8,0-38.3,4.8-54.2,17.2c-11.1,8.6-19.1,19.7-19.7,34
	C46,592.8,46.7,612.6,46.7,633z"/>
<path class="st0" d="M280.4,439.7c-7.5,35.3-41.9,61.5-76.7,60.1c-37.3-1.5-69.8-30-74-66.9c-2.1-18.8-1-37.9-1-56.9
	c0-5.3,0.7-10.6,1.9-15.8c7.9-35.5,42.6-62.6,77.4-60.7c38.4,2.1,70.4,31.5,74.3,69.1c1.1,10.2,0.2,20.6,0.2,31
	C282.8,399.5,283.1,426.7,280.4,439.7z M266.7,400c0-7.7,0.4-15.3-0.1-23c-0.4-6.6-1-13.4-2.9-19.6c-8.7-29-36.6-45.6-68-41.2
	c-28.6,4-50.3,28.1-51,57.3c-0.4,17.1-0.3,34.3-0.1,51.5c0.5,32,24.6,56.3,57.8,58.7c31,2.2,58.6-19,63.1-49.8
	C267.1,422.8,266.3,400,266.7,400z"/>
<path d="M484.8,328.2c-8.6,10.6-19.4,19.6-32,25.9c-24.5,12.3-49,24.4-73.6,36.6c-1.5,0.7-3,1.4-5.6,2.5
	c3.8-11.1,7.1-20.9,10.5-30.9c-5.8-2.2-11.3-4.1-16.6-6.4c-39.2-17.3-62.7-58.9-56.8-100.5c6.6-46.2,40.4-80.9,84.2-86.3
	c35.3-4.4,68.6,9.9,89.7,35.5c2.7-4.6,5.7-9.1,8.9-13.3c-24.7-28.3-63.1-44.2-105.1-36.4c-48,8.8-86.3,47.7-92.9,94.5
	c-6.9,49.5,19.1,98.8,63.5,120.3c1.6,0.8,3.1,1.6,4.8,2.5c-6,17.6-11.9,34.7-18.1,52.8c2.7-1.2,4.3-2,5.8-2.7
	c33.6-16.6,67.1-33.1,100.7-49.7c8.2-4.1,16.4-7.8,23.8-13.8c6.8-5.5,12.9-11.3,18.2-17.3C490.8,337.2,487.7,332.8,484.8,328.2z"/>
<path class="st0" d="M172,431h65c0,0,0,29-31,29S172,431,172,431z"/>
<path d="M765,431h65c0,0,0,29-31,29S765,431,765,431z"/>
</svg>
