<?xml version="1.0" encoding="utf-8"?>
<!-- Generator: Adobe Illustrator 20.0.0, SVG Export Plug-In . SVG Version: 6.00 Build 0)  -->
<!DOCTYPE svg PUBLIC "-//W3C//DTD SVG 1.1//EN" "http://www.w3.org/Graphics/SVG/1.1/DTD/svg11.dtd">
<svg version="1.1" id="Calque_1" xmlns="http://www.w3.org/2000/svg" xmlns:xlink="http://www.w3.org/1999/xlink" x="0px" y="0px"
	 viewBox="0 0 100 100" style="enable-background:new 0 0 100 100;" xml:space="preserve">
<style type="text/css">
	.st0{clip-path:url(#SVGID_2_);}
	.st1{clip-path:url(#SVGID_4_);fill:#34A2DD;}
	.st2{clip-path:url(#SVGID_6_);}
	.st3{clip-path:url(#SVGID_8_);fill:#34A2DD;}
	.st4{clip-path:url(#SVGID_10_);}
	.st5{clip-path:url(#SVGID_12_);fill:#4A4A4A;}
	.st6{clip-path:url(#SVGID_14_);}
	.st7{clip-path:url(#SVGID_16_);fill:#34A2DD;}
	.st8{clip-path:url(#SVGID_18_);}
	.st9{clip-path:url(#SVGID_20_);fill:#34A2DD;}
	.st10{clip-path:url(#SVGID_22_);}
	.st11{clip-path:url(#SVGID_24_);fill:#4A4A4A;}
</style>
<g>
	<defs>
		<path id="SVGID_1_" d="M67.1,53.3c6.4,0,11.7-5.2,11.7-11.7S73.6,30,67.1,30c-1.1,0-2.2,0.2-3.3,0.5l1.4,4.7
			c0.6-0.2,1.3-0.3,1.9-0.3c3.8,0,6.8,3.1,6.8,6.8s-3,6.8-6.8,6.8c-2.3,0-4.4-1.2-5.7-3.1l-4.1,2.7C59.5,51.4,63.2,53.3,67.1,53.3z"
			/>
	</defs>
	<clipPath id="SVGID_2_">
		<use xlink:href="#SVGID_1_"  style="overflow:visible;"/>
	</clipPath>
	<g class="st0">
		<defs>
			<rect id="SVGID_3_" x="-466.5" y="-1475" width="1024" height="2275"/>
		</defs>
		<clipPath id="SVGID_4_">
			<use xlink:href="#SVGID_3_"  style="overflow:visible;"/>
		</clipPath>
		<rect x="52.4" y="25" class="st1" width="31.4" height="33.4"/>
	</g>
</g>
<g>
	<defs>
		<path id="SVGID_5_" d="M31.5,30c-6.4,0-11.7,5.2-11.7,11.7s5.2,11.7,11.7,11.7c3.9,0,7.5-2,9.7-5.2l-4-2.7c-1.3,1.9-3.4,3-5.7,3
			c-3.8,0-6.8-3.1-6.8-6.8s3-6.8,6.8-6.8c0.7,0,1.4,0.1,2,0.3l1.5-4.6C33.9,30.1,32.7,30,31.5,30z"/>
	</defs>
	<clipPath id="SVGID_6_">
		<use xlink:href="#SVGID_5_"  style="overflow:visible;"/>
	</clipPath>
	<g class="st2">
		<defs>
			<rect id="SVGID_7_" x="-466.5" y="-1475" width="1024" height="2275"/>
		</defs>
		<clipPath id="SVGID_8_">
			<use xlink:href="#SVGID_7_"  style="overflow:visible;"/>
		</clipPath>
		<rect x="14.8" y="25" class="st3" width="31.4" height="33.4"/>
	</g>
</g>
<g>
	<defs>
		<path id="SVGID_9_" d="M36.4,34.8c0-7.2,5.8-13,13-13c7.2,0,13,5.8,13,13c0,7.2-5.8,13-13,13C42.2,47.8,36.4,42,36.4,34.8z
			 M67.1,34.8c0-9.8-8-17.8-17.8-17.8c-9.8,0-17.8,8-17.8,17.8s8,17.8,17.8,17.8C59.1,52.6,67.1,44.6,67.1,34.8z"/>
	</defs>
	<clipPath id="SVGID_10_">
		<use xlink:href="#SVGID_9_"  style="overflow:visible;"/>
	</clipPath>
	<g class="st4">
		<defs>
			<rect id="SVGID_11_" x="-466.5" y="-1475" width="1024" height="2275"/>
		</defs>
		<clipPath id="SVGID_12_">
			<use xlink:href="#SVGID_11_"  style="overflow:visible;"/>
		</clipPath>
		<rect x="26.5" y="12" class="st5" width="45.6" height="45.6"/>
	</g>
</g>
<g>
	<defs>
		<path id="SVGID_13_" d="M67.1,49c-3.1,0-5.7,0.5-7.9,1.5c-1.2,0.5-1.8,2-1.2,3.2c0.5,1.2,2,1.8,3.2,1.2c1.6-0.7,3.5-1.1,5.9-1.1
			c8.8,0,12.1,4.8,12.1,16.2c0,1.3,1.1,2.4,2.4,2.4c1.3,0,2.4-1.1,2.4-2.4C84.1,56.2,79.1,49,67.1,49z"/>
	</defs>
	<clipPath id="SVGID_14_">
		<use xlink:href="#SVGID_13_"  style="overflow:visible;"/>
	</clipPath>
	<g class="st6">
		<defs>
			<rect id="SVGID_15_" x="-466.5" y="-1475" width="1024" height="2275"/>
		</defs>
		<clipPath id="SVGID_16_">
			<use xlink:href="#SVGID_15_"  style="overflow:visible;"/>
		</clipPath>
		<rect x="52.7" y="44" class="st7" width="36.4" height="33.4"/>
	</g>
</g>
<g>
	<defs>
		<path id="SVGID_17_" d="M31.5,49c-12,0-16.9,7.2-16.9,21c0,1.3,1.1,2.4,2.4,2.4s2.4-1.1,2.4-2.4c0-11.4,3.2-16.2,12-16.2
			c1.9,0,3.6,0.2,5,0.7c1.3,0.4,2.6-0.3,3.1-1.5c0.4-1.3-0.3-2.6-1.5-3.1C36.1,49.3,33.9,49,31.5,49z"/>
	</defs>
	<clipPath id="SVGID_18_">
		<use xlink:href="#SVGID_17_"  style="overflow:visible;"/>
	</clipPath>
	<g class="st8">
		<defs>
			<rect id="SVGID_19_" x="-466.5" y="-1475" width="1024" height="2275"/>
		</defs>
		<clipPath id="SVGID_20_">
			<use xlink:href="#SVGID_19_"  style="overflow:visible;"/>
		</clipPath>
		<rect x="9.6" y="44" class="st9" width="35.1" height="33.4"/>
	</g>
</g>
<g>
	<defs>
		<path id="SVGID_21_" d="M49.3,48.6c-18.9,0-26.5,11.2-26.5,33.3c0,1.3,1.1,2.4,2.4,2.4c1.3,0,2.4-1.1,2.4-2.4
			c0-19.7,5.9-28.4,21.7-28.4c15.8,0,21.8,8.7,21.8,28.4c0,1.3,1.1,2.4,2.4,2.4c1.3,0,2.4-1.1,2.4-2.4C76,59.8,68.2,48.6,49.3,48.6z
			"/>
	</defs>
	<clipPath id="SVGID_22_">
		<use xlink:href="#SVGID_21_"  style="overflow:visible;"/>
	</clipPath>
	<g class="st10">
		<defs>
			<rect id="SVGID_23_" x="-466.5" y="-1475" width="1024" height="2275"/>
		</defs>
		<clipPath id="SVGID_24_">
			<use xlink:href="#SVGID_23_"  style="overflow:visible;"/>
		</clipPath>
		<rect x="17.8" y="43.6" class="st11" width="63.2" height="45.7"/>
	</g>
</g>
</svg>
