<?xml version="1.0" encoding="utf-8"?>
<!-- Generator: Adobe Illustrator 20.0.0, SVG Export Plug-In . SVG Version: 6.00 Build 0)  -->
<!DOCTYPE svg PUBLIC "-//W3C//DTD SVG 1.1//EN" "http://www.w3.org/Graphics/SVG/1.1/DTD/svg11.dtd">
<svg version="1.1" id="Calque_1" xmlns="http://www.w3.org/2000/svg" xmlns:xlink="http://www.w3.org/1999/xlink" x="0px" y="0px"
	 viewBox="0 0 100 100" style="enable-background:new 0 0 100 100;" xml:space="preserve">
<style type="text/css">
	.st0{clip-path:url(#SVGID_2_);}
	.st1{clip-path:url(#SVGID_4_);fill:#4A4A4A;}
	.st2{clip-path:url(#SVGID_6_);}
	.st3{clip-path:url(#SVGID_8_);fill:#34A2DD;}
</style>
<g>
	<defs>
		<path id="SVGID_1_" d="M74.8,41.2c-0.1,0-0.3,0-0.4,0V27.6c0.2,0,0.5,0,0.8-0.1c1.6-0.4,6.1-1.1,8.5,0.7c1.2,1,1.8,2.6,1.8,4.9
			c0,2.5-0.8,4.4-2.3,5.7C80.1,41.7,74.8,41.2,74.8,41.2z M56.7,61.6c-0.9,0.3-1.5,1.1-1.5,2v4c0,0.8,0.5,1.6,1.2,1.9
			c0.8,0.4,1.6,0.9,2.3,1.5H43.3c0.7-0.6,1.5-1.1,2.3-1.5c0.7-0.4,1.2-1.1,1.2-1.9v-4c0-0.9-0.6-1.8-1.5-2
			c-8-2.5-13.5-9.8-13.5-18.3V30.2h38.3v13.1C70.1,51.8,64.7,59.1,56.7,61.6z M38.6,79.9c0-0.4,0.1-0.9,0.2-1.3
			c0.1-0.6,0.3-1.3,0.5-1.9c0.2-0.5,0.4-1,0.6-1.5h22.3c0.2,0.5,0.4,1,0.6,1.5c0.2,0.6,0.4,1.3,0.5,1.9c0.1,0.4,0.1,0.9,0.2,1.3
			H38.6z M70.1,20.5v5.5H31.9v-5.5H70.1z M18.8,38.9c-1.5-1.3-2.2-3.2-2.3-5.7c0-2.3,0.6-3.9,1.8-4.9c2.4-1.9,7-1.1,8.5-0.7
			c0.3,0.1,0.5,0.1,0.8,0.1v13.6c-0.1,0-0.3,0-0.4,0C27.2,41.2,21.9,41.7,18.8,38.9z M74.4,23.4v-5c0-1.2-1-2.1-2.1-2.1H29.8
			c-1.2,0-2.1,1-2.1,2.1v5c-1.6-0.4-7.8-1.6-11.8,1.5c-2.4,1.8-3.5,4.6-3.5,8.3c0.1,3.7,1.3,6.7,3.7,8.9c2.5,2.2,5.7,3,8.1,3.3
			c1.7,0.2,2.1,0.2,3.5,0.3c0.2,0.8,0.1,0.9,0.3,1.5c1.3,8.1,6.8,14.9,14.6,17.9v1.2c-0.8,0.5-1.6,1-2.4,1.7
			c-0.9,0.8-1.7,1.6-2.4,2.6c-1.1,1.4-2,3.1-2.6,4.8c-0.3,0.8-0.5,1.7-0.6,2.6c-0.2,0.9-0.2,1.9-0.2,2.8v1.3c0,1.2,1,2.1,2.1,2.1
			h29.1c1.2,0,2.1-1,2.1-2.1v-1.3c0-0.9-0.1-1.9-0.2-2.8c-0.1-0.9-0.4-1.7-0.6-2.6c-0.6-1.7-1.4-3.3-2.6-4.8
			c-0.7-0.9-1.5-1.8-2.4-2.6c-0.7-0.6-1.5-1.2-2.4-1.7v-1.2c7.8-3,13.3-9.8,14.6-17.9c0.1-1,0.1-0.8,0.1-1.7c1.6,0,2.4,0,3.8-0.1
			c2.4-0.3,5.6-1.1,8.1-3.3c2.4-2.1,3.6-5.1,3.7-8.9c0.1-3.7-1.1-6.5-3.5-8.3C82.2,21.8,76.1,23,74.4,23.4z"/>
	</defs>
	<clipPath id="SVGID_2_">
		<use xlink:href="#SVGID_1_"  style="overflow:visible;"/>
	</clipPath>
	<g class="st0">
		<defs>
			<rect id="SVGID_3_" x="-189.7" y="-1475.8" width="1024" height="2275"/>
		</defs>
		<clipPath id="SVGID_4_">
			<use xlink:href="#SVGID_3_"  style="overflow:visible;"/>
		</clipPath>
		<rect x="7.3" y="11.2" class="st1" width="87.4" height="78"/>
	</g>
</g>
<g>
	<defs>
		<path id="SVGID_5_" d="M59.1,42.1c-0.3-0.1-0.5-0.5-0.3-0.8c0.5-1.2,0.3-2.6-0.6-3.6c-0.9-1-2.4-1.2-3.6-0.7
			c-0.3,0.1-0.7,0-0.8-0.3c-0.5-1.2-1.6-2.1-3-2.1c-1.4,0-2.6,0.9-3,2.1C47.7,37,47.4,37.2,47,37c-1.2-0.5-2.6-0.3-3.6,0.7
			c-0.9,1-1.2,2.4-0.6,3.6c0.1,0.3,0,0.7-0.3,0.8c-1.2,0.5-2.1,1.7-2.1,3c0,1.4,0.9,2.6,2.1,3c0.3,0.1,0.5,0.5,0.3,0.8
			c-0.5,1.2-0.3,2.6,0.6,3.6c0.9,1,2.4,1.2,3.6,0.7c0.3-0.1,0.7,0,0.8,0.3c0.5,1.2,1.6,2.1,3,2.1c1.4,0,2.6-0.9,3-2.1
			c0.1-0.3,0.5-0.5,0.8-0.3c1.2,0.5,2.6,0.3,3.6-0.7c0.9-1,1.2-2.4,0.6-3.6c-0.1-0.3,0-0.7,0.3-0.8c1.2-0.5,2.1-1.7,2.1-3
			S60.3,42.6,59.1,42.1z"/>
	</defs>
	<clipPath id="SVGID_6_">
		<use xlink:href="#SVGID_5_"  style="overflow:visible;"/>
	</clipPath>
	<g class="st2">
		<defs>
			<rect id="SVGID_7_" x="-189.7" y="-1475.8" width="1024" height="2275"/>
		</defs>
		<clipPath id="SVGID_8_">
			<use xlink:href="#SVGID_7_"  style="overflow:visible;"/>
		</clipPath>
		<rect x="35.4" y="29.6" class="st3" width="30.8" height="31.2"/>
	</g>
</g>
</svg>
