<?xml version="1.0" encoding="utf-8"?>
<!-- Generator: Adobe Illustrator 20.0.0, SVG Export Plug-In . SVG Version: 6.00 Build 0)  -->
<!DOCTYPE svg PUBLIC "-//W3C//DTD SVG 1.1//EN" "http://www.w3.org/Graphics/SVG/1.1/DTD/svg11.dtd">
<svg version="1.1" id="Calque_1" xmlns="http://www.w3.org/2000/svg" xmlns:xlink="http://www.w3.org/1999/xlink" x="0px" y="0px"
	 viewBox="0 0 100 100" style="enable-background:new 0 0 100 100;" xml:space="preserve">
<style type="text/css">
	.st0{clip-path:url(#SVGID_2_);}
	.st1{clip-path:url(#SVGID_4_);fill:#34A2DD;}
	.st2{clip-path:url(#SVGID_6_);}
	.st3{clip-path:url(#SVGID_8_);fill:#34A2DD;}
	.st4{clip-path:url(#SVGID_10_);}
	.st5{clip-path:url(#SVGID_12_);fill:#34A2DD;}
	.st6{clip-path:url(#SVGID_14_);}
	.st7{clip-path:url(#SVGID_16_);fill:#34A2DD;}
	.st8{clip-path:url(#SVGID_18_);}
	.st9{clip-path:url(#SVGID_20_);fill:#4A4A4A;}
	.st10{clip-path:url(#SVGID_22_);}
	.st11{clip-path:url(#SVGID_24_);fill:#4A4A4A;}
</style>
<g>
	<defs>
		<path id="SVGID_1_" d="M50.8,56.4c-1.1,0-2-0.9-2-2v-21c0-1.1,0.9-2,2-2c1.1,0,2,0.9,2,2v21C52.8,55.5,51.9,56.4,50.8,56.4z"/>
	</defs>
	<clipPath id="SVGID_2_">
		<use xlink:href="#SVGID_1_"  style="overflow:visible;"/>
	</clipPath>
	<g class="st0">
		<defs>
			<rect id="SVGID_3_" x="-739.1" y="-1475.9" width="1024" height="2275"/>
		</defs>
		<clipPath id="SVGID_4_">
			<use xlink:href="#SVGID_3_"  style="overflow:visible;"/>
		</clipPath>
		<rect x="43.7" y="26.4" class="st1" width="14" height="35"/>
	</g>
</g>
<g>
	<defs>
		<path id="SVGID_5_" d="M53.4,45.7c1.3,0.3,2.5,0.4,3.7,0.4c6.9,0,9.7-5.2,10.8-8c-1.3-0.3-2.5-0.4-3.6-0.4
			C57.3,37.7,54.4,42.8,53.4,45.7z M57.1,50.1c-2.1,0-4.4-0.4-6.8-1.1c-1-0.3-1.6-1.3-1.4-2.3c0.9-4.5,5.2-13.1,15.3-13.1
			c2.1,0,4.3,0.4,6.7,1.1c1,0.3,1.6,1.3,1.4,2.3C71.5,41.5,67.3,50.1,57.1,50.1z"/>
	</defs>
	<clipPath id="SVGID_6_">
		<use xlink:href="#SVGID_5_"  style="overflow:visible;"/>
	</clipPath>
	<g class="st2">
		<defs>
			<rect id="SVGID_7_" x="-739.1" y="-1475.9" width="1024" height="2275"/>
		</defs>
		<clipPath id="SVGID_8_">
			<use xlink:href="#SVGID_7_"  style="overflow:visible;"/>
		</clipPath>
		<rect x="43.9" y="28.6" class="st3" width="33.5" height="26.5"/>
	</g>
</g>
<g>
	<defs>
		<path id="SVGID_9_" d="M60.2,21.3c-2.7,0.7-4.7,1.9-5.9,3.7c-1.3,2-1.5,4.3-1.5,5.8c2.7-0.7,4.7-2,5.9-3.8
			C60,25.2,60.2,22.9,60.2,21.3z M51,35.3c-0.9,0-1.7-0.6-2-1.5c-0.1-0.2-1.5-6.1,1.8-11c2.2-3.2,5.8-5.2,10.7-5.8
			c1-0.1,2,0.5,2.2,1.5c0.1,0.2,1.5,6.1-1.8,10.9c-2.2,3.2-5.8,5.2-10.8,5.9C51.2,35.3,51.1,35.3,51,35.3z"/>
	</defs>
	<clipPath id="SVGID_10_">
		<use xlink:href="#SVGID_9_"  style="overflow:visible;"/>
	</clipPath>
	<g class="st4">
		<defs>
			<rect id="SVGID_11_" x="-739.1" y="-1475.9" width="1024" height="2275"/>
		</defs>
		<clipPath id="SVGID_12_">
			<use xlink:href="#SVGID_11_"  style="overflow:visible;"/>
		</clipPath>
		<rect x="43.7" y="11.9" class="st5" width="25.5" height="28.3"/>
	</g>
</g>
<g>
	<defs>
		<path id="SVGID_13_" d="M34.7,27.9c1.7,8.4,7.3,10.3,11.8,10.3c0.3,0,0.6,0,0.9,0c-1.7-8.4-7.3-10.3-11.9-10.3
			C35.2,27.9,34.9,27.9,34.7,27.9z M46.5,42.2c-4.3,0-14.5-1.5-16.1-15.8c-0.1-1,0.6-2,1.6-2.2c0.1,0,1.5-0.3,3.5-0.3
			c4.3,0,14.6,1.5,16.2,15.8c0.1,1-0.6,2-1.5,2.2C50,41.9,48.6,42.2,46.5,42.2z"/>
	</defs>
	<clipPath id="SVGID_14_">
		<use xlink:href="#SVGID_13_"  style="overflow:visible;"/>
	</clipPath>
	<g class="st6">
		<defs>
			<rect id="SVGID_15_" x="-739.1" y="-1475.9" width="1024" height="2275"/>
		</defs>
		<clipPath id="SVGID_16_">
			<use xlink:href="#SVGID_15_"  style="overflow:visible;"/>
		</clipPath>
		<rect x="25.4" y="18.8" class="st7" width="31.3" height="28.3"/>
	</g>
</g>
<g>
	<defs>
		<path id="SVGID_17_" d="M37.7,56.4l0.6,4.4l26.2,0l0.6-4.4L37.7,56.4z M36.5,64.8c-1,0-1.9-0.8-2-1.8l-1.1-8.4
			c-0.1-0.6,0.1-1.2,0.5-1.6c0.4-0.4,0.9-0.7,1.5-0.7l31.9,0c0.6,0,1.1,0.2,1.5,0.7c0.4,0.4,0.6,1,0.5,1.6l-1.1,8.4
			c-0.1,1-1,1.8-2,1.8L36.5,64.8z"/>
	</defs>
	<clipPath id="SVGID_18_">
		<use xlink:href="#SVGID_17_"  style="overflow:visible;"/>
	</clipPath>
	<g class="st8">
		<defs>
			<rect id="SVGID_19_" x="-739.1" y="-1475.9" width="1024" height="2275"/>
		</defs>
		<clipPath id="SVGID_20_">
			<use xlink:href="#SVGID_19_"  style="overflow:visible;"/>
		</clipPath>
		<rect x="28.4" y="47.4" class="st9" width="45.9" height="22.5"/>
	</g>
</g>
<g>
	<defs>
		<path id="SVGID_21_" d="M60.6,83.2H42.1c-1,0-1.8-0.7-2-1.6l-3.5-17.2c-0.2-1.1,0.5-2.2,1.6-2.4c1.1-0.2,2.2,0.5,2.4,1.6l3.2,15.6
			h15.1l3.2-15.6c0.2-1.1,1.3-1.8,2.4-1.6c1.1,0.2,1.8,1.3,1.6,2.4l-3.5,17.2C62.4,82.5,61.5,83.2,60.6,83.2z"/>
	</defs>
	<clipPath id="SVGID_22_">
		<use xlink:href="#SVGID_21_"  style="overflow:visible;"/>
	</clipPath>
	<g class="st10">
		<defs>
			<rect id="SVGID_23_" x="-739.1" y="-1475.9" width="1024" height="2275"/>
		</defs>
		<clipPath id="SVGID_24_">
			<use xlink:href="#SVGID_23_"  style="overflow:visible;"/>
		</clipPath>
		<rect x="31.6" y="57" class="st11" width="39.4" height="31.3"/>
	</g>
</g>
</svg>
