<?xml version="1.0" encoding="utf-8"?>
<!-- Generator: Adobe Illustrator 20.0.0, SVG Export Plug-In . SVG Version: 6.00 Build 0)  -->
<!DOCTYPE svg PUBLIC "-//W3C//DTD SVG 1.1//EN" "http://www.w3.org/Graphics/SVG/1.1/DTD/svg11.dtd">
<svg version="1.1" id="Layer_1" xmlns="http://www.w3.org/2000/svg" xmlns:xlink="http://www.w3.org/1999/xlink" x="0px" y="0px"
	 viewBox="0 0 210.9 28" style="enable-background:new 0 0 210.9 28;" xml:space="preserve">
<style type="text/css">
	.st0{fill:#CCD0D8;}
</style>
<g>
	<g>
		<g>
			<polygon class="st0" points="4.5,10.5 4.5,0 0,0 0,22.4 4.5,22.4 4.5,15 44.9,15 44.9,22.4 49.4,22.4 49.4,10.5 			"/>
		</g>
	</g>
	<polygon class="st0" points="64.2,12.6 71.8,12.6 71.8,22.4 75.4,22.4 75.4,0 71.8,0 71.8,9.5 64.2,9.5 64.2,0 60.7,0 60.7,22.4 
		64.2,22.4 	"/>
	<path class="st0" d="M84.3,22.7c3.5,0,5.7-2.2,5.7-5.8v-4.7c0-3.6-2.2-5.8-5.7-5.8c-3.6,0-5.7,2.3-5.7,5.8v4.7
		C78.6,20.5,80.7,22.7,84.3,22.7z M81.7,11.6c0-1.6,0.9-2.7,2.6-2.7c1.6,0,2.6,1.1,2.6,2.7v5.8c0,1.6-0.9,2.7-2.6,2.7
		s-2.6-1.1-2.6-2.7V11.6z"/>
	<path class="st0" d="M94.2,17.2c0,2.4,0.2,3.8,0.9,5.2h3.4c-0.8-1.5-1.1-3.1-1.1-5.2V9.4h2.6V6.9h-2.6v-4l-3.1,1v3H92v2.6h2.1
		L94.2,17.2L94.2,17.2z"/>
	<path class="st0" d="M107.9,22.7c3.6,0,5.4-2.1,5.4-5.7v-0.2h-2.8v0.6c0,1.6-0.9,2.7-2.6,2.7s-2.6-1.1-2.6-2.7V15h8v-2.8
		c0-3.6-1.8-5.8-5.4-5.8s-5.7,2.3-5.7,5.8v4.7C102.2,20.5,104.3,22.7,107.9,22.7z M105.3,11.6c0-1.6,0.9-2.7,2.6-2.7
		s2.6,1.1,2.6,2.7v1h-5.2V11.6z"/>
	<rect x="116.1" class="st0" width="3.2" height="22.4"/>
	<polygon class="st0" points="130.3,22.4 133.8,22.4 133.8,3.2 139.3,3.2 139.3,0 124.8,0 124.8,3.2 130.3,3.2 	"/>
	<path class="st0" d="M138.6,16.9c0,3.6,2.2,5.8,5.7,5.8s5.7-2.2,5.7-5.8v-4.7c0-3.6-2.2-5.8-5.7-5.8c-3.6,0-5.7,2.3-5.7,5.8V16.9z
		 M141.8,11.6c0-1.6,0.9-2.7,2.6-2.7c1.6,0,2.6,1.1,2.6,2.7v5.8c0,1.6-0.9,2.7-2.6,2.7c-1.7,0-2.6-1.1-2.6-2.7V11.6z"/>
	<path class="st0" d="M156.3,12.9c0-1.2,1-4.1,3-4.1c1.3,0,2.2,0.9,2.2,2.5v11.1h3.2V11.3c0-2.9-1.5-4.9-4.5-4.9
		c-1.9,0-3.3,1.1-4.4,3.9l-0.2-3.6H153v15.7h3.2v-9.5H156.3z"/>
	<rect x="167.9" y="6.7" class="st0" width="3.2" height="15.7"/>
	<rect x="168" y="0.7" class="st0" width="3" height="3.2"/>
	<path class="st0" d="M180,28c3.9,0,6.4-2.3,6.4-4.9v-0.3c0-2.2-1.7-3.7-5.7-3.7c-3.3,0-4.1-0.6-4.1-1.4c0-0.5,0.6-1.3,1.5-1.3
		c0.3,0.1,1.3,0.2,1.6,0.2c3.4,0,5.5-2,5.5-4.9v-0.3c0-1.2-0.5-2.4-1.6-3.3c0.5,0.3,0.9,0.3,1.3,0.3c0.8,0,1.8-0.6,1.8-2.1
		c0-0.3,0-0.7-0.1-1.4h-2.2c0,1.1-0.4,2-2,2c-0.3,0-1.1-0.4-2.6-0.4c-3.1,0-5.5,2.3-5.5,5.1v0.1c0,1.9,0.8,3.4,2.4,4.2
		c-1.5,0.2-2.7,1.5-2.7,2.7c0,1.1,0.8,2.1,2.6,2.5c-2.1,0.5-3,1.5-3,2.9v0.2C173.5,26.4,176.4,28,180,28z M177.1,11.4
		c0-1.5,1-2.8,2.7-2.8c1.6,0,2.7,1.3,2.7,2.8v0.1c0,1.5-1,2.8-2.7,2.8c-1.6,0-2.7-1.3-2.7-2.8V11.4z M176.3,23.3
		c0-1,1.1-1.8,3.6-1.8c2.8,0,3.5,0.7,3.5,1.7v0.2c0,1-0.9,2.1-3.5,2.1c-2.5,0-3.6-1-3.6-2V23.3z"/>
	<path class="st0" d="M192.2,12.9c0-1.2,1.1-4.1,3-4.1c1.3,0,2.2,0.9,2.2,2.5v11.1h3.2V11.3c0-2.9-1.6-4.9-4.1-4.9
		c-1.6,0-3.5,1-4.3,3.3V0H189v22.4h3.2L192.2,12.9L192.2,12.9z"/>
	<path class="st0" d="M205.1,17.2c0,2.4,0.2,3.8,0.9,5.2h3.4c-0.8-1.5-1.1-3.1-1.1-5.2V9.4h2.6V6.9h-2.6v-4l-3.1,1v3H203v2.6h2.1
		V17.2z"/>
</g>
</svg>
