<?xml version="1.0" encoding="utf-8"?>
<!-- Generator: Adobe Illustrator 19.2.1, SVG Export Plug-In . SVG Version: 6.00 Build 0)  -->
<!DOCTYPE svg PUBLIC "-//W3C//DTD SVG 1.1//EN" "http://www.w3.org/Graphics/SVG/1.1/DTD/svg11.dtd">
<svg version="1.1" id="Layer_1" xmlns="http://www.w3.org/2000/svg" xmlns:xlink="http://www.w3.org/1999/xlink" x="0px" y="0px"
	 viewBox="0 0 125 31.2" style="enable-background:new 0 0 125 31.2;" xml:space="preserve">
<style type="text/css">
	.st0{fill:#FFFFFF;}
</style>
<g>
	<path class="st0" d="M55.9,15.6c0,2.5-2,4.6-4.6,4.6c-2.5,0-4.6-2-4.6-4.6s2-4.6,4.6-4.6c1.8-2.8,2.9-2.6,2.9-3.2
		c0-0.2-1.9-0.5-2.9-0.5l0,0c-4.5,0-8.3,3.7-8.3,8.3s3.7,8.3,8.3,8.3s8.3-3.7,8.3-8.3c0-1.3-0.3-2.4-0.8-3.5
		C58.9,12.1,55.9,12.3,55.9,15.6z"/>
	<path class="st0" d="M55,15.6c0-2.5,2-4.6,4.6-4.6s4.6,2,4.6,4.6s-2,4.6-4.6,4.6c-1.8,2.8-2.9,2.6-2.9,3.2c0,0.2,1.9,0.5,2.9,0.5
		l0,0c4.5,0,8.3-3.7,8.3-8.3s-3.7-8.3-8.3-8.3s-8.3,3.7-8.3,8.3c0,1.3,0.3,2.4,0.8,3.5C52.1,19.1,55,18.9,55,15.6z"/>
	<g>
		<path class="st0" d="M31.7,7.9c0-0.2,0.2-0.4,0.4-0.4h2.2c0.2,0,0.3,0.1,0.3,0.2v7.7l4.6-7.8c0.1-0.1,0.2-0.2,0.4-0.2h2.5
			c0.2,0,0.4,0.2,0.4,0.4c0,0,0,0.1,0,0.2l0,0l-4.6,8.3l4.8,6.7l0,0c0,0,0,0.1,0,0.2c0,0.2-0.2,0.4-0.4,0.4h-2.7
			c-0.1,0-0.2,0-0.3-0.1v0l-4.6-6.4v6.2c0,0.2-0.2,0.4-0.4,0.4h-2.2c-0.2,0-0.4-0.2-0.4-0.4v-9.2"/>
		<path class="st0" d="M78.9,23.4c0,0.2-0.2,0.4-0.5,0.4h-8c-0.2,0-0.4-0.2-0.4-0.4V8c0-0.2,0.2-0.5,0.4-0.5h2.2
			c0.2,0,0.4,0.2,0.4,0.5v12.8h5.5c0.2,0,0.5,0.2,0.5,0.4L78.9,23.4L78.9,23.4z"/>
		<path class="st0" d="M92.2,23.4c0,0.2-0.2,0.4-0.4,0.4H81.5c-0.2,0-0.4-0.2-0.4-0.4V7.9c0-0.2,0.2-0.4,0.4-0.4h10
			c0.2,0,0.4,0.2,0.4,0.4v2.2c0,0.2-0.2,0.4-0.4,0.4h-7.4v3.7h7c0.2,0,0.4,0.2,0.4,0.4v2.2c0,0.2-0.2,0.4-0.4,0.4h-7v3.7h7.8
			c0.2,0,0.4,0.2,0.4,0.4L92.2,23.4L92.2,23.4z"/>
		<path class="st0" d="M105.3,19c0,0.1,0,1.3-0.7,2.4c-0.7,1.1-2,2.4-4.8,2.4c-2.2,0-3.9-0.9-4.8-2.6c-0.5-0.8-0.6-1.6-0.7-2
			c0,0,0-0.1,0-0.1c0-0.2,0.2-0.4,0.3-0.4H97c0.2,0,0.2,0.1,0.3,0.2l0,0v0c0,0.2,0.1,0.5,0.3,0.8c0.4,0.7,1.1,1,2.2,1
			c1.1,0,1.9-0.3,2.3-1c0.2-0.5,0.3-0.9,0.3-0.9c0-0.5-0.1-1.1-1.1-1.6c-0.7-0.3-1.5-0.3-1.5-0.3c-0.1,0-1.4,0-2.6-0.5
			c-1.9-0.8-3-2.3-3-4.3c0-0.2,0-1.9,1.4-3.3c1-1,2.4-1.5,4.1-1.5c1.1,0,2.7,0.2,3.9,1.5c1.2,1.2,1.5,2.7,1.6,3.5v0
			c0,0.2-0.2,0.4-0.4,0.4h-2.3c-0.2,0-0.3-0.2-0.3-0.3v0c0-0.2-0.2-0.7-0.3-1c-0.2-0.5-0.8-1.1-2.2-1.1c-0.9,0-1.6,0.2-2,0.7
			c-0.5,0.5-0.5,1.3-0.5,1.3c0,0.5,0.1,1.1,1.1,1.5c0.7,0.3,1.5,0.3,1.5,0.3c0.1,0,1.4,0,2.6,0.5C104.3,15.5,105.3,17,105.3,19z"/>
		<path class="st0" d="M117.2,10.1c0,0.2-0.2,0.4-0.5,0.4h-3.6v12.8c0,0.2-0.2,0.5-0.4,0.5h-2.2c-0.2,0-0.4-0.2-0.4-0.5V10.5h-3.7
			c-0.2,0-0.4-0.2-0.4-0.4V7.9c0-0.2,0.2-0.4,0.4-0.4h10.2c0.2,0,0.5,0.2,0.5,0.4L117.2,10.1L117.2,10.1z"/>
	</g>
	<g>
		<path class="st0" d="M14.3,15.6c0,0.1-0.1,0.2-0.3,0.2h-2.1v7.5c0,0.2-0.1,0.3-0.2,0.3h-1.3c-0.1,0-0.2-0.1-0.2-0.3v-7.5H8
			c-0.1,0-0.2-0.1-0.2-0.2v-1.3c0-0.1,0.1-0.2,0.2-0.2h6c0.2,0,0.3,0.1,0.3,0.2V15.6L14.3,15.6z"/>
		<path class="st0" d="M21.9,23.4c0,0.1-0.1,0.2-0.2,0.2h-1.3c-0.1,0-0.2-0.1-0.2-0.2v-3.7h-3v3.7c0,0.1-0.1,0.2-0.2,0.2h-1.3
			c-0.1,0-0.2-0.1-0.2-0.2v-9.1c0-0.2,0.1-0.3,0.2-0.3H17c0.1,0,0.2,0.1,0.2,0.3V18h3v-3.6c0-0.2,0.1-0.3,0.2-0.3h1.3
			c0.1,0,0.2,0.1,0.2,0.3V23.4z"/>
		<path class="st0" d="M29.7,23.4c0,0.1-0.1,0.2-0.2,0.2h-6.1c-0.1,0-0.2-0.1-0.2-0.2v-9.1c0-0.1,0.1-0.2,0.2-0.2h5.9
			c0.1,0,0.2,0.1,0.2,0.2v1.3c0,0.1-0.1,0.2-0.2,0.2h-4.3V18H29c0.1,0,0.2,0.1,0.2,0.2v1.3c0,0.1-0.1,0.2-0.2,0.2h-4.1v2.2h4.6
			c0.1,0,0.2,0.1,0.2,0.2V23.4z"/>
	</g>
</g>
</svg>
