<?xml version="1.0" encoding="utf-8"?>
<!-- Generator: Adobe Illustrator 20.0.0, SVG Export Plug-In . SVG Version: 6.00 Build 0)  -->
<!DOCTYPE svg PUBLIC "-//W3C//DTD SVG 1.1//EN" "http://www.w3.org/Graphics/SVG/1.1/DTD/svg11.dtd">
<svg version="1.1" id="Calque_1" xmlns="http://www.w3.org/2000/svg" xmlns:xlink="http://www.w3.org/1999/xlink" x="0px" y="0px"
	 viewBox="0 0 541 110" style="enable-background:new 0 0 541 110;" xml:space="preserve">
<style type="text/css">
	.st0{fill:#FFFFFF;}
	.st1{fill:#2CA1DF;}
</style>
<title>LOGO2</title>
<desc>Created with Sketch.</desc>
<g id="Page-1">
	<g id="LOGO" transform="translate(-932.000000, -257.000000)">
		<g id="LOGO2-" transform="translate(932.000000, 257.000000)">
			<g id="txt" transform="translate(137.000000, 18.000000)">
				<g id="Group" transform="translate(0.267954, 0.367429)">
					<path id="Shape" class="st0" d="M1.5,55.6C3.4,53.3,6.7,53,9,54.9c4.5,3.7,12.2,7.9,19.4,7.8c5.1,0,9.6-1.5,12.7-3.8
						c3-2.2,4.4-4.8,4.4-7.3c0-1.3-0.3-2.2-0.9-3.2s-1.5-2-3-3c-2.9-1.9-7.9-3.7-13.9-4.8h-0.2c-4.8-0.9-9.3-2.1-13.1-4
						c-3.9-1.8-7.2-4.4-9.4-7.9c-1.5-2.4-2.3-5.3-2.3-8.4c0-6.1,3.5-11.4,8.2-14.8c4.8-3.5,11-5.4,17.6-5.4c9.7,0,17,4.8,22.2,8.2
						c2.3,1.6,3,4.9,1.4,7.2c-1.5,2.4-4.8,3.1-7.2,1.5c-5.2-3.5-10.1-6.5-16.4-6.5c-4.6,0-8.7,1.4-11.4,3.5S13,18.3,13,20.4
						c0,1.2,0.2,2,0.7,2.8c0.5,0.8,1.4,1.7,2.7,2.6c2.6,1.8,7.2,3.5,12.7,4.5h0.2c5.2,1,9.9,2.3,14,4.3c4.2,2,7.8,4.7,10.1,8.5
						c1.5,2.4,2.4,5.5,2.4,8.7c0,6.5-3.7,12.1-8.8,15.8c-5,3.7-11.6,5.8-18.8,5.8c-11-0.1-20.2-5.6-26-10.1
						C0.1,61.2-0.2,57.8,1.5,55.6L1.5,55.6z"/>
					<path id="Shape_1_" class="st0" d="M113.4,48v19.9c0,2.9-2.4,5.4-5.4,5.4c-2.6,0-4.7-1.9-5.3-4.4c-3.9,2.7-8.5,4.4-13.5,4.4
						c-6.9,0-12.9-2.8-17.3-7.4c-4.4-4.7-6.9-11-6.9-17.9c0-7,2.5-13.3,6.9-17.9c4.4-4.7,10.4-7.6,17.3-7.6c5.1,0,9.6,1.7,13.5,4.5
						c0.6-2.5,2.6-4.5,5.3-4.5c2.9,0,5.4,2.4,5.4,5.5V48L113.4,48z M102.7,48c0-4.3-1.5-7.9-4-10.5c-2.4-2.7-5.9-4.2-9.4-4.2
						c-3.7,0-7.1,1.4-9.4,4.2c-2.4,2.5-3.9,6.2-3.9,10.5c0,4.2,1.4,7.8,3.9,10.5c2.3,2.5,5.8,4,9.4,4c3.6,0,7-1.4,9.4-4
						C101.2,55.8,102.7,52.2,102.7,48L102.7,48z"/>
					<path id="Shape_2_" class="st0" d="M133.4,48L133.4,48V7.6c0-2.9,2.4-5.5,5.5-5.5c3.1,0,5.6,2.5,5.6,5.5v19.1
						c3.8-2.6,8.7-4.3,13.6-4.3c13.7,0,24.7,11.6,24.7,25.5c0,13.7-11,25.3-24.7,25.3c-5.1,0-9.9-1.7-13.8-4.4
						c-0.5,2.4-2.6,4.4-5.4,4.4c-3,0-5.5-2.5-5.5-5.5V48L133.4,48z M144.5,48c0,3.9,1.5,7.5,4.1,10c2.5,2.6,5.8,4.2,9.5,4.2
						c3.7,0,7-1.5,9.5-4.2c2.5-2.5,4.1-6.2,4.1-10c0-4.1-1.5-7.7-4.1-10.2c-2.5-2.6-5.9-4.2-9.5-4.2c-3.8,0-7,1.5-9.5,4.2
						C146,40.3,144.5,43.9,144.5,48L144.5,48z"/>
					<path id="Shape_3_" class="st0" d="M243.5,48v19.9c0,2.9-2.4,5.4-5.4,5.4c-2.6,0-4.7-1.9-5.3-4.4c-3.9,2.7-8.5,4.4-13.5,4.4
						c-6.9,0-12.9-2.8-17.3-7.4c-4.4-4.7-6.9-11-6.9-17.9c0-7,2.5-13.3,6.9-17.9c4.4-4.7,10.4-7.6,17.3-7.6c5.1,0,9.6,1.7,13.5,4.5
						c0.6-2.5,2.6-4.5,5.3-4.5c2.9,0,5.4,2.4,5.4,5.5V48L243.5,48z M232.7,48c0-4.3-1.5-7.9-4-10.5c-2.4-2.7-5.9-4.2-9.4-4.2
						c-3.7,0-7.1,1.4-9.4,4.2C207.4,40,206,43.7,206,48c0,4.2,1.4,7.8,3.9,10.5c2.3,2.5,5.8,4,9.4,4c3.6,0,7-1.4,9.4-4
						C231.2,55.8,232.7,52.2,232.7,48L232.7,48z"/>
					<path id="Shape_4_" class="st0" d="M264.5,4.6c0-1.3,1.1-2.4,2.4-2.4h0.3h15.6c9.7,0,17.7,7.9,17.7,17.8
						c0,5.6-2.7,10.6-6.8,13.8c8,2.7,13.9,10.2,13.9,19.2c0,11.3-9.2,20.3-20.3,20.3h-20H267h-0.1c-1.3,0-2.3-1.1-2.3-2.4V4.6
						L264.5,4.6z M282.8,32.5c7,0,12.7-5.7,12.7-12.6c0-7.1-5.7-12.8-12.7-12.8h-13.3v25.4H282.8L282.8,32.5z M287.3,68.3
						c8.5,0,15.3-6.8,15.4-15.4c-0.1-8.5-6.9-15.4-15.4-15.4h-17.8v30.7L287.3,68.3L287.3,68.3z"/>
					<path id="Shape_5_" class="st0" d="M345.1,23.5c13.1,0,23.6,11.4,23.6,24.9s-10.5,24.9-23.6,24.9c-13,0-23.6-11.4-23.6-24.9
						S332,23.5,345.1,23.5L345.1,23.5z M345.1,68.4c10.1,0,18.7-8.9,18.7-20s-8.6-20.1-18.7-20.1c-10.1,0-18.7,9-18.7,20.1
						S334.9,68.4,345.1,68.4L345.1,68.4z"/>
					<path id="Shape_6_" class="st0" d="M402.8,26c0,1.2-1.2,2.4-2.4,2.4h-6.4v36.3c0,2.4,2.4,3.7,3.7,3.7s2.5,1.3,2.5,2.5
						s-1.3,2.4-2.5,2.4c-5,0-8.8-3.7-8.8-8.7V28.4h-6.2c-2.4,0-2.4-1.2-2.4-2.4c0-1.2,0-2.4,2.4-2.4h6.2V5c0-1.2,1.2-2.4,2.4-2.4
						c1.3,0,2.6,1.2,2.6,2.4v18.5h6.4C401.6,23.5,402.8,24.7,402.8,26L402.8,26z"/>
				</g>
			</g>
			<g id="Group-8-Copy">
				<circle id="Combined-Shape" class="st0" cx="55" cy="55" r="55"/>
			</g>
			<g id="Group-5" transform="translate(12.861507, 14.069238)">
				<path id="Shape_7_" class="st1" d="M66.5,21.8v0.9c0,0.4,0,0.8-0.1,1.2c4.1,0.8,7.6,2.8,10.4,5.6c-1,1.5-4.6,7-10.1,12.4
					c0,0,0-0.1-0.1-0.1c-0.4-0.6-0.8-1.1-1.2-1.6c-0.1-0.1-0.2-0.2-0.3-0.4c-0.4-0.6-0.9-1.1-1.4-1.6c-0.1-0.1-0.1-0.1-0.1-0.1
					c-0.4-0.5-0.9-1-1.4-1.5c-0.1-0.1-0.2-0.2-0.3-0.3l-0.1-0.1c-0.4,0.6-0.9,1.1-1.4,1.7c0.1,0.1,0.1,0.1,0.1,0.1
					c0.5,0.5,1,1.1,1.4,1.5l0.1,0.1c0.5,0.6,0.9,1.1,1.4,1.6c0.1,0.1,0.2,0.2,0.2,0.3c0.4,0.6,0.8,1.1,1.2,1.6
					c0,0.1,0.1,0.1,0.1,0.1c-0.1,0.1-0.2,0.2-0.4,0.3c-0.2,0.2-0.4,0.4-0.6,0.6c-0.2,0.2-0.5,0.4-0.7,0.6c-0.2,0.2-0.4,0.4-0.6,0.5
					c-0.2,0.2-0.5,0.4-0.7,0.6c-0.2,0.2-0.4,0.3-0.6,0.5c-0.2,0.2-0.5,0.4-0.7,0.6c-0.2,0.1-0.4,0.3-0.6,0.4
					c-0.2,0.2-0.5,0.4-0.8,0.6c-0.2,0.1-0.4,0.2-0.6,0.4c-0.2,0.2-0.6,0.4-0.8,0.6c-0.2,0.1-0.4,0.2-0.6,0.4
					c-0.3,0.2-0.6,0.4-0.9,0.6c-0.2,0.1-0.3,0.2-0.5,0.2c-0.4,0.2-0.8,0.4-1.2,0.7c-0.1,0-0.1,0.1-0.1,0.1c-0.4,0.2-0.9,0.4-1.4,0.7
					c-0.1,0.1-0.2,0.1-0.4,0.2c-0.3,0.1-0.7,0.3-1,0.4c-0.2,0.1-0.4,0.1-0.6,0.2c-0.3,0.1-0.6,0.2-0.9,0.3c-0.2,0.1-0.4,0.1-0.6,0.2
					c-0.2,0.1-0.6,0.2-0.8,0.2c-0.2,0.1-0.4,0.1-0.6,0.2c-0.2,0.1-0.6,0.1-0.8,0.2c-0.2,0.1-0.4,0.1-0.6,0.1
					c-0.2,0.1-0.5,0.1-0.8,0.2c-0.2,0.1-0.4,0.1-0.6,0.1c-0.2,0.1-0.5,0.1-0.8,0.1c-0.2,0.1-0.4,0.1-0.6,0.1c-0.1,0-0.2,0-0.4,0.1
					c-1.4-2.7-2.2-5.8-2.4-8.9c-0.7-0.1-1.4-0.2-2.1-0.3c0.1,3.8,1.1,7.6,3,10.8C45.9,63,53.7,67.6,62,67.6l0.1,0.1l0,0
					c4.4,0,8.6-1.2,12.2-3.7l0,0c4.6-3.1,8.1-7.4,9.7-12.5c0.7-2.2,1.1-4.5,1.1-6.9C85.3,33.3,77.3,23.8,66.5,21.8L66.5,21.8z
					 M63.4,60c-0.1,0.2-0.2,0.4-0.3,0.6C63,60.7,63,60.8,62.9,61c-0.1,0.2-0.2,0.4-0.2,0.6c-0.1,0.1-0.1,0.3-0.2,0.4
					c-0.1,0.2-0.1,0.4-0.2,0.6c-0.1,0.1-0.1,0.3-0.2,0.4c-0.1,0.2-0.1,0.4-0.2,0.6c-0.1,0.1-0.1,0.3-0.1,0.4
					c-0.1,0.2-0.1,0.4-0.2,0.6c-0.1,0.1-0.1,0.3-0.1,0.4c0,0.1,0,0.1-0.1,0.1C54.6,65,48.4,61.5,44.6,56c0.4-0.1,0.9-0.1,1.4-0.2
					h0.1c0.4-0.1,0.9-0.2,1.3-0.3c0.2-0.1,0.3-0.1,0.5-0.1c0.3-0.1,0.6-0.2,0.9-0.2c0.2-0.1,0.4-0.1,0.6-0.2
					c0.3-0.1,0.6-0.2,0.9-0.2c0.2-0.1,0.4-0.1,0.6-0.2c0.3-0.1,0.6-0.2,0.9-0.3c0.2-0.1,0.4-0.2,0.6-0.2c0.3-0.1,0.6-0.2,0.9-0.4
					c0.2-0.1,0.4-0.2,0.6-0.2c0.3-0.1,0.6-0.2,0.9-0.4c0.2-0.1,0.4-0.2,0.6-0.3c0.3-0.1,0.6-0.3,0.9-0.5c0.2-0.1,0.4-0.2,0.5-0.2
					c0.4-0.2,0.8-0.4,1.2-0.7C58,51,58.2,51,58.2,51c0.5-0.3,0.9-0.6,1.4-0.9c0.1-0.1,0.3-0.2,0.4-0.3c0.3-0.2,0.7-0.4,1-0.7
					c0.2-0.1,0.4-0.2,0.6-0.4c0.3-0.2,0.6-0.4,0.9-0.6c0.2-0.1,0.4-0.3,0.6-0.4c0.2-0.2,0.6-0.4,0.8-0.7c0.2-0.2,0.4-0.3,0.6-0.5
					c0.2-0.2,0.6-0.4,0.8-0.7c0.2-0.2,0.4-0.3,0.6-0.5c0.1-0.1,0.2-0.2,0.3-0.2c0,0,0,0.1,0.1,0.1c0.4,0.6,0.7,1.1,1.1,1.6
					c0.1,0.1,0.1,0.2,0.2,0.4c0.3,0.6,0.6,1.1,0.9,1.6c0,0.1,0.1,0.1,0.1,0.1c0.2,0.5,0.6,1,0.8,1.5c0.1,0.1,0.1,0.2,0.2,0.3
					c0.2,0.6,0.5,1.1,0.7,1.6c0,0.1,0,0.1,0.1,0.1c0,0-0.1,0-0.1,0.1c-0.1,0.1-0.2,0.1-0.3,0.2c-0.2,0.1-0.4,0.2-0.6,0.4
					c-0.1,0.1-0.2,0.2-0.4,0.2c-0.2,0.1-0.3,0.2-0.5,0.4c-0.1,0.1-0.2,0.2-0.4,0.3c-0.2,0.1-0.3,0.2-0.4,0.4
					c-0.1,0.1-0.2,0.2-0.3,0.3c-0.1,0.1-0.3,0.2-0.4,0.4c-0.1,0.1-0.2,0.2-0.3,0.3s-0.3,0.3-0.4,0.4c-0.1,0.1-0.2,0.2-0.3,0.3
					c-0.1,0.2-0.3,0.3-0.4,0.5c-0.1,0.1-0.2,0.2-0.2,0.3c-0.2,0.2-0.3,0.4-0.5,0.6c-0.1,0.1-0.1,0.1-0.2,0.2
					c-0.2,0.3-0.4,0.6-0.6,0.9c-0.1,0.1-0.1,0.2-0.1,0.2c-0.1,0.2-0.2,0.4-0.4,0.7C63.5,59.7,63.5,59.8,63.4,60L63.4,60z M63.6,65.2
					c0.1-0.2,0.1-0.4,0.1-0.6c0-0.1,0.1-0.2,0.1-0.2c0.1-0.3,0.2-0.6,0.3-0.9c0-0.1,0.1-0.1,0.1-0.2c0.1-0.2,0.2-0.5,0.2-0.7
					c0.1-0.1,0.1-0.2,0.1-0.3c0.1-0.2,0.2-0.4,0.2-0.6c0.1-0.1,0.1-0.2,0.1-0.3c0.1-0.2,0.2-0.4,0.2-0.6c0.1-0.1,0.1-0.2,0.2-0.3
					c0.1-0.2,0.2-0.4,0.3-0.6c0.1-0.1,0.1-0.2,0.1-0.2c0.3-0.6,0.7-1.1,1.1-1.5c0.1-0.1,0.1-0.1,0.2-0.2c0.1-0.2,0.2-0.3,0.4-0.5
					c0.1-0.1,0.1-0.2,0.2-0.2c0.1-0.1,0.2-0.3,0.4-0.4c0.1-0.1,0.2-0.2,0.2-0.2c0.1-0.1,0.3-0.3,0.4-0.4c0.1-0.1,0.1-0.1,0.2-0.2
					c0.2-0.2,0.4-0.3,0.6-0.5c0.1-0.1,0.1-0.1,0.1-0.1c0.2-0.2,0.5-0.4,0.7-0.6c0.1-0.1,0.1-0.1,0.2-0.1c0.1-0.1,0.3-0.2,0.4-0.3
					l0,0c0,0.1,0.1,0.1,0.1,0.2c0.1,0.3,0.2,0.6,0.3,0.9c0.1,0.1,0.1,0.2,0.1,0.4c0.1,0.2,0.1,0.5,0.2,0.7c0.1,0.1,0.1,0.2,0.1,0.4
					c0.1,0.2,0.1,0.5,0.2,0.7c0,0.1,0.1,0.2,0.1,0.4c0.1,0.3,0.1,0.6,0.2,1v0.1c0.1,0.4,0.1,0.7,0.2,1.1c0,0.1,0,0.2,0.1,0.3
					c0.1,0.2,0.1,0.5,0.1,0.8c0,0.1,0,0.2,0.1,0.4v0.4C70,64.1,66.9,65,63.6,65.2L63.6,65.2z M74.9,61.1c0-0.1,0-0.1-0.1-0.2
					c-0.1-0.5-0.1-1-0.2-1.5v-0.2c-0.1-0.6-0.2-1.1-0.3-1.7c-0.1-0.1-0.1-0.3-0.1-0.4c-0.1-0.5-0.2-1-0.4-1.4c0-0.1-0.1-0.2-0.1-0.3
					c-0.2-0.6-0.4-1.1-0.6-1.7c0-0.1,0-0.1-0.1-0.1c0.1-0.1,0.2-0.1,0.2-0.1c0.2-0.1,0.4-0.2,0.6-0.2c0.1-0.1,0.2-0.1,0.4-0.1
					c0.2-0.1,0.4-0.1,0.6-0.2c0.1-0.1,0.2-0.1,0.4-0.1c0.2-0.1,0.4-0.1,0.7-0.2c0.1,0,0.2-0.1,0.3-0.1c0.2-0.1,0.6-0.1,0.8-0.2
					c0.1,0,0.1,0,0.2-0.1c0.3-0.1,0.7-0.1,1-0.1h0.4c0.2,0,0.4-0.1,0.7-0.1h0.4h0.6c0.3,0,0.7,0,1,0.1h0.3h0.1
					C80.4,55.5,78,58.7,74.9,61.1L74.9,61.1z M82.5,49.8h-0.4c-0.2,0-0.4-0.1-0.6-0.1c-0.3,0-0.6-0.1-0.9-0.1h-0.4H80h-0.4
					c-0.2,0-0.5,0-0.8,0.1c-0.1,0-0.3,0-0.4,0.1c-0.2,0-0.6,0.1-0.8,0.1c-0.1,0-0.2,0-0.4,0.1c-0.8,0.1-1.6,0.3-2.4,0.6
					c-0.1,0-0.2,0.1-0.3,0.1c-0.2,0.1-0.6,0.2-0.8,0.3c-0.1,0.1-0.2,0.1-0.4,0.1c-0.2,0.1-0.5,0.2-0.7,0.3c-0.1,0.1-0.2,0.1-0.2,0.1
					v-0.1c-0.2-0.6-0.5-1.1-0.8-1.7c-0.1-0.1-0.1-0.2-0.2-0.4c-0.3-0.6-0.6-1.1-0.9-1.7c-0.1-0.1-0.1-0.1-0.1-0.2
					c-0.3-0.6-0.6-1.1-0.9-1.6c-0.1-0.1-0.1-0.2-0.2-0.3c-0.4-0.6-0.7-1.1-1.1-1.7c-0.1-0.1-0.1-0.1-0.1-0.1
					c5.4-5.2,9-10.4,10.3-12.5c3.1,3.7,4.8,8.3,4.8,13.3C83.2,46.3,83,48.1,82.5,49.8L82.5,49.8z"/>
				<path id="Shape_8_" class="st1" d="M39.2,59.2c-0.4-0.5-0.9-1-1.2-1.5l1.6-1.2L38.4,55l-1.6,1.2c-0.8-1.3-1.5-2.7-2-4.2l1.8-0.6
					L36,49.7l-1.8,0.4c-0.4-1.4-0.6-2.9-0.7-4.7h2.6V44c-1.2,0-0.8-0.5-0.8-0.5h-1.7c0,0,0.1-0.2,0.1-0.5c-0.6-0.3-1.2-0.7-1.8-1.1
					c-0.1,0.6-0.1,0.9-0.1,1.5h-1.9v1.9h1.8c0.1,1.9,0.3,3.7,0.7,5.3l-1.7,0.7l0.6,1.8l1.7-0.6c0.6,1.7,1.4,3.2,2.3,4.6l-1.4,1.1
					l1.1,1.5l1.4-1c0.4,0.6,0.9,1.2,1.4,1.7c-3.8,3.5-8.9,5.6-14.6,5.6c-5.6,0-10.7-2.2-14.6-5.6c0.5-0.6,1-1.1,1.4-1.7l1.4,1
					l1.1-1.5l-1.4-1c0.9-1.4,1.7-3,2.3-4.6l1.7,0.6l0.6-1.8L14,50.7c0.4-1.6,0.7-3.5,0.7-5.3h2.1v-1.9h-1.9
					c-0.1-1.2-0.3-3.2-0.7-4.9l1.7-0.4l-0.6-1.7L13.6,37c-0.6-1.7-1.4-3.2-2.3-4.6l1.4-1l-1.1-1.5l-1.4,1c-0.4-0.6-0.9-1.2-1.4-1.7
					c3.2-3,7.5-5,12.1-5.5v-0.8v-1.1C9.2,23,0,32.9,0,44.8c0,12.8,10.5,23.2,23.4,23.2c8.4,0,15.6-4.3,19.8-10.9
					c-0.4-0.6-0.7-1.2-1.1-1.8C41.2,56.7,40.3,58,39.2,59.2L39.2,59.2z M7.4,59.2c-3.5-3.8-5.6-8.9-5.6-14.4s2.1-10.6,5.6-14.4
					c0.4,0.5,0.9,1,1.2,1.5l-1.6,1.2l1.1,1.5l1.6-1.2c0.8,1.3,1.5,2.7,2,4.2L10,38.1l0.6,1.7l1.8-0.8c0.4,1.4,0.6,3,0.7,4.3h-1.8
					v1.9H13c-0.1,1.9-0.3,3.3-0.7,4.7l-1.8-0.5L10,51.2l1.8,0.6c-0.5,1.5-1.2,2.9-2,4.2l-1.6-1.2l-1.1,1.5l1.6,1.2
					C8.3,58.2,7.9,58.7,7.4,59.2L7.4,59.2z"/>
				<path id="Shape_9_" class="st1" d="M54.2,82.5H32l2.5-1.7c0.1,0,4.2-3.1,4.4-14.1l1.9,0.1c-0.2,7.7-2.1,11.9-3.6,13.9h11.8
					c-1.8-2.1-4.3-6.2-4.3-14.3h1.9c0,10.5,5.2,14.3,5.2,14.3L54.2,82.5"/>
				<path id="Shape_10_" class="st1" d="M43.6,0.1C31,0.1,20.8,10.2,20.8,22.7s10.2,22.6,22.7,22.6s22.7-10.2,22.7-22.6
					S56.2,0.1,43.6,0.1L43.6,0.1z M44.5,8.4l6.4-5.2c3.7,1.4,6.9,3.8,9.3,6.9l-2.8,7.1l-6.9,3l-6-4.8L44.5,8.4L44.5,8.4L44.5,8.4z
					 M36.2,3.2l6.4,5.2v6.9l-6,4.9l-6.9-2.9l-2.8-7.3C29.3,7,32.5,4.6,36.2,3.2L36.2,3.2z M26.4,34.7c-2.2-3.2-3.6-7-3.8-11.1
					l6.9-4.5l6.5,2.7l2.3,7.8l-4.5,4.6L26.4,34.7L26.4,34.7z M49.5,42.7c-1.9,0.6-3.9,0.9-6,0.9c-2.1,0-4.1-0.3-6-0.9l-2-7.6
					l4.1-4.2h7.5l4.3,4.4L49.5,42.7L49.5,42.7z M53.1,34.4l-4.3-4.5l2.4-8.1l6.4-2.7l7,4.5c-0.2,4.2-1.6,7.9-3.8,11.1L53.1,34.4
					L53.1,34.4z"/>
			</g>
		</g>
	</g>
</g>
</svg>
