<?xml version="1.0" encoding="utf-8"?>
<!-- Generator: Adobe Illustrator 20.0.0, SVG Export Plug-In . SVG Version: 6.00 Build 0)  -->
<!DOCTYPE svg PUBLIC "-//W3C//DTD SVG 1.1//EN" "http://www.w3.org/Graphics/SVG/1.1/DTD/svg11.dtd">
<svg version="1.1" id="Livello_1" xmlns="http://www.w3.org/2000/svg" xmlns:xlink="http://www.w3.org/1999/xlink" x="0px" y="0px"
	 viewBox="0 0 146 51.6" style="enable-background:new 0 0 146 51.6;" xml:space="preserve">
<style type="text/css">
	.st0{fill:#28274F;}
	.st1{fill:#F89520;}
</style>
<g id="g3414">
	<g id="g3420" transform="translate(451.5722,313.6344)">
		<path id="path3422" class="st0" d="M-350-299v2.8c0,1.9,0,1.9,1.9,2.2c1.5,0.2,3-0.4,3.6-1.8c1-2.2,1-4.4,0-6.6
			c-1-2.1-3.3-2.5-5.1-1.4c-0.2,0.1-0.4,0.5-0.4,0.8C-350.1-301.6-350-300.3-350-299 M-348.3-285.6h-0.5h-6.1
			c-0.2-0.8-0.2-0.9,0.5-1.1c1-0.3,1-0.3,1-1.3c0-4.9,0-9.9,0-14.8c0-1.4,0-1.4-1.4-1.8c-0.2-0.1-0.4-0.3-0.5-0.4
			c0-0.1,0.2-0.4,0.3-0.5c1.5-0.5,3.1-0.8,4.8-0.8v2c0.4-0.4,0.7-0.7,1-0.9c2.7-2.2,6.8-1.3,8.1,2c1.3,3.1,0.9,6-1.2,8.7
			c-1.2,1.5-2.9,2.2-4.8,2.4c-1,0.1-2,0-2.9,0c0,1.7,0,3.3,0,4.9c0,0.1,0.2,0.3,0.4,0.4c0.2,0.1,0.4,0.1,0.6,0.2
			C-348.2-286.5-348.2-286.5-348.3-285.6"/>
	</g>
	<g id="g3424" transform="translate(513.0175,322.112)">
		<path id="path3426" class="st0" d="M-372.2-312.9c-0.9-0.1-1.9-0.2-2.8-0.3c-1.4,0-2.4,0.7-2.9,2c-0.7,2.1-0.7,4.2,0.2,6.3
			c1,2.1,3.3,2.4,5,1.4c0.2-0.1,0.4-0.4,0.4-0.6C-372.2-306.9-372.2-309.8-372.2-312.9 M-372.2-314.9c0-1.5,0-3,0-4.5
			c0-0.5-0.3-0.8-0.8-0.9c-0.4-0.1-0.7-0.2-1.1-0.3c-0.2-0.5,0-0.8,0.5-0.9c1.5-0.4,3-0.7,4.7-0.6v0.7c0,5.6,0,11.1,0,16.7
			c0,0.2,0,0.5,0,0.7c0,1,0.2,1.2,1.2,1.4c0.1,0,0.3,0,0.4,0.1s0.3,0.2,0.3,0.4c0,0.2-0.2,0.4-0.3,0.5c-1.5,0.5-3.1,0.8-4.8,0.7v-2
			c-0.1,0.1-0.2,0.1-0.2,0.1c-2.4,3-6.7,2.6-8.6-0.6c-1.7-2.9-1.2-7.3,1.1-9.5c1.3-1.3,2.8-1.9,4.6-2
			C-374.2-315-373.3-314.9-372.2-314.9"/>
	</g>
	<g id="g3428" transform="translate(484.2691,303.5323)">
		<path id="path3430" class="st0" d="M-361.8-282.4v-0.9c0.1-0.1,0.3-0.1,0.5-0.2c1.1-0.3,1.1-0.3,1.1-1.5c0-1.8,0-3.6,0-5.5
			c0-0.6-0.1-1.3-0.2-1.9c-0.3-1.1-0.9-1.7-2.1-1.7c-0.5,0-1,0-1.5,0.1c-1.4,0.3-1.6,0.6-1.6,2.1c0,2.3,0,4.7,0,7c0,1,0,1,1,1.3
			c0.2,0.1,0.4,0.1,0.6,0.2v0.9h-6.5v-0.8l0.1-0.1c1.6-0.5,1.5-0.2,1.5-2c0-4.9,0-9.8,0-14.7c0-0.2,0-0.3,0-0.5
			c-0.1-0.9-0.2-1-1.1-1.3c-0.3-0.1-0.5-0.1-0.8-0.2c-0.2-0.6,0-0.8,0.6-0.9c1.5-0.4,3-0.7,4.5-0.6v9.5c0.8-1.3,1.8-2,3.2-2.3
			c1.8-0.3,3.5-0.2,4.7,1.3c0.7,1,0.9,2.1,1,3.3c0,2,0,3.9,0,5.9c0,0.1,0,0.2,0,0.3c0,2,0,1.6,1.7,2.1v0.9h-6.7V-282.4z"/>
	</g>
	<g id="g3432" transform="translate(434.5405,317.9585)">
		<path id="path3434" class="st0" d="M-343.9-306.1c-0.1-2.3-1.3-3.5-3-3.3c-1.3,0.2-2.4,2-2.2,3.6
			C-347.4-305.8-345.6-305.9-343.9-306.1 M-340.5-304.5h-8.6c-0.2,2.7,1.5,5.5,4.6,5.6c1.3,0.1,2.5-0.3,3.6-0.8
			c0.2-0.1,0.3-0.1,0.7-0.3c-0.2,0.5-0.2,0.9-0.5,1.2c-2.5,2.9-7.5,3-9.9,0.3c-1-1.1-1.5-2.3-1.7-3.7c-0.3-2-0.1-4,1-5.8
			c1.8-2.9,5.3-3.4,7.7-2.5c1.8,0.7,2.6,2.2,2.9,4C-340.6-305.8-340.6-305.2-340.5-304.5"/>
	</g>
	<g id="g3436" transform="translate(407.2634,334.1565)">
		<path id="path3438" class="st0" d="M-334-332.6c-0.2-0.6,0-0.8,0.6-0.9c1.5-0.4,3-0.7,4.6-0.6v0.7c0,6,0,12,0,18
			c0,0.9,0.1,1,1,1.2c0.6,0.1,0.8,0.5,0.6,1.1h-6.5v-0.8l0.1-0.1c1.7-0.5,1.5-0.2,1.5-2c0-4.9,0-9.8,0-14.8c0-0.1,0-0.3,0-0.4
			c-0.1-0.9-0.2-1.1-1-1.3C-333.5-332.5-333.8-332.5-334-332.6"/>
	</g>
	<g id="g3440" transform="translate(396.756,325.1435)">
		<path id="path3442" class="st0" d="M-330.2-317.8l-0.8-0.1c-1.2,0-2-0.1-3,0c-1.8,0.1-3.3,0.8-4.6,2c-2.3,2.3-2.8,6.7-1.1,9.5
			c1.9,3.3,6.3,3.5,8.7,0.6l0.2-1.4c-0.1,0.1-0.1,0.4-0.6,0.8c-1.7,1.1-4,0.7-5-1.4c-1-2-1-4.1-0.2-6.3c0.5-1.4,1.5-2.2,2.9-2.2
			c0,0,1.9-0.2,2.5,0.9c0.4,0.9,0.3,4,0.3,4"/>
	</g>
	<g id="g3444" transform="translate(395.4799,325.3643)">
		<path id="path3446" class="st0" d="M-329.8-318.2c1.7,0,2.8,0,2.9,1.5c0.1,1.8,0.1,5.7,0.1,7.6c0,0.6,0,1.1,0.1,1.7
			c0.1,1,0.7,1.6,1.7,1.9c0.2,0.1,0.3,0.1,0.6,0.2c-0.6,1.1-1.6,1.3-2.5,1.4c-1.4,0.1-2.3-0.7-2.8-2.1v-10.2L-329.8-318.2z"/>
	</g>
	<g id="g3448" transform="translate(359.7816,265.7915)">
		<path id="path3450" class="st1" d="M-316.9-220.6c-0.5,0-1-0.1-1.5-0.1c-0.7,0-1.3,0.3-1.5,1c-0.4,1.1-0.4,2.2,0.1,3.2
			c0.5,1.1,1.7,1.3,2.6,0.7c0.1-0.1,0.2-0.2,0.2-0.3C-316.9-217.5-316.9-219-316.9-220.6 M-316.9-221.6c0-0.8,0-1.5,0-2.3
			c0-0.2-0.1-0.4-0.4-0.5c-0.2,0-0.4-0.1-0.6-0.1c-0.1-0.3,0-0.4,0.3-0.5c0.8-0.2,1.6-0.4,2.4-0.3v0.4c0,2.9,0,5.8,0,8.7
			c0,0.1,0,0.3,0,0.4c0,0.5,0.1,0.6,0.6,0.7c0.1,0,0.2,0,0.2,0.1c0.1,0,0.2,0.1,0.2,0.2c0,0.1-0.1,0.2-0.2,0.2
			c-0.8,0.3-1.6,0.4-2.5,0.4v-1c-0.1,0-0.1,0-0.1,0.1c-1.2,1.5-3.5,1.4-4.5-0.3c-0.9-1.5-0.6-3.8,0.6-4.9c0.7-0.7,1.5-1,2.4-1.1
			C-317.9-221.6-317.4-221.6-316.9-221.6"/>
	</g>
	<g id="g3452" transform="translate(350.1351,291.3815)">
		<path id="path3454" class="st1" d="M-313.4-262.5l-26.8-23.5c-2.5-2.2-1.7-4.2-1.7-4.2s-4.7,4.8-7,7c-1.4,1.4-1.9,3-0.1,4.5
			l27.3,24c2,2,1.3,3.8,1.3,3.8s6.7-6.6,7.3-7.3C-311.9-259.5-312-261.2-313.4-262.5"/>
	</g>
	<g id="g3456" transform="translate(335.9978,303.7728)">
		<path id="path3458" class="st1" d="M-308.3-282.8c0,0,4.1-4.1,5.3-5.3c1.5-1.5,2.4-2.6,2.4-4.3v-7.7c0-1.5-0.8-2.4-2.6-2.4h-2.1
			c-1,0-2,0.4-2.7,1.1l-8.1,8.1h4.7c0,0,2-0.2,2,2.1c0,2.7,0,7.4,0,7.4"/>
	</g>
	<g id="g3460" transform="translate(308.3445,304.6428)">
		<path id="path3462" class="st1" d="M-298.3-284.2c0,0-4.1,4.1-5.3,5.3c-1.5,1.5-2.4,2.6-2.4,4.3v7.7c0,1.5,0.8,2.4,2.6,2.4h2.1
			c1,0,2-0.4,2.7-1.1l8.1-8.1h-4.7c0,0-2,0.2-2-2.1c0-2.7,0-7.4,0-7.4"/>
	</g>
	<g id="g3464" transform="translate(477.5411,285.2618)">
		<path id="path3466" class="st0" d="M-359.4-252.5L-359.4-252.5c0-0.5-0.1-0.8-0.4-1.1s-0.6-0.4-0.9-0.4c-0.4,0-0.7,0.1-0.9,0.4
			c-0.3,0.3-0.4,0.6-0.4,1.1l0,0c0,0.4,0.1,0.8,0.4,1.1s0.6,0.4,0.9,0.4c0.4,0,0.7-0.1,0.9-0.4C-359.5-251.7-359.4-252-359.4-252.5
			 M-357.9-252.5c0,0.9-0.3,1.6-0.8,2.1s-1,0.7-1.7,0.7s-1.2-0.3-1.7-0.8v0.7h-1.5v-7.4h1.5v2.8c0.4-0.6,1-0.9,1.7-0.9
			s1.3,0.2,1.7,0.7C-358.1-254-357.9-253.4-357.9-252.5L-357.9-252.5z"/>
	</g>
	<g id="g3468" transform="translate(488.6947,289.5439)">
		<path id="path3470" class="st0" d="M-363.4-259.5l-2.1,5.6c-0.2,0.6-0.4,1-0.7,1.2c-0.3,0.2-0.6,0.3-1.1,0.3s-0.9-0.1-1.4-0.4
			l0.5-1.1c0.2,0.1,0.5,0.2,0.7,0.2s0.4-0.1,0.5-0.4l-2.1-5.5h1.6l1.2,3.7l1.2-3.7L-363.4-259.5L-363.4-259.5z"/>
	</g>
	<g id="g3472" transform="translate(521.1442,282.2076)">
		<path id="path3474" class="st0" d="M-375.1-247.5c0-0.5-0.4-1-1-1c-0.5,0-1,0.4-1,1c0,0.5,0.4,1,1,1
			C-375.6-246.5-375.1-246.9-375.1-247.5 M-383.4-248c-0.7,0-1.3-0.6-1.3-1.4c0-0.8,0.6-1.4,1.3-1.4c0.7,0,1.3,0.6,1.3,1.4
			C-382.1-248.5-382.7-248-383.4-248 M-383.4-252.2c-2,0-2.9,1.5-2.9,2.9c0,1.3,0.9,2.9,2.9,2.9s2.9-1.5,2.9-2.9
			C-380.5-250.6-381.4-252.2-383.4-252.2 M-390-251.6L-390-251.6L-390-251.6l0.8,2.4h-1.5L-390-251.6z M-388.7-247.7l0.3,1h2
			l-2.8-7.2h-1.4l-2.9,7.2h2l0.4-1H-388.7z M-379.7-253.8h1.6v7.2h-1.6V-253.8z"/>
	</g>
</g>
</svg>
