<?xml version="1.0" encoding="utf-8"?>
<!-- Generator: Adobe Illustrator 19.2.1, SVG Export Plug-In . SVG Version: 6.00 Build 0)  -->
<!DOCTYPE svg PUBLIC "-//W3C//DTD SVG 1.1//EN" "http://www.w3.org/Graphics/SVG/1.1/DTD/svg11.dtd">
<svg version="1.1" id="Calque_1" xmlns="http://www.w3.org/2000/svg" xmlns:xlink="http://www.w3.org/1999/xlink" x="0px" y="0px"
	 viewBox="0 0 267.2 41.2" style="enable-background:new 0 0 267.2 41.2;" xml:space="preserve">
<style type="text/css">
	.st0{fill:#FFFFFF;}
</style>
<title>Sans titre - 1</title>
<g>
	<path class="st0" d="M117.6,20.6c0,6.2-5,11.2-11.2,11.2c-6.2,0-11.2-5-11.2-11.2s5-11.2,11.2-11.2c4.5-6.8,7-6.4,7.1-7.7
		c0-0.4-4.6-1.3-7.1-1.3l0,0c-11.1,0-20.2,9-20.2,20.2s9,20.2,20.2,20.2s20.2-9,20.2-20.2c0-3.1-0.7-5.9-1.9-8.5
		C124.7,12,117.6,12.5,117.6,20.6z"/>
	<path class="st0" d="M115.2,20.6c0-6.2,5-11.2,11.2-11.2c6.2,0,11.2,5,11.2,11.2s-5,11.2-11.2,11.2c-4.4,6.8-7,6.4-7.1,7.7
		c0,0.4,4.6,1.3,7.1,1.3l0,0c11.1,0,20.2-9.1,20.2-20.2s-9.1-20.2-20.2-20.2s-20.2,9.1-20.2,20.2c0,3.1,0.7,5.9,1.9,8.5
		C108.1,29.1,115.2,28.7,115.2,20.6z"/>
	<g>
		<path class="st0" d="M58.5,1.9c0-0.5,0.4-0.9,0.9-0.9h5.3c0.4,0,0.7,0.3,0.8,0.6v18.9L76.7,1.5C76.9,1.2,77.2,1,77.6,1h6.1
			c0.5,0,0.9,0.4,0.9,0.9c0,0.1,0,0.3-0.1,0.4l-0.1,0.1L73.2,22.7L84.8,39l0.1,0.1c0,0.1,0.1,0.3,0.1,0.5c0,0.5-0.4,0.9-0.9,0.9
			h-6.6c-0.3,0-0.5-0.1-0.7-0.3l0-0.1L65.6,24.5v15.2c0,0.5-0.4,0.9-0.9,0.9h-5.4c-0.5,0-0.9-0.4-0.9-0.9V17.2"/>
		<path class="st0" d="M173.5,39.7c0,0.5-0.5,0.9-1.2,0.9h-19.6c-0.5,0-0.9-0.4-0.9-0.9V2.1c0-0.6,0.4-1.1,0.9-1.1h5.4
			c0.5,0,0.9,0.5,0.9,1.1v31.3h13.3c0.6,0,1.2,0.4,1.2,0.9V39.7z"/>
		<path class="st0" d="M206,39.7c0,0.5-0.4,0.9-0.9,0.9h-25.2c-0.5,0-0.9-0.4-0.9-0.9V1.9c0-0.5,0.4-0.9,0.9-0.9h24.3
			c0.5,0,0.9,0.4,0.9,0.9v5.4c0,0.5-0.4,0.9-0.9,0.9h-18v9h17.1c0.5,0,0.9,0.4,0.9,0.9v5.4c0,0.5-0.4,0.9-0.9,0.9h-17.1v9h19
			c0.5,0,0.9,0.4,0.9,0.9L206,39.7L206,39.7z"/>
		<path class="st0" d="M238.1,29c0,0.3,0,3.1-1.8,5.9c-1.6,2.7-4.9,5.8-11.7,5.8c-5.3,0-9.5-2.2-11.8-6.3c-1.1-1.9-1.5-3.8-1.6-5
			c0-0.1,0-0.2,0-0.3c0-0.5,0.4-0.9,0.8-0.9h5.7c0.4,0,0.6,0.3,0.7,0.6v0c0,0,0,0.1,0,0.1c0.1,0.6,0.3,1.3,0.8,2
			c1,1.6,2.8,2.5,5.4,2.5c2.8,0,4.6-0.8,5.6-2.4c0.6-1.1,0.7-2.2,0.7-2.2c0-1.3-0.3-2.8-2.7-3.8c-1.8-0.7-3.6-0.8-3.6-0.8
			c-0.3,0-3.3,0-6.3-1.2c-4.7-1.9-7.2-5.6-7.2-10.4c0-0.5,0.1-4.7,3.4-8.1c2.4-2.5,5.8-3.7,10-3.7c2.7,0,6.6,0.6,9.6,3.7
			c2.9,2.9,3.7,6.7,3.8,8.5v0.1c0,0.6-0.4,1-0.9,1h-5.6c-0.4,0-0.7-0.4-0.8-0.7v-0.1c-0.1-0.6-0.4-1.6-0.8-2.5
			c-0.6-1.2-1.9-2.7-5.4-2.7c-2.2,0-3.9,0.5-5,1.6c-1.2,1.2-1.3,3.1-1.3,3.1c0,1.3,0.3,2.8,2.7,3.7c1.8,0.7,3.6,0.7,3.6,0.7
			c0.3,0,3.3,0,6.3,1.3C235.6,20.4,238.1,24.1,238.1,29z"/>
		<path class="st0" d="M267.2,7.3c0,0.5-0.5,0.9-1.1,0.9h-8.8v31.3c0,0.6-0.4,1.1-0.9,1.1h-5.4c-0.5,0-0.9-0.5-0.9-1.1V8.2h-9
			c-0.5,0-0.9-0.4-0.9-0.9V1.9c0-0.5,0.4-0.9,0.9-0.9h25c0.6,0,1.1,0.4,1.1,0.9L267.2,7.3L267.2,7.3z"/>
	</g>
	<g>
		<path class="st0" d="M15.9,20.6c0,0.3-0.3,0.5-0.7,0.5H10v18.4c0,0.4-0.2,0.7-0.5,0.7H6.3c-0.3,0-0.5-0.3-0.5-0.7V21.1H0.5
			c-0.3,0-0.5-0.2-0.5-0.5v-3.2c0-0.3,0.2-0.5,0.5-0.5h14.7c0.4,0,0.7,0.2,0.7,0.5L15.9,20.6L15.9,20.6z"/>
		<path class="st0" d="M34.6,39.6c0,0.3-0.2,0.5-0.5,0.5h-3.2c-0.3,0-0.5-0.2-0.5-0.5v-9h-7.4v9c0,0.3-0.2,0.5-0.5,0.5h-3.2
			c-0.3,0-0.5-0.2-0.5-0.5V17.5c0-0.4,0.2-0.7,0.5-0.7h3.2c0.3,0,0.5,0.3,0.5,0.7v8.9h7.4v-8.9c0-0.4,0.2-0.7,0.5-0.7h3.2
			c0.3,0,0.5,0.3,0.5,0.7V39.6z"/>
		<path class="st0" d="M53.5,39.7c0,0.3-0.2,0.5-0.5,0.5H38.1c-0.3,0-0.5-0.2-0.5-0.5V17.4c0-0.3,0.2-0.5,0.5-0.5h14.3
			c0.3,0,0.5,0.2,0.5,0.5v3.2c0,0.3-0.2,0.5-0.5,0.5H41.8v5.3h10.1c0.3,0,0.5,0.2,0.5,0.5v3.2c0,0.3-0.2,0.5-0.5,0.5H41.8v5.3h11.2
			c0.3,0,0.5,0.2,0.5,0.5V39.7z"/>
	</g>
</g>
</svg>
