<?xml version="1.0" encoding="utf-8"?>
<!-- Generator: Adobe Illustrator 20.0.0, SVG Export Plug-In . SVG Version: 6.00 Build 0)  -->
<!DOCTYPE svg PUBLIC "-//W3C//DTD SVG 1.1//EN" "http://www.w3.org/Graphics/SVG/1.1/DTD/svg11.dtd">
<svg version="1.1" id="Calque_1" xmlns="http://www.w3.org/2000/svg" xmlns:xlink="http://www.w3.org/1999/xlink" x="0px" y="0px"
	 viewBox="0 0 1345 260" style="enable-background:new 0 0 1345 260;" xml:space="preserve">
<style type="text/css">
	.st0{fill:#FFFFFF;}
</style>
<g>
	<path class="st0" d="M280.8,159.3c3.7-4.5,10.5-5.1,15-1.4c9,7.4,24.6,16,39.2,15.8c10.2,0,19.5-3.1,25.6-7.6
		c6.2-4.5,8.8-9.6,8.8-14.8c0-2.7-0.6-4.5-1.8-6.6s-3.1-4.1-6.1-6.1c-5.9-3.9-16-7.4-28.1-9.6H333c-9.6-1.8-18.7-4.3-26.4-8
		c-7.8-3.7-14.6-8.8-19.1-16c-3.1-4.9-4.7-10.7-4.7-16.8c0-12.3,7-23,16.4-29.9c9.6-7,22.1-10.9,35.5-10.9
		c19.7,0,34.2,9.6,44.7,16.4c4.7,3.3,6.2,9.8,2.9,14.6c-3.1,4.9-9.6,6.4-14.6,3.1c-10.5-7-20.5-13.1-33-13.1c-9.2,0-17.4,2.9-23,7
		s-7.8,8.6-7.8,12.9c0,2.5,0.4,4.1,1.4,5.7s2.9,3.5,5.5,5.3c5.3,3.7,14.6,7,25.6,9h0.4c10.5,2.1,20.1,4.7,28.3,8.6
		c8.4,4.1,15.8,9.4,20.5,17c3.1,4.9,4.9,11.1,4.9,17.4c0,13.1-7.4,24.4-17.6,31.8c-10,7.4-23.4,11.7-37.9,11.7
		c-22.1-0.2-40.8-11.3-52.5-20.5C277.9,170.6,277.3,163.8,280.8,159.3z"/>
	<path class="st0" d="M419.8,222.5v-78.3c0,0,0,0,0-0.2v-40.6c0-5.9,4.9-10.9,10.9-10.9c5.7,0,10.5,3.9,11.3,8.4
		c7.6-4.9,17.4-8.4,27.9-8.4c27.3,0,49.6,23.4,49.6,51.5s-22.3,50.8-49.6,50.8c-10.2,0-20.1-3.1-27.5-8.4v36.1
		c0,5.7-5.1,11.1-11.7,11.1C424.7,233.5,419.8,228.2,419.8,222.5z M442.3,144c0,8,2.7,15.8,8,20.5c5.1,5.7,11.9,8.6,19.5,8.6
		c7,0,13.9-2.9,19.3-8.6c4.7-4.7,8-12.5,8-20.5s-3.3-15.4-8-20.7c-5.3-5.5-12.3-8.4-19.3-8.4c-7.6,0-14.4,2.9-19.5,8.4
		C445,128.6,442.3,136,442.3,144z"/>
	<path class="st0" d="M564.5,180c-8.8-9-14.1-21.7-14.1-36.1c0-13.9,5.3-26,14.1-35.9c9.2-9.6,21.1-15.6,35.3-15.6
		c13.5,0,25.8,5.9,34.2,15.6c9.2,9.8,14.3,21.9,14.3,35.9c0,14.3-5.1,27.1-14.3,36.1c-8.4,9.6-20.7,15.6-34.2,15.6
		C585.6,195.6,573.8,189.7,564.5,180z M572.7,144c0,8.8,2.7,16,7.4,21.7c5.1,4.9,11.9,7.6,19.7,7.6c7.2,0,13.7-2.7,18.9-7.6
		c5.1-5.7,8-12.9,8-21.7c0-8.4-2.9-15.8-8-21.3c-5.1-4.5-11.7-7.8-18.9-7.8c-7.8,0-14.6,3.3-19.7,7.8
		C575.4,128.2,572.7,135.5,572.7,144z"/>
	<path class="st0" d="M742.3,103.4c0,5.7-4.7,10.9-10.9,10.9c-4.7,0-8.8,1.2-12.3,3.9c-3.9,2.5-7,5.9-9.4,9.8
		c-4.9,6.6-7.4,14.3-8.4,17.2v39c0,5.9-5.1,10.9-11.3,10.9c-5.9,0-10.9-4.9-10.9-10.9v-80.8c0-5.9,4.9-10.7,10.9-10.7
		c6.1,0,11.3,4.7,11.3,10.7v1.4c1.2-1.4,2.9-3.1,4.3-4.1c6.8-4.5,15.6-8.2,25.8-8C737.5,92.7,742.3,97.4,742.3,103.4z"/>
	<path class="st0" d="M815.2,103.8c0,6.1-5.3,11.3-11.5,11.3h-5.1v57.2c6.4,0,11.3,5.1,11.3,11.5S805,195,798.6,195
		c-12.5,0-22.8-10.2-22.8-22.8V115h-5.9c-6.4,0-11.3-5.1-11.3-11.3c0-6.4,4.9-11.3,11.3-11.3h5.9V62.8c0-6.4,5.1-11.3,11.5-11.3
		s11.3,4.9,11.3,11.3v29.7h5.1C809.9,92.5,815.2,97.4,815.2,103.8z"/>
	<path class="st0" d="M846.8,168.1c1.6-2,4.5-2.3,6.4-0.6c10.7,8.6,28.5,18.7,47.2,18.5c12.5,0,23.8-3.7,31.6-9.4
		c8-5.7,12.3-13.3,12.3-21.3c0-8.2-3.9-14.4-11.7-19.7c-7.8-5.1-19.3-9-33.2-11.7H899c-13.3-2.5-25-6.1-33.8-12.1
		c-8.8-5.7-14.8-14.4-14.8-25c0-10.9,5.9-20.3,15-26.9c9-6.6,21.1-10.5,34.6-10.5c18.9,0,33,9.2,44.3,16.6c2,1.4,2.7,4.1,1.2,6.4
		c-1.2,2.1-4.1,2.7-6.2,1.2c-11.3-7.4-23.6-15.2-39.4-15.2c-11.7,0-22.1,3.5-29.3,8.6c-7.2,5.3-11.3,12.3-11.3,19.7
		c0.2,7.2,3.5,12.5,10.7,17.4s17.8,8.4,30.8,10.9h0.4c14.3,2.7,27.1,6.8,36.5,13.1c9.4,6.1,15.8,15.6,15.8,27.1s-6.6,21.7-16.2,28.7
		c-9.6,7-22.5,11.3-36.9,11.3c-21.9-0.2-41-11.3-52.9-20.7C845.6,172.9,845.4,170,846.8,168.1z"/>
	<path class="st0" d="M1072.1,99.5v90.6c0,2.7-2.3,4.9-4.9,4.9c-2.7,0-4.9-2.3-4.9-4.9v-15c-8.6,11.9-22.3,19.9-37.7,19.9
		c-26.4,0-47.6-22.8-47.6-50.2s21.1-50.2,47.6-50.2c15.4,0,29.1,7.8,37.7,19.7V99.5c0-2.9,2.3-4.9,4.9-4.9
		C1069.8,94.5,1072.1,96.6,1072.1,99.5z M1062.3,144.8c0-22.5-17-40.6-37.7-40.6c-20.5,0-37.7,18-37.7,40.6s17.2,40.4,37.7,40.4
		C1045.2,185.2,1062.3,167.3,1062.3,144.8z"/>
	<path class="st0" d="M1114.7,147v-2v-2V56.4c0-2.7,2.3-4.9,4.9-4.9c2.9,0,5.1,2.3,5.1,4.9v57.8c8.8-11.9,22.8-19.7,38.5-19.7
		c27.1,0,48.6,22.6,48.6,50.4c0,27.5-21.5,50-48.6,50c-15.8,0-29.7-7.6-38.5-19.5V190c0,2.7-2.3,4.9-5.1,4.9c-2.7,0-4.9-2.3-4.9-4.9
		V147z M1124.8,145c0,22.1,17.4,40,38.5,40c21.3,0,38.5-17.8,38.5-40c0-22.3-17.2-40.4-38.5-40.4c-20.7,0-37.7,17.2-38.5,38.7V145z"
		/>
	<path class="st0" d="M1334.3,99.5v90.6c0,2.7-2.3,4.9-4.9,4.9c-2.7,0-4.9-2.3-4.9-4.9v-15c-8.6,11.9-22.3,19.9-37.7,19.9
		c-26.4,0-47.6-22.8-47.6-50.2s21.1-50.2,47.6-50.2c15.4,0,29.1,7.8,37.7,19.7V99.5c0-2.9,2.3-4.9,4.9-4.9
		C1332,94.5,1334.3,96.6,1334.3,99.5z M1324.5,144.8c0-22.5-17-40.6-37.7-40.6c-20.5,0-37.7,18-37.7,40.6s17.2,40.4,37.7,40.4
		C1307.4,185.2,1324.5,167.3,1324.5,144.8z"/>
</g>
<path class="st0" d="M112.4,197.4c-47.9,0-86.8-38.9-86.8-86.8s39-86.8,86.8-86.8c47.9,0,86.8,38.9,86.8,86.8
	S160.3,197.4,112.4,197.4 M112.4,26.7c-46.2,0-83.8,37.6-83.8,83.8s37.6,83.8,83.8,83.8s83.8-37.6,83.8-83.8S158.7,26.7,112.4,26.7z
	"/>
<path class="st0" d="M130,179.6H94.3l4-2.7c0.1,0,6.7-5,7-22.8l3,0.1c-0.3,12.5-3.4,19.2-5.8,22.5h18.9c-2.9-3.4-6.9-10-6.9-23h3
	c0,17,8.3,23,8.4,23.1L130,179.6"/>
<path class="st0" d="M112.9,46.7c-20.2,0-36.5,16.4-36.5,36.5s16.4,36.5,36.5,36.5s36.5-16.4,36.5-36.5S133.1,46.7,112.9,46.7
	 M114.3,60.1l10.3-8.4c6,2.2,11.1,6.1,14.9,11.1L135,74.3l-11,4.8l-9.6-7.8L114.3,60.1L114.3,60.1z M101.1,51.7l10.3,8.4v11.2
	l-9.7,7.9l-11-4.7l-4.5-11.7C90,57.8,95.1,54,101.1,51.7z M85.4,102.6c-3.6-5.1-5.8-11.3-6.1-17.9l11.1-7.2l10.4,4.4l3.7,12.6
	l-7.2,7.5L85.4,102.6z M122.4,115.5c-3,0.9-6.2,1.4-9.6,1.4c-3.3,0-6.5-0.5-9.6-1.4l-3.2-12.2l6.6-6.8h12l6.9,7.1L122.4,115.5z
	 M128.2,102l-6.9-7.2l3.8-13l10.2-4.3l11.2,7.2c-0.3,6.7-2.5,12.8-6.1,17.9L128.2,102z"/>
<g>
	<path class="st0" d="M149.6,81.7c0,0.5,0,1,0,1.5c0,0.7,0,1.3-0.1,2c6.5,1.3,12.2,4.5,16.7,9c-1.6,2.5-7.4,11.3-16.2,20
		c0,0,0-0.1-0.1-0.1c-0.6-0.9-1.3-1.7-2-2.6c-0.2-0.2-0.3-0.4-0.5-0.6c-0.7-0.9-1.4-1.7-2.2-2.6c-0.1-0.1-0.1-0.1-0.2-0.2
		c-0.7-0.8-1.4-1.6-2.2-2.4c-0.2-0.2-0.3-0.3-0.5-0.5l-0.1-0.1c-0.7,0.9-1.4,1.8-2.2,2.7c0.1,0.1,0.1,0.2,0.2,0.2
		c0.8,0.8,1.6,1.7,2.3,2.5l0.1,0.1c0.8,0.9,1.5,1.8,2.2,2.6c0.1,0.2,0.3,0.3,0.4,0.5c0.7,0.9,1.3,1.7,2,2.6c0,0.1,0.1,0.1,0.1,0.2
		c-0.2,0.2-0.4,0.4-0.6,0.5c-0.3,0.3-0.7,0.6-1,0.9c-0.4,0.3-0.8,0.7-1.2,1c-0.3,0.3-0.7,0.6-1,0.8c-0.4,0.3-0.8,0.7-1.2,1
		c-0.3,0.3-0.7,0.5-1,0.8c-0.4,0.3-0.8,0.6-1.2,0.9c-0.3,0.2-0.7,0.5-1,0.7c-0.4,0.3-0.8,0.6-1.3,0.9c-0.3,0.2-0.6,0.4-0.9,0.6
		c-0.4,0.3-0.9,0.6-1.3,0.9c-0.3,0.2-0.6,0.4-0.9,0.6c-0.5,0.3-1,0.6-1.5,0.9c-0.3,0.1-0.5,0.3-0.8,0.4c-0.7,0.4-1.3,0.7-2,1.1
		c-0.1,0-0.1,0.1-0.2,0.1c-0.7,0.4-1.5,0.7-2.3,1.1c-0.2,0.1-0.4,0.2-0.7,0.3c-0.5,0.2-1.1,0.5-1.6,0.7c-0.3,0.1-0.6,0.2-0.9,0.3
		c-0.5,0.2-0.9,0.4-1.4,0.5c-0.3,0.1-0.6,0.2-0.9,0.3c-0.4,0.1-0.9,0.3-1.3,0.4c-0.3,0.1-0.7,0.2-1,0.3c-0.4,0.1-0.9,0.2-1.3,0.3
		c-0.3,0.1-0.7,0.2-1,0.2c-0.4,0.1-0.8,0.2-1.3,0.3c-0.3,0.1-0.7,0.1-1,0.2c-0.4,0.1-0.8,0.1-1.3,0.2c-0.3,0.1-0.7,0.1-1,0.1
		c-0.2,0-0.4,0-0.7,0.1c-2.3-4.4-3.6-9.3-3.8-14.3c-1.2-0.1-2.3-0.3-3.4-0.5c0.1,6.1,1.8,12.2,4.8,17.5c6.6,11.6,19,19,32.3,19
		l0.2,0.1l0,0c7,0,13.8-2,19.6-6l0,0c7.4-5,13-11.9,15.6-20.2c1.1-3.6,1.7-7.3,1.7-11.1C179.9,100.3,167,84.9,149.6,81.7
		 M144.7,143.3c-0.2,0.3-0.3,0.6-0.5,1c-0.1,0.2-0.2,0.4-0.3,0.7s-0.3,0.6-0.4,0.9c-0.1,0.2-0.2,0.5-0.3,0.7
		c-0.1,0.3-0.2,0.6-0.4,0.9c-0.1,0.2-0.2,0.5-0.3,0.7c-0.1,0.3-0.2,0.6-0.3,1c-0.1,0.2-0.1,0.5-0.2,0.7c-0.1,0.3-0.2,0.7-0.3,1
		c-0.1,0.2-0.1,0.5-0.2,0.7c0,0.1,0,0.2-0.1,0.2c-10.8-0.4-20.7-6-26.8-14.9c0.7-0.1,1.5-0.2,2.2-0.4c0.1,0,0.1,0,0.2,0
		c0.7-0.1,1.4-0.3,2.1-0.5c0.3-0.1,0.5-0.1,0.8-0.2c0.5-0.1,1-0.3,1.5-0.4c0.3-0.1,0.6-0.2,0.9-0.3c0.5-0.1,0.9-0.3,1.4-0.4
		c0.3-0.1,0.7-0.2,1-0.3c0.5-0.2,0.9-0.3,1.4-0.5c0.3-0.1,0.7-0.3,1-0.4c0.5-0.2,0.9-0.4,1.4-0.6c0.3-0.1,0.7-0.3,1-0.4
		c0.5-0.2,0.9-0.4,1.4-0.7c0.3-0.2,0.6-0.3,0.9-0.5c0.5-0.2,1-0.5,1.5-0.8c0.3-0.1,0.6-0.3,0.8-0.4c0.6-0.4,1.3-0.7,1.9-1.1
		c0.1-0.1,0.3-0.2,0.4-0.2c0.8-0.5,1.5-0.9,2.3-1.4c0.2-0.2,0.5-0.3,0.7-0.5c0.5-0.4,1.1-0.7,1.6-1.1c0.3-0.2,0.6-0.4,0.9-0.6
		c0.5-0.3,0.9-0.7,1.4-1c0.3-0.2,0.6-0.5,0.9-0.7c0.4-0.4,0.9-0.7,1.3-1.1c0.3-0.3,0.6-0.5,1-0.8c0.4-0.4,0.9-0.7,1.3-1.1
		c0.3-0.3,0.6-0.5,0.9-0.8c0.2-0.1,0.3-0.3,0.5-0.4c0,0,0,0.1,0.1,0.1c0.6,0.9,1.1,1.7,1.7,2.6c0.1,0.2,0.2,0.4,0.3,0.6
		c0.5,0.9,1,1.7,1.5,2.6c0,0.1,0.1,0.2,0.1,0.2c0.4,0.8,0.9,1.6,1.3,2.5c0.1,0.2,0.2,0.4,0.3,0.5c0.4,0.9,0.8,1.7,1.2,2.6
		c0,0.1,0,0.1,0.1,0.2c0,0-0.1,0-0.1,0.1c-0.2,0.1-0.3,0.2-0.5,0.3c-0.3,0.2-0.6,0.4-0.9,0.6c-0.2,0.1-0.4,0.3-0.6,0.4
		c-0.3,0.2-0.5,0.4-0.8,0.6c-0.2,0.1-0.4,0.3-0.6,0.5c-0.3,0.2-0.5,0.4-0.7,0.6c-0.2,0.2-0.4,0.3-0.5,0.5c-0.2,0.2-0.5,0.4-0.7,0.7
		c-0.2,0.2-0.3,0.3-0.5,0.5s-0.5,0.5-0.7,0.7s-0.3,0.3-0.5,0.5c-0.2,0.3-0.5,0.5-0.7,0.8c-0.1,0.2-0.3,0.3-0.4,0.5
		c-0.3,0.3-0.5,0.7-0.8,1c-0.1,0.1-0.2,0.2-0.3,0.4c-0.3,0.5-0.6,0.9-0.9,1.4c-0.1,0.1-0.2,0.3-0.2,0.4c-0.2,0.4-0.4,0.7-0.6,1.1
		C144.9,142.9,144.8,143.1,144.7,143.3z M145.1,151.8c0.1-0.3,0.1-0.6,0.2-0.9c0-0.1,0.1-0.3,0.1-0.4c0.1-0.5,0.3-1,0.5-1.5
		c0-0.1,0.1-0.2,0.1-0.3c0.1-0.4,0.3-0.8,0.4-1.1c0.1-0.2,0.1-0.3,0.2-0.5c0.1-0.3,0.3-0.6,0.4-0.9c0.1-0.2,0.2-0.3,0.2-0.5
		c0.1-0.3,0.3-0.6,0.4-0.9c0.1-0.2,0.2-0.3,0.3-0.5c0.2-0.3,0.3-0.6,0.5-0.9c0.1-0.1,0.2-0.3,0.2-0.4c0.5-0.9,1.1-1.7,1.7-2.4
		c0.1-0.1,0.2-0.2,0.3-0.4c0.2-0.3,0.4-0.5,0.7-0.8c0.1-0.1,0.2-0.3,0.4-0.4c0.2-0.2,0.4-0.5,0.6-0.7c0.1-0.1,0.3-0.3,0.4-0.4
		c0.2-0.2,0.5-0.5,0.7-0.7c0.1-0.1,0.2-0.2,0.4-0.3c0.3-0.3,0.6-0.5,0.9-0.8c0.1-0.1,0.2-0.1,0.2-0.2c0.4-0.3,0.8-0.6,1.2-0.9
		c0.1-0.1,0.2-0.1,0.3-0.2c0.2-0.2,0.5-0.3,0.7-0.5l0,0c0,0.1,0.1,0.2,0.1,0.3c0.2,0.5,0.3,1,0.5,1.5c0.1,0.2,0.1,0.4,0.2,0.6
		c0.1,0.4,0.2,0.8,0.3,1.2c0.1,0.2,0.1,0.4,0.2,0.7c0.1,0.4,0.2,0.8,0.3,1.2c0,0.2,0.1,0.4,0.1,0.6c0.1,0.5,0.2,1,0.3,1.6
		c0,0.1,0,0.2,0,0.2c0.1,0.6,0.2,1.2,0.3,1.8c0,0.2,0,0.4,0.1,0.5c0.1,0.4,0.1,0.8,0.1,1.3c0,0.2,0,0.4,0.1,0.7c0,0.2,0,0.4,0,0.6
		C155.3,149.9,150.3,151.5,145.1,151.8z M163.1,145.1c0-0.1,0-0.2-0.1-0.4c-0.1-0.8-0.2-1.6-0.3-2.5c0-0.1,0-0.2,0-0.3
		c-0.2-0.9-0.3-1.8-0.5-2.7c-0.1-0.2-0.1-0.5-0.2-0.7c-0.2-0.8-0.4-1.6-0.6-2.3c0-0.2-0.1-0.3-0.1-0.5c-0.3-0.9-0.6-1.8-0.9-2.7
		c0-0.1,0-0.2-0.1-0.2c0.1-0.1,0.3-0.1,0.4-0.2c0.3-0.1,0.7-0.3,1-0.4c0.2-0.1,0.4-0.2,0.6-0.2c0.3-0.1,0.7-0.2,1-0.4
		c0.2-0.1,0.4-0.1,0.6-0.2c0.4-0.1,0.7-0.2,1.1-0.3c0.2,0,0.4-0.1,0.5-0.1c0.4-0.1,0.9-0.2,1.3-0.3c0.1,0,0.2,0,0.3-0.1
		c0.5-0.1,1.1-0.2,1.6-0.2c0.2,0,0.4,0,0.6,0c0.4,0,0.7-0.1,1.1-0.1c0.2,0,0.5,0,0.7,0c0.3,0,0.6,0,0.9,0c0.5,0,1.1,0,1.6,0.1
		c0.2,0,0.3,0,0.5,0h0.1C172,136.1,168.1,141.3,163.1,145.1z M175.3,126.9c-0.2,0-0.4,0-0.6,0c-0.3,0-0.6-0.1-0.9-0.1
		c-0.5,0-1-0.1-1.5-0.1c-0.2,0-0.4,0-0.6,0c-0.1,0-0.2,0-0.4,0s-0.5,0-0.7,0c-0.4,0-0.8,0-1.3,0.1c-0.2,0-0.5,0-0.7,0.1
		c-0.4,0-0.9,0.1-1.3,0.2c-0.2,0-0.4,0-0.6,0.1c-1.3,0.2-2.5,0.5-3.8,0.9c-0.2,0-0.3,0.1-0.5,0.2c-0.4,0.1-0.9,0.3-1.3,0.5
		c-0.2,0.1-0.4,0.2-0.6,0.2c-0.4,0.2-0.8,0.3-1.2,0.5c-0.1,0.1-0.3,0.1-0.4,0.2v-0.1c-0.4-0.9-0.8-1.8-1.3-2.8
		c-0.1-0.2-0.2-0.4-0.3-0.6c-0.5-0.9-0.9-1.8-1.4-2.8c-0.1-0.1-0.1-0.2-0.2-0.4c-0.5-0.9-1-1.7-1.5-2.6c-0.1-0.2-0.2-0.3-0.3-0.5
		c-0.6-0.9-1.1-1.8-1.8-2.7c-0.1-0.1-0.1-0.2-0.2-0.2c8.7-8.4,14.4-16.8,16.6-20.2c4.9,5.9,7.7,13.4,7.7,21.4
		C176.5,121.2,176.1,124.1,175.3,126.9z"/>
	<path class="st0" d="M112.4,0.1C51.5,0.1,2,49.7,2,110.6S51.5,221,112.4,221s110.4-49.5,110.4-110.4S173.3,0.1,112.4,0.1
		 M200.5,144.5l-8.8-3.7c-0.5,1.3-1,2.5-1.6,3.8l8.9,3.7c-4.5,10.2-10.6,19.4-18.2,27.3l-7.1-7.1c-1,1-1.9,1.9-2.9,2.9l7.1,7.1
		c-7.9,7.6-17.1,13.8-27.3,18.3l-3.9-9.5c-1.2,0.5-2.5,1.1-3.8,1.6l3.9,9.5c-10.2,4-21.3,6.3-32.8,6.4v-10.4c0,0-1.3,0.1-2,0.1
		s-1,0-2-0.1v10.4c-11.2-0.3-21.9-2.5-31.8-6.4l3.9-9.5c-1.3-0.5-2.5-1-3.8-1.6l-3.9,9.5c-10.2-4.5-19.4-10.7-27.3-18.3l7.1-7.1
		c-1-0.9-2-1.9-2.9-2.9l-7.1,7.1c-7.6-7.9-13.8-17.2-18.2-27.3l8.9-3.7c-0.6-1.2-1.1-2.5-1.6-3.8l-8.8,3.7c-3.9-10-6.1-20.7-6.3-32
		h9.1c0-1-0.1-2-0.1-3.1c0-0.3,0-0.9,0-0.9h-9c0.2-11.4,2.5-22.4,6.5-32.5l7.9,3.3c0.5-1.3,1-2.6,1.5-3.8l-7.8-3.2
		C30.7,62.2,36.9,53,44.5,45.2l5.7,5.7c0.9-1,1.9-2,2.9-2.9l-5.7-5.7c7.9-7.5,17.1-13.7,27.2-18.1l3,7.2c1.2-0.6,2.5-1.1,3.8-1.6
		l-3-7.2c9.9-3.8,20.5-6.1,31.6-6.3V24c1,0,1.3-0.1,2-0.1s2,0,2,0.1v-7.7c11.5,0.2,22.5,2.4,32.6,6.4l-3,7.2c1.3,0.5,2.5,1,3.8,1.6
		l3-7.2c10.1,4.4,19.3,10.6,27.2,18.1l-5.7,5.7c1,1,1.9,1.9,2.9,2.9l5.7-5.7c7.6,7.9,13.8,17,18.3,27.1l-7.8,3.2
		c0.5,1.3,1,2.5,1.5,3.8l7.9-3.3c4,10.1,6.3,21,6.5,32.5h-9c0,0,0,0.6,0,0.9c0,1,0,2.1-0.1,3.1h9.1
		C206.6,123.8,204.3,134.6,200.5,144.5z M207.4,89.1c-3.1-13.7-9.1-26.4-17.3-37.2l8.1-5.9c9,11.9,15.5,25.7,19,40.7L207.4,89.1z
		 M163.1,27.4c-9.7-6-20.6-10.2-32.1-12.5l2.1-9.9c12.6,2.5,24.4,7.1,35.1,13.6L163.1,27.4z M94.5,14.8c-13.9,2.6-26.8,8.2-38,16
		l-5.6-8.3C63.2,13.9,77.2,7.9,92.4,5L94.5,14.8z M31.1,57.1c-7.5,11.4-12.7,24.5-14.9,38.5l-9.9-1.7c2.4-15.3,8.1-29.6,16.3-42.1
		L31.1,57.1z M17.5,132.2c3.1,13.8,9.2,26.5,17.5,37.4l-8.1,5.9c-9.1-11.9-15.7-25.8-19.2-40.8L17.5,132.2z M62.3,194
		c9.8,5.9,20.7,10.1,32.3,12.3l-2.1,9.9c-12.7-2.4-24.5-7-35.2-13.4L62.3,194z M131,206.1c13.9-2.7,26.7-8.3,37.8-16.2l5.6,8.3
		c-12.2,8.6-26.2,14.8-41.3,17.7L131,206.1z M194,163.7c7.4-11.4,12.6-24.4,14.7-38.3l9.9,1.8c-2.4,15.3-8,29.5-16.1,41.9L194,163.7
		z"/>
</g>
<path class="st0" d="M105.8,142c-0.7-0.8-1.4-1.6-2-2.4l2.6-1.9l-1.8-2.4l-2.6,1.9c-1.3-2.1-2.4-4.3-3.2-6.7l2.9-0.9l-0.9-2.8
	l-2.9,0.6c-0.6-2.3-1-4.6-1.1-7.6h4.2v-2.2c-2,0-1.3-0.8-1.3-0.8H97c0,0,0.1-0.4,0.1-0.8c-1-0.5-1.9-1.2-2.9-1.7
	c-0.1,0.9-0.2,1.5-0.2,2.5h-3v3h2.9c0.1,3,0.5,5.9,1.2,8.6l-2.8,1.1l0.9,2.9l2.8-0.9c0.9,2.7,2.2,5.2,3.7,7.5l-2.3,1.7l1.8,2.4
	l2.2-1.6c0.7,1,1.5,1.9,2.3,2.8c-6.1,5.7-14.3,9.1-23.4,9.1c-9,0-17.2-3.5-23.4-9.1c0.8-0.9,1.6-1.8,2.3-2.8l2.2,1.6l1.8-2.4
	l-2.3-1.6c1.5-2.3,2.7-4.9,3.7-7.5l2.8,0.9l0.9-2.9l-2.8-1.3c0.7-2.6,1.1-5.6,1.2-8.6H70v-3h-3.1c-0.1-2-0.5-5.2-1.2-7.9l2.8-0.7
	l-0.9-2.8l-2.8,1c-0.9-2.7-2.2-5.1-3.7-7.5l2.3-1.6l-1.8-2.4l-2.2,1.6c-0.7-1-1.5-1.9-2.3-2.8c5.2-4.8,12-8,19.4-8.9
	c0-0.4,0-0.8,0-1.3c0-0.6,0-1.2,0-1.7C57.7,83.7,43,99.6,43,118.9c0,20.7,16.8,37.5,37.5,37.5c13.4,0,25.1-7,31.7-17.6
	c-0.6-0.9-1.2-1.9-1.8-2.9C109,138,107.6,140.1,105.8,142 M54.9,142c-5.6-6.1-9-14.3-9-23.2s3.4-17.1,9-23.2c0.7,0.8,1.4,1.6,2,2.4
	l-2.6,1.9l1.8,2.4l2.6-1.9c1.3,2.1,2.4,4.3,3.2,6.7L59,108l0.9,2.8l2.9-1.3c0.6,2.3,1,4.9,1.1,6.9H61v3h2.9c-0.1,3-0.5,5.3-1.1,7.6
	l-2.9-0.8l-0.9,2.9l2.9,1c-0.8,2.4-1.9,4.6-3.2,6.7l-2.6-1.9l-1.8,2.4l2.6,1.9C56.3,140.4,55.6,141.2,54.9,142z"/>
<path class="st0" d="M112,1.6C100.2,1.6,90.6,3,90.6,3"/>
<path class="st0" d="M112.4,197.4c-47.9,0-86.8-38.9-86.8-86.8s39-86.8,86.8-86.8c47.9,0,86.8,38.9,86.8,86.8
	S160.3,197.4,112.4,197.4 M112.4,26.7c-46.2,0-83.8,37.6-83.8,83.8s37.6,83.8,83.8,83.8s83.8-37.6,83.8-83.8S158.7,26.7,112.4,26.7z
	"/>
<path class="st0" d="M130,179.6H94.3l4-2.7c0.1,0,6.7-5,7-22.8l3,0.1c-0.3,12.5-3.4,19.2-5.8,22.5h18.9c-2.9-3.4-6.9-10-6.9-23h3
	c0,17,8.3,23,8.4,23.1L130,179.6"/>
<path class="st0" d="M112.9,46.7c-20.2,0-36.5,16.4-36.5,36.5s16.4,36.5,36.5,36.5s36.5-16.4,36.5-36.5S133.1,46.7,112.9,46.7
	 M114.3,60.1l10.3-8.4c6,2.2,11.1,6.1,14.9,11.1L135,74.3l-11,4.8l-9.6-7.8L114.3,60.1L114.3,60.1z M101.1,51.7l10.3,8.4v11.2
	l-9.7,7.9l-11-4.7l-4.5-11.7C90,57.8,95.1,54,101.1,51.7z M85.4,102.6c-3.6-5.1-5.8-11.3-6.1-17.9l11.1-7.2l10.4,4.4l3.7,12.6
	l-7.2,7.5L85.4,102.6z M122.4,115.5c-3,0.9-6.2,1.4-9.6,1.4c-3.3,0-6.5-0.5-9.6-1.4l-3.2-12.2l6.6-6.8h12l6.9,7.1L122.4,115.5z
	 M128.2,102l-6.9-7.2l3.8-13l10.2-4.3l11.2,7.2c-0.3,6.7-2.5,12.8-6.1,17.9L128.2,102z"/>
<g>
	<path class="st0" d="M149.6,81.7c0,0.5,0,1,0,1.5c0,0.7,0,1.3-0.1,2c6.5,1.3,12.2,4.5,16.7,9c-1.6,2.5-7.4,11.3-16.2,20
		c0,0,0-0.1-0.1-0.1c-0.6-0.9-1.3-1.7-2-2.6c-0.2-0.2-0.3-0.4-0.5-0.6c-0.7-0.9-1.4-1.7-2.2-2.6c-0.1-0.1-0.1-0.1-0.2-0.2
		c-0.7-0.8-1.4-1.6-2.2-2.4c-0.2-0.2-0.3-0.3-0.5-0.5l-0.1-0.1c-0.7,0.9-1.4,1.8-2.2,2.7c0.1,0.1,0.1,0.2,0.2,0.2
		c0.8,0.8,1.6,1.7,2.3,2.5l0.1,0.1c0.8,0.9,1.5,1.8,2.2,2.6c0.1,0.2,0.3,0.3,0.4,0.5c0.7,0.9,1.3,1.7,2,2.6c0,0.1,0.1,0.1,0.1,0.2
		c-0.2,0.2-0.4,0.4-0.6,0.5c-0.3,0.3-0.7,0.6-1,0.9c-0.4,0.3-0.8,0.7-1.2,1c-0.3,0.3-0.7,0.6-1,0.8c-0.4,0.3-0.8,0.7-1.2,1
		c-0.3,0.3-0.7,0.5-1,0.8c-0.4,0.3-0.8,0.6-1.2,0.9c-0.3,0.2-0.7,0.5-1,0.7c-0.4,0.3-0.8,0.6-1.3,0.9c-0.3,0.2-0.6,0.4-0.9,0.6
		c-0.4,0.3-0.9,0.6-1.3,0.9c-0.3,0.2-0.6,0.4-0.9,0.6c-0.5,0.3-1,0.6-1.5,0.9c-0.3,0.1-0.5,0.3-0.8,0.4c-0.7,0.4-1.3,0.7-2,1.1
		c-0.1,0-0.1,0.1-0.2,0.1c-0.7,0.4-1.5,0.7-2.3,1.1c-0.2,0.1-0.4,0.2-0.7,0.3c-0.5,0.2-1.1,0.5-1.6,0.7c-0.3,0.1-0.6,0.2-0.9,0.3
		c-0.5,0.2-0.9,0.4-1.4,0.5c-0.3,0.1-0.6,0.2-0.9,0.3c-0.4,0.1-0.9,0.3-1.3,0.4c-0.3,0.1-0.7,0.2-1,0.3c-0.4,0.1-0.9,0.2-1.3,0.3
		c-0.3,0.1-0.7,0.2-1,0.2c-0.4,0.1-0.8,0.2-1.3,0.3c-0.3,0.1-0.7,0.1-1,0.2c-0.4,0.1-0.8,0.1-1.3,0.2c-0.3,0.1-0.7,0.1-1,0.1
		c-0.2,0-0.4,0-0.7,0.1c-2.3-4.4-3.6-9.3-3.8-14.3c-1.2-0.1-2.3-0.3-3.4-0.5c0.1,6.1,1.8,12.2,4.8,17.5c6.6,11.6,19,19,32.3,19
		l0.2,0.1l0,0c7,0,13.8-2,19.6-6l0,0c7.4-5,13-11.9,15.6-20.2c1.1-3.6,1.7-7.3,1.7-11.1C179.9,100.3,167,84.9,149.6,81.7
		 M144.7,143.3c-0.2,0.3-0.3,0.6-0.5,1c-0.1,0.2-0.2,0.4-0.3,0.7s-0.3,0.6-0.4,0.9c-0.1,0.2-0.2,0.5-0.3,0.7
		c-0.1,0.3-0.2,0.6-0.4,0.9c-0.1,0.2-0.2,0.5-0.3,0.7c-0.1,0.3-0.2,0.6-0.3,1c-0.1,0.2-0.1,0.5-0.2,0.7c-0.1,0.3-0.2,0.7-0.3,1
		c-0.1,0.2-0.1,0.5-0.2,0.7c0,0.1,0,0.2-0.1,0.2c-10.8-0.4-20.7-6-26.8-14.9c0.7-0.1,1.5-0.2,2.2-0.4c0.1,0,0.1,0,0.2,0
		c0.7-0.1,1.4-0.3,2.1-0.5c0.3-0.1,0.5-0.1,0.8-0.2c0.5-0.1,1-0.3,1.5-0.4c0.3-0.1,0.6-0.2,0.9-0.3c0.5-0.1,0.9-0.3,1.4-0.4
		c0.3-0.1,0.7-0.2,1-0.3c0.5-0.2,0.9-0.3,1.4-0.5c0.3-0.1,0.7-0.3,1-0.4c0.5-0.2,0.9-0.4,1.4-0.6c0.3-0.1,0.7-0.3,1-0.4
		c0.5-0.2,0.9-0.4,1.4-0.7c0.3-0.2,0.6-0.3,0.9-0.5c0.5-0.2,1-0.5,1.5-0.8c0.3-0.1,0.6-0.3,0.8-0.4c0.6-0.4,1.3-0.7,1.9-1.1
		c0.1-0.1,0.3-0.2,0.4-0.2c0.8-0.5,1.5-0.9,2.3-1.4c0.2-0.2,0.5-0.3,0.7-0.5c0.5-0.4,1.1-0.7,1.6-1.1c0.3-0.2,0.6-0.4,0.9-0.6
		c0.5-0.3,0.9-0.7,1.4-1c0.3-0.2,0.6-0.5,0.9-0.7c0.4-0.4,0.9-0.7,1.3-1.1c0.3-0.3,0.6-0.5,1-0.8c0.4-0.4,0.9-0.7,1.3-1.1
		c0.3-0.3,0.6-0.5,0.9-0.8c0.2-0.1,0.3-0.3,0.5-0.4c0,0,0,0.1,0.1,0.1c0.6,0.9,1.1,1.7,1.7,2.6c0.1,0.2,0.2,0.4,0.3,0.6
		c0.5,0.9,1,1.7,1.5,2.6c0,0.1,0.1,0.2,0.1,0.2c0.4,0.8,0.9,1.6,1.3,2.5c0.1,0.2,0.2,0.4,0.3,0.5c0.4,0.9,0.8,1.7,1.2,2.6
		c0,0.1,0,0.1,0.1,0.2c0,0-0.1,0-0.1,0.1c-0.2,0.1-0.3,0.2-0.5,0.3c-0.3,0.2-0.6,0.4-0.9,0.6c-0.2,0.1-0.4,0.3-0.6,0.4
		c-0.3,0.2-0.5,0.4-0.8,0.6c-0.2,0.1-0.4,0.3-0.6,0.5c-0.3,0.2-0.5,0.4-0.7,0.6c-0.2,0.2-0.4,0.3-0.5,0.5c-0.2,0.2-0.5,0.4-0.7,0.7
		c-0.2,0.2-0.3,0.3-0.5,0.5s-0.5,0.5-0.7,0.7s-0.3,0.3-0.5,0.5c-0.2,0.3-0.5,0.5-0.7,0.8c-0.1,0.2-0.3,0.3-0.4,0.5
		c-0.3,0.3-0.5,0.7-0.8,1c-0.1,0.1-0.2,0.2-0.3,0.4c-0.3,0.5-0.6,0.9-0.9,1.4c-0.1,0.1-0.2,0.3-0.2,0.4c-0.2,0.4-0.4,0.7-0.6,1.1
		C144.9,142.9,144.8,143.1,144.7,143.3z M145.1,151.8c0.1-0.3,0.1-0.6,0.2-0.9c0-0.1,0.1-0.3,0.1-0.4c0.1-0.5,0.3-1,0.5-1.5
		c0-0.1,0.1-0.2,0.1-0.3c0.1-0.4,0.3-0.8,0.4-1.1c0.1-0.2,0.1-0.3,0.2-0.5c0.1-0.3,0.3-0.6,0.4-0.9c0.1-0.2,0.2-0.3,0.2-0.5
		c0.1-0.3,0.3-0.6,0.4-0.9c0.1-0.2,0.2-0.3,0.3-0.5c0.2-0.3,0.3-0.6,0.5-0.9c0.1-0.1,0.2-0.3,0.2-0.4c0.5-0.9,1.1-1.7,1.7-2.4
		c0.1-0.1,0.2-0.2,0.3-0.4c0.2-0.3,0.4-0.5,0.7-0.8c0.1-0.1,0.2-0.3,0.4-0.4c0.2-0.2,0.4-0.5,0.6-0.7c0.1-0.1,0.3-0.3,0.4-0.4
		c0.2-0.2,0.5-0.5,0.7-0.7c0.1-0.1,0.2-0.2,0.4-0.3c0.3-0.3,0.6-0.5,0.9-0.8c0.1-0.1,0.2-0.1,0.2-0.2c0.4-0.3,0.8-0.6,1.2-0.9
		c0.1-0.1,0.2-0.1,0.3-0.2c0.2-0.2,0.5-0.3,0.7-0.5l0,0c0,0.1,0.1,0.2,0.1,0.3c0.2,0.5,0.3,1,0.5,1.5c0.1,0.2,0.1,0.4,0.2,0.6
		c0.1,0.4,0.2,0.8,0.3,1.2c0.1,0.2,0.1,0.4,0.2,0.7c0.1,0.4,0.2,0.8,0.3,1.2c0,0.2,0.1,0.4,0.1,0.6c0.1,0.5,0.2,1,0.3,1.6
		c0,0.1,0,0.2,0,0.2c0.1,0.6,0.2,1.2,0.3,1.8c0,0.2,0,0.4,0.1,0.5c0.1,0.4,0.1,0.8,0.1,1.3c0,0.2,0,0.4,0.1,0.7c0,0.2,0,0.4,0,0.6
		C155.3,149.9,150.3,151.5,145.1,151.8z M163.1,145.1c0-0.1,0-0.2-0.1-0.4c-0.1-0.8-0.2-1.6-0.3-2.5c0-0.1,0-0.2,0-0.3
		c-0.2-0.9-0.3-1.8-0.5-2.7c-0.1-0.2-0.1-0.5-0.2-0.7c-0.2-0.8-0.4-1.6-0.6-2.3c0-0.2-0.1-0.3-0.1-0.5c-0.3-0.9-0.6-1.8-0.9-2.7
		c0-0.1,0-0.2-0.1-0.2c0.1-0.1,0.3-0.1,0.4-0.2c0.3-0.1,0.7-0.3,1-0.4c0.2-0.1,0.4-0.2,0.6-0.2c0.3-0.1,0.7-0.2,1-0.4
		c0.2-0.1,0.4-0.1,0.6-0.2c0.4-0.1,0.7-0.2,1.1-0.3c0.2,0,0.4-0.1,0.5-0.1c0.4-0.1,0.9-0.2,1.3-0.3c0.1,0,0.2,0,0.3-0.1
		c0.5-0.1,1.1-0.2,1.6-0.2c0.2,0,0.4,0,0.6,0c0.4,0,0.7-0.1,1.1-0.1c0.2,0,0.5,0,0.7,0c0.3,0,0.6,0,0.9,0c0.5,0,1.1,0,1.6,0.1
		c0.2,0,0.3,0,0.5,0h0.1C172,136.1,168.1,141.3,163.1,145.1z M175.3,126.9c-0.2,0-0.4,0-0.6,0c-0.3,0-0.6-0.1-0.9-0.1
		c-0.5,0-1-0.1-1.5-0.1c-0.2,0-0.4,0-0.6,0c-0.1,0-0.2,0-0.4,0s-0.5,0-0.7,0c-0.4,0-0.8,0-1.3,0.1c-0.2,0-0.5,0-0.7,0.1
		c-0.4,0-0.9,0.1-1.3,0.2c-0.2,0-0.4,0-0.6,0.1c-1.3,0.2-2.5,0.5-3.8,0.9c-0.2,0-0.3,0.1-0.5,0.2c-0.4,0.1-0.9,0.3-1.3,0.5
		c-0.2,0.1-0.4,0.2-0.6,0.2c-0.4,0.2-0.8,0.3-1.2,0.5c-0.1,0.1-0.3,0.1-0.4,0.2v-0.1c-0.4-0.9-0.8-1.8-1.3-2.8
		c-0.1-0.2-0.2-0.4-0.3-0.6c-0.5-0.9-0.9-1.8-1.4-2.8c-0.1-0.1-0.1-0.2-0.2-0.4c-0.5-0.9-1-1.7-1.5-2.6c-0.1-0.2-0.2-0.3-0.3-0.5
		c-0.6-0.9-1.1-1.8-1.8-2.7c-0.1-0.1-0.1-0.2-0.2-0.2c8.7-8.4,14.4-16.8,16.6-20.2c4.9,5.9,7.7,13.4,7.7,21.4
		C176.5,121.2,176.1,124.1,175.3,126.9z"/>
	<path class="st0" d="M112.4,0.1C51.5,0.1,2,49.7,2,110.6S51.5,221,112.4,221s110.4-49.5,110.4-110.4S173.3,0.1,112.4,0.1
		 M200.5,144.5l-8.8-3.7c-0.5,1.3-1,2.5-1.6,3.8l8.9,3.7c-4.5,10.2-10.6,19.4-18.2,27.3l-7.1-7.1c-1,1-1.9,1.9-2.9,2.9l7.1,7.1
		c-7.9,7.6-17.1,13.8-27.3,18.3l-3.9-9.5c-1.2,0.5-2.5,1.1-3.8,1.6l3.9,9.5c-10.2,4-21.3,6.3-32.8,6.4v-10.4c0,0-1.3,0.1-2,0.1
		s-1,0-2-0.1v10.4c-11.2-0.3-21.9-2.5-31.8-6.4l3.9-9.5c-1.3-0.5-2.5-1-3.8-1.6l-3.9,9.5c-10.2-4.5-19.4-10.7-27.3-18.3l7.1-7.1
		c-1-0.9-2-1.9-2.9-2.9l-7.1,7.1c-7.6-7.9-13.8-17.2-18.2-27.3l8.9-3.7c-0.6-1.2-1.1-2.5-1.6-3.8l-8.8,3.7c-3.9-10-6.1-20.7-6.3-32
		h9.1c0-1-0.1-2-0.1-3.1c0-0.3,0-0.9,0-0.9h-9c0.2-11.4,2.5-22.4,6.5-32.5l7.9,3.3c0.5-1.3,1-2.6,1.5-3.8l-7.8-3.2
		C30.7,62.2,36.9,53,44.5,45.2l5.7,5.7c0.9-1,1.9-2,2.9-2.9l-5.7-5.7c7.9-7.5,17.1-13.7,27.2-18.1l3,7.2c1.2-0.6,2.5-1.1,3.8-1.6
		l-3-7.2c9.9-3.8,20.5-6.1,31.6-6.3V24c1,0,1.3-0.1,2-0.1s2,0,2,0.1v-7.7c11.5,0.2,22.5,2.4,32.6,6.4l-3,7.2c1.3,0.5,2.5,1,3.8,1.6
		l3-7.2c10.1,4.4,19.3,10.6,27.2,18.1l-5.7,5.7c1,1,1.9,1.9,2.9,2.9l5.7-5.7c7.6,7.9,13.8,17,18.3,27.1l-7.8,3.2
		c0.5,1.3,1,2.5,1.5,3.8l7.9-3.3c4,10.1,6.3,21,6.5,32.5h-9c0,0,0,0.6,0,0.9c0,1,0,2.1-0.1,3.1h9.1
		C206.6,123.8,204.3,134.6,200.5,144.5z M207.4,89.1c-3.1-13.7-9.1-26.4-17.3-37.2l8.1-5.9c9,11.9,15.5,25.7,19,40.7L207.4,89.1z
		 M163.1,27.4c-9.7-6-20.6-10.2-32.1-12.5l2.1-9.9c12.6,2.5,24.4,7.1,35.1,13.6L163.1,27.4z M94.5,14.8c-13.9,2.6-26.8,8.2-38,16
		l-5.6-8.3C63.2,13.9,77.2,7.9,92.4,5L94.5,14.8z M31.1,57.1c-7.5,11.4-12.7,24.5-14.9,38.5l-9.9-1.7c2.4-15.3,8.1-29.6,16.3-42.1
		L31.1,57.1z M17.5,132.2c3.1,13.8,9.2,26.5,17.5,37.4l-8.1,5.9c-9.1-11.9-15.7-25.8-19.2-40.8L17.5,132.2z M62.3,194
		c9.8,5.9,20.7,10.1,32.3,12.3l-2.1,9.9c-12.7-2.4-24.5-7-35.2-13.4L62.3,194z M131,206.1c13.9-2.7,26.7-8.3,37.8-16.2l5.6,8.3
		c-12.2,8.6-26.2,14.8-41.3,17.7L131,206.1z M194,163.7c7.4-11.4,12.6-24.4,14.7-38.3l9.9,1.8c-2.4,15.3-8,29.5-16.1,41.9L194,163.7
		z"/>
</g>
<path class="st0" d="M105.8,142c-0.7-0.8-1.4-1.6-2-2.4l2.6-1.9l-1.8-2.4l-2.6,1.9c-1.3-2.1-2.4-4.3-3.2-6.7l2.9-0.9l-0.9-2.8
	l-2.9,0.6c-0.6-2.3-1-4.6-1.1-7.6h4.2v-2.2c-2,0-1.3-0.8-1.3-0.8H97c0,0,0.1-0.4,0.1-0.8c-1-0.5-1.9-1.2-2.9-1.7
	c-0.1,0.9-0.2,1.5-0.2,2.5h-3v3h2.9c0.1,3,0.5,5.9,1.2,8.6l-2.8,1.1l0.9,2.9l2.8-0.9c0.9,2.7,2.2,5.2,3.7,7.5l-2.3,1.7l1.8,2.4
	l2.2-1.6c0.7,1,1.5,1.9,2.3,2.8c-6.1,5.7-14.3,9.1-23.4,9.1c-9,0-17.2-3.5-23.4-9.1c0.8-0.9,1.6-1.8,2.3-2.8l2.2,1.6l1.8-2.4
	l-2.3-1.6c1.5-2.3,2.7-4.9,3.7-7.5l2.8,0.9l0.9-2.9l-2.8-1.3c0.7-2.6,1.1-5.6,1.2-8.6H70v-3h-3.1c-0.1-2-0.5-5.2-1.2-7.9l2.8-0.7
	l-0.9-2.8l-2.8,1c-0.9-2.7-2.2-5.1-3.7-7.5l2.3-1.6l-1.8-2.4l-2.2,1.6c-0.7-1-1.5-1.9-2.3-2.8c5.2-4.8,12-8,19.4-8.9
	c0-0.4,0-0.8,0-1.3c0-0.6,0-1.2,0-1.7C57.7,83.7,43,99.6,43,118.9c0,20.7,16.8,37.5,37.5,37.5c13.4,0,25.1-7,31.7-17.6
	c-0.6-0.9-1.2-1.9-1.8-2.9C109,138,107.6,140.1,105.8,142 M54.9,142c-5.6-6.1-9-14.3-9-23.2s3.4-17.1,9-23.2c0.7,0.8,1.4,1.6,2,2.4
	l-2.6,1.9l1.8,2.4l2.6-1.9c1.3,2.1,2.4,4.3,3.2,6.7L59,108l0.9,2.8l2.9-1.3c0.6,2.3,1,4.9,1.1,6.9H61v3h2.9c-0.1,3-0.5,5.3-1.1,7.6
	l-2.9-0.8l-0.9,2.9l2.9,1c-0.8,2.4-1.9,4.6-3.2,6.7l-2.6-1.9l-1.8,2.4l2.6,1.9C56.3,140.4,55.6,141.2,54.9,142z"/>
<path class="st0" d="M112,1.6C100.2,1.6,90.6,3,90.6,3"/>
<g>
	<path class="st0" d="M1041.9,232.8C1041.9,232.8,1041.9,232.8,1041.9,232.8v-21c0-1.5,1.3-2.9,2.9-2.9c1.6,0,2.9,1.3,2.9,2.9v10
		c2-1.4,4.5-2.2,7.1-2.2c7.2,0,12.9,6,12.9,13.3c0,7.2-5.7,13.2-12.9,13.2c-2.6,0-5.2-0.9-7.2-2.3c-0.3,1.3-1.4,2.3-2.8,2.3
		c-1.6,0-2.9-1.3-2.9-2.9V232.8z M1047.7,232.8c0,2,0.8,3.9,2.1,5.2c1.3,1.4,3,2.2,5,2.2c1.9,0,3.7-0.8,5-2.2
		c1.3-1.3,2.1-3.2,2.1-5.2c0-2.1-0.8-4-2.1-5.4c-1.3-1.4-3.1-2.2-5-2.2c-2,0-3.7,0.8-5,2.2C1048.5,228.8,1047.7,230.7,1047.7,232.8z
		"/>
	<path class="st0" d="M1095.6,222.3v12.5v7.5c0,7.1-5.6,12.7-12.7,12.7c-1.9,0-3.9-0.5-5.5-1.3c-1.5-0.6-2-2.3-1.4-3.8
		c0.7-1.3,2.5-1.9,3.8-1.2c1,0.5,2,0.7,3.1,0.7c3.1-0.1,5.8-2.1,6.6-4.8c-1.5,0.8-3.3,1.3-5,1.3c-6.1,0-11.1-5-11.1-11.1v-12.5
		c0-1.6,1.3-2.8,2.8-2.8c1.6,0,2.8,1.2,2.8,2.8v12.5c0,3.1,2.5,5.4,5.5,5.4s5.5-2.3,5.5-5.4v-12.5c0-1.6,1.2-2.8,2.8-2.8
		C1094.2,219.5,1095.6,220.7,1095.6,222.3z"/>
	<path class="st0" d="M1122.1,236.8c1-1.2,2.7-1.3,3.9-0.4c2.3,1.9,6.4,4.1,10.1,4.1c2.6,0,5-0.8,6.6-2c1.6-1.2,2.3-2.5,2.3-3.8
		c0-0.7-0.2-1.2-0.5-1.7c-0.3-0.5-0.8-1.1-1.6-1.6c-1.5-1-4.1-1.9-7.3-2.5h-0.1c-2.5-0.5-4.8-1.1-6.8-2.1s-3.8-2.3-4.9-4.1
		c-0.8-1.3-1.2-2.8-1.2-4.3c0-3.2,1.8-5.9,4.2-7.7c2.5-1.8,5.7-2.8,9.2-2.8c5.1,0,8.9,2.5,11.6,4.2c1.2,0.8,1.6,2.5,0.7,3.8
		c-0.8,1.3-2.5,1.6-3.8,0.8c-2.7-1.8-5.3-3.4-8.5-3.4c-2.4,0-4.5,0.7-5.9,1.8c-1.4,1.1-2,2.2-2,3.3c0,0.6,0.1,1.1,0.4,1.5
		c0.3,0.4,0.7,0.9,1.4,1.4c1.4,1,3.8,1.8,6.6,2.3h0.1c2.7,0.5,5.2,1.2,7.3,2.2c2.2,1.1,4.1,2.4,5.3,4.4c0.8,1.3,1.3,2.9,1.3,4.5
		c0,3.4-1.9,6.3-4.6,8.2c-2.6,1.9-6,3-9.8,3c-5.7-0.1-10.5-2.9-13.6-5.3C1121.3,239.7,1121.2,237.9,1122.1,236.8z"/>
	<path class="st0" d="M1180.4,232.8v10.4c0,1.5-1.3,2.8-2.8,2.8c-1.4,0-2.4-1-2.8-2.3c-2,1.4-4.4,2.3-7,2.3c-3.6,0-6.7-1.5-9-3.9
		c-2.3-2.4-3.6-5.7-3.6-9.3c0-3.7,1.3-6.9,3.6-9.3c2.3-2.4,5.4-4,9-4c2.6,0,5,0.9,7,2.3c0.3-1.3,1.4-2.3,2.8-2.3
		c1.5,0,2.8,1.3,2.8,2.9V232.8z M1174.8,232.8c0-2.2-0.8-4.1-2.1-5.5c-1.3-1.4-3.1-2.2-4.9-2.2c-1.9,0-3.7,0.7-4.9,2.2
		c-1.3,1.3-2,3.2-2,5.5c0,2.2,0.7,4.1,2,5.5c1.2,1.3,3,2.1,4.9,2.1c1.9,0,3.7-0.7,4.9-2.1C1174,236.9,1174.8,235,1174.8,232.8z"/>
	<path class="st0" d="M1190.8,232.8C1190.8,232.8,1190.8,232.8,1190.8,232.8v-21c0-1.5,1.3-2.9,2.9-2.9c1.6,0,2.9,1.3,2.9,2.9v10
		c2-1.4,4.5-2.2,7.1-2.2c7.2,0,12.9,6,12.9,13.3c0,7.2-5.7,13.2-12.9,13.2c-2.6,0-5.2-0.9-7.2-2.3c-0.3,1.3-1.4,2.3-2.8,2.3
		c-1.6,0-2.9-1.3-2.9-2.9V232.8z M1196.6,232.8c0,2,0.8,3.9,2.1,5.2c1.3,1.4,3,2.2,5,2.2c1.9,0,3.7-0.8,5-2.2
		c1.3-1.3,2.1-3.2,2.1-5.2c0-2.1-0.8-4-2.1-5.4c-1.3-1.4-3.1-2.2-5-2.2c-2,0-3.7,0.8-5,2.2C1197.4,228.8,1196.6,230.7,1196.6,232.8z
		"/>
	<path class="st0" d="M1248.2,232.8v10.4c0,1.5-1.3,2.8-2.8,2.8c-1.4,0-2.4-1-2.8-2.3c-2,1.4-4.4,2.3-7,2.3c-3.6,0-6.7-1.5-9-3.9
		c-2.3-2.4-3.6-5.7-3.6-9.3c0-3.7,1.3-6.9,3.6-9.3c2.3-2.4,5.4-4,9-4c2.6,0,5,0.9,7,2.3c0.3-1.3,1.4-2.3,2.8-2.3
		c1.5,0,2.8,1.3,2.8,2.9V232.8z M1242.6,232.8c0-2.2-0.8-4.1-2.1-5.5c-1.3-1.4-3.1-2.2-4.9-2.2c-1.9,0-3.7,0.7-4.9,2.2
		c-1.3,1.3-2,3.2-2,5.5c0,2.2,0.7,4.1,2,5.5c1.2,1.3,3,2.1,4.9,2.1c1.9,0,3.7-0.7,4.9-2.1C1241.8,236.9,1242.6,235,1242.6,232.8z"/>
	<path class="st0" d="M1259.2,243.1v-31.3c0-1.6,1.3-2.9,2.9-2.9c0.1,0,0.1,0,0.2,0c0,0,0,0,0.1,0h7.3c5.6,0,10.1,4.5,10.1,10.1
		c0,2.3-0.7,4.3-2,6c3.2,2,5.4,5.6,5.4,9.6c0,6.3-5.1,11.4-11.3,11.4h-9.4c-0.1,0-0.1-0.1-0.1-0.1c-0.1,0-0.1,0.1-0.2,0.1
		C1260.5,246,1259.2,244.7,1259.2,243.1z M1265.1,223.3h4.6c2.3,0,4.2-2,4.2-4.3c0-2.3-1.9-4.2-4.2-4.2h-4.6V223.3z M1265.1,240.1
		h6.6c3-0.1,5.5-2.4,5.5-5.5c0-3-2.4-5.4-5.5-5.5h-6.6V240.1z"/>
	<path class="st0" d="M1292.5,242.1c-2.3-2.3-3.7-5.6-3.7-9.3c0-3.6,1.4-6.7,3.7-9.3c2.4-2.5,5.5-4,9.1-4c3.5,0,6.7,1.5,8.8,4
		c2.4,2.5,3.7,5.7,3.7,9.3c0,3.7-1.3,7-3.7,9.3c-2.2,2.5-5.4,4-8.8,4C1298,246.2,1294.9,244.6,1292.5,242.1z M1294.6,232.8
		c0,2.3,0.7,4.1,1.9,5.6c1.3,1.3,3.1,2,5.1,2c1.9,0,3.5-0.7,4.9-2c1.3-1.5,2.1-3.3,2.1-5.6c0-2.2-0.7-4.1-2.1-5.5
		c-1.3-1.2-3-2-4.9-2c-2,0-3.8,0.8-5.1,2C1295.3,228.7,1294.6,230.6,1294.6,232.8z"/>
	<path class="st0" d="M1334.1,222.4c0,1.6-1.4,2.9-3,2.9h-1.3v14.8c1.6,0,2.9,1.3,2.9,3c0,1.6-1.3,2.9-2.9,2.9
		c-3.2,0-5.9-2.6-5.9-5.9v-14.8h-1.5c-1.6,0-2.9-1.3-2.9-2.9c0-1.6,1.3-2.9,2.9-2.9h1.5v-7.7c0-1.6,1.3-2.9,3-2.9
		c1.6,0,2.9,1.3,2.9,2.9v7.7h1.3C1332.7,219.5,1334.1,220.8,1334.1,222.4z"/>
</g>
</svg>
