<?xml version="1.0" encoding="utf-8"?>
<!-- Generator: Adobe Illustrator 20.0.0, SVG Export Plug-In . SVG Version: 6.00 Build 0)  -->
<!DOCTYPE svg PUBLIC "-//W3C//DTD SVG 1.1//EN" "http://www.w3.org/Graphics/SVG/1.1/DTD/svg11.dtd">
<svg version="1.1" id="Calque_1" xmlns="http://www.w3.org/2000/svg" xmlns:xlink="http://www.w3.org/1999/xlink" x="0px" y="0px"
	 viewBox="0 0 1075.4 497.9" style="enable-background:new 0 0 1075.4 497.9;" xml:space="preserve">
<style type="text/css">
	.st0{fill:#FFFFFF;}
</style>
<g>
	<path class="st0" d="M12.1,415.2c3.7-4.5,10.5-5.1,15-1.4c9,7.4,24.6,16,39.2,15.8c10.2,0,19.5-3.1,25.6-7.6
		c6.2-4.5,8.8-9.6,8.8-14.8c0-2.7-0.6-4.5-1.8-6.6s-3.1-4.1-6.1-6.1c-5.9-3.9-16-7.4-28.1-9.6h-0.4c-9.6-1.8-18.7-4.3-26.4-8
		c-7.8-3.7-14.6-8.8-19.1-16c-3.1-4.9-4.7-10.7-4.7-16.8c0-12.3,7-23,16.4-29.9c9.6-7,22.1-10.9,35.5-10.9
		c19.7,0,34.2,9.6,44.7,16.4c4.7,3.3,6.2,9.8,2.9,14.6c-3.1,4.9-9.6,6.4-14.6,3.1c-10.5-7-20.5-13.1-33-13.1c-9.2,0-17.4,2.9-23,7
		s-7.8,8.6-7.8,12.9c0,2.5,0.4,4.1,1.4,5.7c1,1.6,2.9,3.5,5.5,5.3c5.3,3.7,14.6,7,25.6,9h0.4c10.5,2.1,20.1,4.7,28.3,8.6
		c8.4,4.1,15.8,9.4,20.5,17c3.1,4.9,4.9,11.1,4.9,17.4c0,13.1-7.4,24.4-17.6,31.8c-10,7.4-23.4,11.7-37.9,11.7
		c-22.1-0.2-40.8-11.3-52.5-20.5C9.2,426.5,8.6,419.7,12.1,415.2z"/>
	<path class="st0" d="M151.1,478.4v-78.3c0,0,0,0,0-0.2v-40.6c0-5.9,4.9-10.9,10.9-10.9c5.7,0,10.5,3.9,11.3,8.4
		c7.6-4.9,17.4-8.4,27.9-8.4c27.3,0,49.6,23.4,49.6,51.5c0,28.1-22.3,50.8-49.6,50.8c-10.2,0-20.1-3.1-27.5-8.4v36.1
		c0,5.7-5.1,11.1-11.7,11.1C156,489.4,151.1,484.1,151.1,478.4z M173.6,399.8c0,8,2.7,15.8,8,20.5c5.1,5.7,11.9,8.6,19.5,8.6
		c7,0,13.9-2.9,19.3-8.6c4.7-4.7,8-12.5,8-20.5c0-8-3.3-15.4-8-20.7c-5.3-5.5-12.3-8.4-19.3-8.4c-7.6,0-14.4,2.9-19.5,8.4
		C176.3,384.5,173.6,391.9,173.6,399.8z"/>
	<path class="st0" d="M295.8,435.9c-8.8-9-14.1-21.7-14.1-36.1c0-13.9,5.3-26,14.1-35.9c9.2-9.6,21.1-15.6,35.3-15.6
		c13.5,0,25.8,5.9,34.2,15.6c9.2,9.8,14.3,21.9,14.3,35.9c0,14.3-5.1,27.1-14.3,36.1c-8.4,9.6-20.7,15.6-34.2,15.6
		C316.9,451.5,305,445.6,295.8,435.9z M304,399.8c0,8.8,2.7,16,7.4,21.7c5.1,4.9,11.9,7.6,19.7,7.6c7.2,0,13.7-2.7,18.9-7.6
		c5.1-5.7,8-12.9,8-21.7c0-8.4-2.9-15.8-8-21.3c-5.1-4.5-11.7-7.8-18.9-7.8c-7.8,0-14.6,3.3-19.7,7.8
		C306.7,384.1,304,391.4,304,399.8z"/>
	<path class="st0" d="M473.6,359.3c0,5.7-4.7,10.9-10.9,10.9c-4.7,0-8.8,1.2-12.3,3.9c-3.9,2.5-7,5.9-9.4,9.8
		c-4.9,6.6-7.4,14.3-8.4,17.2v39c0,5.9-5.1,10.9-11.3,10.9c-5.9,0-10.9-4.9-10.9-10.9v-80.8c0-5.9,4.9-10.7,10.9-10.7
		c6.1,0,11.3,4.7,11.3,10.7v1.4c1.2-1.4,2.9-3.1,4.3-4.1c6.8-4.5,15.6-8.2,25.8-8C468.8,348.6,473.6,353.3,473.6,359.3z"/>
	<path class="st0" d="M546.5,359.7c0,6.1-5.3,11.3-11.5,11.3h-5.1v57.2c6.4,0,11.3,5.1,11.3,11.5s-4.9,11.3-11.3,11.3
		c-12.5,0-22.8-10.2-22.8-22.8v-57.2h-5.9c-6.4,0-11.3-5.1-11.3-11.3c0-6.4,4.9-11.3,11.3-11.3h5.9v-29.7c0-6.4,5.1-11.3,11.5-11.3
		c6.4,0,11.3,4.9,11.3,11.3v29.7h5.1C541.2,348.4,546.5,353.3,546.5,359.7z"/>
	<path class="st0" d="M578.1,424c1.6-2,4.5-2.3,6.4-0.6c10.7,8.6,28.5,18.7,47.2,18.5c12.5,0,23.8-3.7,31.6-9.4
		c8-5.7,12.3-13.3,12.3-21.3c0-8.2-3.9-14.4-11.7-19.7c-7.8-5.1-19.3-9-33.2-11.7h-0.4c-13.3-2.5-25-6.1-33.8-12.1
		c-8.8-5.7-14.8-14.4-14.8-25c0-10.9,5.9-20.3,15-26.9c9-6.6,21.1-10.5,34.6-10.5c18.9,0,33,9.2,44.3,16.6c2,1.4,2.7,4.1,1.2,6.4
		c-1.2,2.1-4.1,2.7-6.2,1.2c-11.3-7.4-23.6-15.2-39.4-15.2c-11.7,0-22.1,3.5-29.3,8.6c-7.2,5.3-11.3,12.3-11.3,19.7
		c0.2,7.2,3.5,12.5,10.7,17.4c7.2,4.9,17.8,8.4,30.8,10.9h0.4c14.3,2.7,27.1,6.8,36.5,13.1c9.4,6.1,15.8,15.6,15.8,27.1
		c0,11.5-6.6,21.7-16.2,28.7c-9.6,7-22.5,11.3-36.9,11.3c-21.9-0.2-41-11.3-52.9-20.7C576.9,428.8,576.7,425.9,578.1,424z"/>
	<path class="st0" d="M803.4,355.4V446c0,2.7-2.3,4.9-4.9,4.9c-2.7,0-4.9-2.3-4.9-4.9v-15c-8.6,11.9-22.3,19.9-37.7,19.9
		c-26.4,0-47.6-22.8-47.6-50.2s21.1-50.2,47.6-50.2c15.4,0,29.1,7.8,37.7,19.7v-14.8c0-2.9,2.3-4.9,4.9-4.9
		C801.1,350.4,803.4,352.5,803.4,355.4z M793.6,400.7c0-22.5-17-40.6-37.7-40.6c-20.5,0-37.7,18-37.7,40.6s17.2,40.4,37.7,40.4
		C776.5,441.1,793.6,423.2,793.6,400.7z"/>
	<path class="st0" d="M846,402.9v-2v-2v-86.5c0-2.7,2.3-4.9,4.9-4.9c2.9,0,5.1,2.3,5.1,4.9v57.8c8.8-11.9,22.8-19.7,38.5-19.7
		c27.1,0,48.6,22.6,48.6,50.4c0,27.5-21.5,50-48.6,50c-15.8,0-29.7-7.6-38.5-19.5V446c0,2.7-2.3,4.9-5.1,4.9c-2.7,0-4.9-2.3-4.9-4.9
		V402.9z M856.1,400.9c0,22.1,17.4,40,38.5,40c21.3,0,38.5-17.8,38.5-40c0-22.3-17.2-40.4-38.5-40.4c-20.7,0-37.7,17.2-38.5,38.7
		V400.9z"/>
	<path class="st0" d="M1065.6,355.4V446c0,2.7-2.3,4.9-4.9,4.9c-2.7,0-4.9-2.3-4.9-4.9v-15c-8.6,11.9-22.3,19.9-37.7,19.9
		c-26.4,0-47.6-22.8-47.6-50.2s21.1-50.2,47.6-50.2c15.4,0,29.1,7.8,37.7,19.7v-14.8c0-2.9,2.3-4.9,4.9-4.9
		C1063.3,350.4,1065.6,352.5,1065.6,355.4z M1055.7,400.7c0-22.5-17-40.6-37.7-40.6c-20.5,0-37.7,18-37.7,40.6s17.2,40.4,37.7,40.4
		C1038.7,441.1,1055.7,423.2,1055.7,400.7z"/>
</g>
<g>
	<path class="st0" d="M537.7,208.8c-47.9,0-86.8-38.9-86.8-86.8s39-86.8,86.8-86.8c47.9,0,86.8,38.9,86.8,86.8
		S585.6,208.8,537.7,208.8 M537.7,38.1c-46.2,0-83.8,37.6-83.8,83.8s37.6,83.8,83.8,83.8s83.8-37.6,83.8-83.8S584,38.1,537.7,38.1z"
		/>
	<path class="st0" d="M555.3,191h-35.7l4-2.7c0.1,0,6.7-5,7-22.8l3,0.1c-0.3,12.5-3.4,19.2-5.8,22.5h18.9c-2.9-3.4-6.9-10-6.9-23h3
		c0,17,8.3,23,8.4,23.1L555.3,191"/>
	<path class="st0" d="M538.2,58.1c-20.2,0-36.5,16.4-36.5,36.5s16.4,36.5,36.5,36.5c20.1,0,36.5-16.4,36.5-36.5
		S558.4,58.1,538.2,58.1 M539.6,71.5l10.3-8.4c6,2.2,11.1,6.1,14.9,11.1l-4.5,11.5l-11,4.8l-9.6-7.8L539.6,71.5L539.6,71.5z
		 M526.4,63.1l10.3,8.4v11.2l-9.7,7.9l-11-4.7l-4.5-11.7C515.3,69.2,520.4,65.4,526.4,63.1z M510.7,114c-3.6-5.1-5.8-11.3-6.1-17.9
		l11.1-7.2l10.4,4.4l3.7,12.6l-7.2,7.5L510.7,114z M547.7,126.9c-3,0.9-6.2,1.4-9.6,1.4c-3.3,0-6.5-0.5-9.6-1.4l-3.2-12.2l6.6-6.8
		h12l6.9,7.1L547.7,126.9z M553.5,113.4l-6.9-7.2l3.8-13l10.2-4.3l11.2,7.2c-0.3,6.7-2.5,12.8-6.1,17.9L553.5,113.4z"/>
	<g>
		<path class="st0" d="M574.9,93.1c0,0.5,0,1,0,1.5c0,0.7,0,1.3-0.1,2c6.5,1.3,12.2,4.5,16.7,9c-1.6,2.5-7.4,11.3-16.2,20
			c0,0,0-0.1-0.1-0.1c-0.6-0.9-1.3-1.7-2-2.6c-0.2-0.2-0.3-0.4-0.5-0.6c-0.7-0.9-1.4-1.7-2.2-2.6c-0.1-0.1-0.1-0.1-0.2-0.2
			c-0.7-0.8-1.4-1.6-2.2-2.4c-0.2-0.2-0.3-0.3-0.5-0.5l-0.1-0.1c-0.7,0.9-1.4,1.8-2.2,2.7c0.1,0.1,0.1,0.2,0.2,0.2
			c0.8,0.8,1.6,1.7,2.3,2.5l0.1,0.1c0.8,0.9,1.5,1.8,2.2,2.6c0.1,0.2,0.3,0.3,0.4,0.5c0.7,0.9,1.3,1.7,2,2.6c0,0.1,0.1,0.1,0.1,0.2
			c-0.2,0.2-0.4,0.4-0.6,0.5c-0.3,0.3-0.7,0.6-1,0.9c-0.4,0.3-0.8,0.7-1.2,1c-0.3,0.3-0.7,0.6-1,0.8c-0.4,0.3-0.8,0.7-1.2,1
			c-0.3,0.3-0.7,0.5-1,0.8c-0.4,0.3-0.8,0.6-1.2,0.9c-0.3,0.2-0.7,0.5-1,0.7c-0.4,0.3-0.8,0.6-1.3,0.9c-0.3,0.2-0.6,0.4-0.9,0.6
			c-0.4,0.3-0.9,0.6-1.3,0.9c-0.3,0.2-0.6,0.4-0.9,0.6c-0.5,0.3-1,0.6-1.5,0.9c-0.3,0.1-0.5,0.3-0.8,0.4c-0.7,0.4-1.3,0.7-2,1.1
			c-0.1,0-0.1,0.1-0.2,0.1c-0.7,0.4-1.5,0.7-2.3,1.1c-0.2,0.1-0.4,0.2-0.7,0.3c-0.5,0.2-1.1,0.5-1.6,0.7c-0.3,0.1-0.6,0.2-0.9,0.3
			c-0.5,0.2-0.9,0.4-1.4,0.5c-0.3,0.1-0.6,0.2-0.9,0.3c-0.4,0.1-0.9,0.3-1.3,0.4c-0.3,0.1-0.7,0.2-1,0.3c-0.4,0.1-0.9,0.2-1.3,0.3
			c-0.3,0.1-0.7,0.2-1,0.2c-0.4,0.1-0.8,0.2-1.3,0.3c-0.3,0.1-0.7,0.1-1,0.2c-0.4,0.1-0.8,0.1-1.3,0.2c-0.3,0.1-0.7,0.1-1,0.1
			c-0.2,0-0.4,0-0.7,0.1c-2.3-4.4-3.6-9.3-3.8-14.3c-1.2-0.1-2.3-0.3-3.4-0.5c0.1,6.1,1.8,12.2,4.8,17.5c6.6,11.6,19,19,32.3,19
			l0.2,0.1l0,0c7,0,13.8-2,19.6-6l0,0c7.4-5,13-11.9,15.6-20.2c1.1-3.6,1.7-7.3,1.7-11.1C605.2,111.7,592.3,96.3,574.9,93.1
			 M570,154.7c-0.2,0.3-0.3,0.6-0.5,1c-0.1,0.2-0.2,0.4-0.3,0.7c-0.1,0.3-0.3,0.6-0.4,0.9c-0.1,0.2-0.2,0.5-0.3,0.7
			c-0.1,0.3-0.2,0.6-0.4,0.9c-0.1,0.2-0.2,0.5-0.3,0.7c-0.1,0.3-0.2,0.6-0.3,1c-0.1,0.2-0.1,0.5-0.2,0.7c-0.1,0.3-0.2,0.7-0.3,1
			c-0.1,0.2-0.1,0.5-0.2,0.7c0,0.1,0,0.2-0.1,0.2c-10.8-0.4-20.7-6-26.8-14.9c0.7-0.1,1.5-0.2,2.2-0.4c0.1,0,0.1,0,0.2,0
			c0.7-0.1,1.4-0.3,2.1-0.5c0.3-0.1,0.5-0.1,0.8-0.2c0.5-0.1,1-0.3,1.5-0.4c0.3-0.1,0.6-0.2,0.9-0.3c0.5-0.1,0.9-0.3,1.4-0.4
			c0.3-0.1,0.7-0.2,1-0.3c0.5-0.2,0.9-0.3,1.4-0.5c0.3-0.1,0.7-0.3,1-0.4c0.5-0.2,0.9-0.4,1.4-0.6c0.3-0.1,0.7-0.3,1-0.4
			c0.5-0.2,0.9-0.4,1.4-0.7c0.3-0.2,0.6-0.3,0.9-0.5c0.5-0.2,1-0.5,1.5-0.8c0.3-0.1,0.6-0.3,0.8-0.4c0.6-0.4,1.3-0.7,1.9-1.1
			c0.1-0.1,0.3-0.2,0.4-0.2c0.8-0.5,1.5-0.9,2.3-1.4c0.2-0.2,0.5-0.3,0.7-0.5c0.5-0.4,1.1-0.7,1.6-1.1c0.3-0.2,0.6-0.4,0.9-0.6
			c0.5-0.3,0.9-0.7,1.4-1c0.3-0.2,0.6-0.5,0.9-0.7c0.4-0.4,0.9-0.7,1.3-1.1c0.3-0.3,0.6-0.5,1-0.8c0.4-0.4,0.9-0.7,1.3-1.1
			c0.3-0.3,0.6-0.5,0.9-0.8c0.2-0.1,0.3-0.3,0.5-0.4c0,0,0,0.1,0.1,0.1c0.6,0.9,1.1,1.7,1.7,2.6c0.1,0.2,0.2,0.4,0.3,0.6
			c0.5,0.9,1,1.7,1.5,2.6c0,0.1,0.1,0.2,0.1,0.2c0.4,0.8,0.9,1.6,1.3,2.5c0.1,0.2,0.2,0.4,0.3,0.5c0.4,0.9,0.8,1.7,1.2,2.6
			c0,0.1,0,0.1,0.1,0.2c0,0-0.1,0-0.1,0.1c-0.2,0.1-0.3,0.2-0.5,0.3c-0.3,0.2-0.6,0.4-0.9,0.6c-0.2,0.1-0.4,0.3-0.6,0.4
			c-0.3,0.2-0.5,0.4-0.8,0.6c-0.2,0.1-0.4,0.3-0.6,0.5c-0.3,0.2-0.5,0.4-0.7,0.6c-0.2,0.2-0.4,0.3-0.5,0.5c-0.2,0.2-0.5,0.4-0.7,0.7
			c-0.2,0.2-0.3,0.3-0.5,0.5s-0.5,0.5-0.7,0.7s-0.3,0.3-0.5,0.5c-0.2,0.3-0.5,0.5-0.7,0.8c-0.1,0.2-0.3,0.3-0.4,0.5
			c-0.3,0.3-0.5,0.7-0.8,1c-0.1,0.1-0.2,0.2-0.3,0.4c-0.3,0.5-0.6,0.9-0.9,1.4c-0.1,0.1-0.2,0.3-0.2,0.4c-0.2,0.4-0.4,0.7-0.6,1.1
			C570.2,154.3,570.1,154.5,570,154.7z M570.4,163.2c0.1-0.3,0.1-0.6,0.2-0.9c0-0.1,0.1-0.3,0.1-0.4c0.1-0.5,0.3-1,0.5-1.5
			c0-0.1,0.1-0.2,0.1-0.3c0.1-0.4,0.3-0.8,0.4-1.1c0.1-0.2,0.1-0.3,0.2-0.5c0.1-0.3,0.3-0.6,0.4-0.9c0.1-0.2,0.2-0.3,0.2-0.5
			c0.1-0.3,0.3-0.6,0.4-0.9c0.1-0.2,0.2-0.3,0.3-0.5c0.2-0.3,0.3-0.6,0.5-0.9c0.1-0.1,0.2-0.3,0.2-0.4c0.5-0.9,1.1-1.7,1.7-2.4
			c0.1-0.1,0.2-0.2,0.3-0.4c0.2-0.3,0.4-0.5,0.7-0.8c0.1-0.1,0.2-0.3,0.4-0.4c0.2-0.2,0.4-0.5,0.6-0.7c0.1-0.1,0.3-0.3,0.4-0.4
			c0.2-0.2,0.5-0.5,0.7-0.7c0.1-0.1,0.2-0.2,0.4-0.3c0.3-0.3,0.6-0.5,0.9-0.8c0.1-0.1,0.2-0.1,0.2-0.2c0.4-0.3,0.8-0.6,1.2-0.9
			c0.1-0.1,0.2-0.1,0.3-0.2c0.2-0.2,0.5-0.3,0.7-0.5l0,0c0,0.1,0.1,0.2,0.1,0.3c0.2,0.5,0.3,1,0.5,1.5c0.1,0.2,0.1,0.4,0.2,0.6
			c0.1,0.4,0.2,0.8,0.3,1.2c0.1,0.2,0.1,0.4,0.2,0.7c0.1,0.4,0.2,0.8,0.3,1.2c0,0.2,0.1,0.4,0.1,0.6c0.1,0.5,0.2,1,0.3,1.6
			c0,0.1,0,0.2,0,0.2c0.1,0.6,0.2,1.2,0.3,1.8c0,0.2,0,0.4,0.1,0.5c0.1,0.4,0.1,0.8,0.1,1.3c0,0.2,0,0.4,0.1,0.7c0,0.2,0,0.4,0,0.6
			C580.6,161.3,575.6,162.9,570.4,163.2z M588.4,156.5c0-0.1,0-0.2-0.1-0.4c-0.1-0.8-0.2-1.6-0.3-2.5c0-0.1,0-0.2,0-0.3
			c-0.2-0.9-0.3-1.8-0.5-2.7c-0.1-0.2-0.1-0.5-0.2-0.7c-0.2-0.8-0.4-1.6-0.6-2.3c0-0.2-0.1-0.3-0.1-0.5c-0.3-0.9-0.6-1.8-0.9-2.7
			c0-0.1,0-0.2-0.1-0.2c0.1-0.1,0.3-0.1,0.4-0.2c0.3-0.1,0.7-0.3,1-0.4c0.2-0.1,0.4-0.2,0.6-0.2c0.3-0.1,0.7-0.2,1-0.4
			c0.2-0.1,0.4-0.1,0.6-0.2c0.4-0.1,0.7-0.2,1.1-0.3c0.2,0,0.4-0.1,0.5-0.1c0.4-0.1,0.9-0.2,1.3-0.3c0.1,0,0.2,0,0.3-0.1
			c0.5-0.1,1.1-0.2,1.6-0.2c0.2,0,0.4,0,0.6,0c0.4,0,0.7-0.1,1.1-0.1c0.2,0,0.5,0,0.7,0c0.3,0,0.6,0,0.9,0c0.5,0,1.1,0,1.6,0.1
			c0.2,0,0.3,0,0.5,0h0.1C597.3,147.5,593.4,152.7,588.4,156.5z M600.6,138.3c-0.2,0-0.4,0-0.6,0c-0.3,0-0.6-0.1-0.9-0.1
			c-0.5,0-1-0.1-1.5-0.1c-0.2,0-0.4,0-0.6,0c-0.1,0-0.2,0-0.4,0s-0.5,0-0.7,0c-0.4,0-0.8,0-1.3,0.1c-0.2,0-0.5,0-0.7,0.1
			c-0.4,0-0.9,0.1-1.3,0.2c-0.2,0-0.4,0-0.6,0.1c-1.3,0.2-2.5,0.5-3.8,0.9c-0.2,0-0.3,0.1-0.5,0.2c-0.4,0.1-0.9,0.3-1.3,0.5
			c-0.2,0.1-0.4,0.2-0.6,0.2c-0.4,0.2-0.8,0.3-1.2,0.5c-0.1,0.1-0.3,0.1-0.4,0.2V141c-0.4-0.9-0.8-1.8-1.3-2.8
			c-0.1-0.2-0.2-0.4-0.3-0.6c-0.5-0.9-0.9-1.8-1.4-2.8c-0.1-0.1-0.1-0.2-0.2-0.4c-0.5-0.9-1-1.7-1.5-2.6c-0.1-0.2-0.2-0.3-0.3-0.5
			c-0.6-0.9-1.1-1.8-1.8-2.7c-0.1-0.1-0.1-0.2-0.2-0.2c8.7-8.4,14.4-16.8,16.6-20.2c4.9,5.9,7.7,13.4,7.7,21.4
			C601.8,132.6,601.4,135.5,600.6,138.3z"/>
		<path class="st0" d="M537.7,11.5c-60.9,0-110.4,49.6-110.4,110.5s49.5,110.4,110.4,110.4c60.9,0,110.4-49.5,110.4-110.4
			S598.6,11.5,537.7,11.5 M625.8,155.9l-8.8-3.7c-0.5,1.3-1,2.5-1.6,3.8l8.9,3.7c-4.5,10.2-10.6,19.4-18.2,27.3l-7.1-7.1
			c-1,1-1.9,1.9-2.9,2.9l7.1,7.1c-7.9,7.6-17.1,13.8-27.3,18.3l-3.9-9.5c-1.2,0.5-2.5,1.1-3.8,1.6l3.9,9.5
			c-10.2,4-21.3,6.3-32.8,6.4v-10.4c0,0-1.3,0.1-2,0.1c-0.7,0-1,0-2-0.1v10.4c-11.2-0.3-21.9-2.5-31.8-6.4l3.9-9.5
			c-1.3-0.5-2.5-1-3.8-1.6l-3.9,9.5c-10.2-4.5-19.4-10.7-27.3-18.3l7.1-7.1c-1-0.9-2-1.9-2.9-2.9l-7.1,7.1
			c-7.6-7.9-13.8-17.2-18.2-27.3l8.9-3.7c-0.6-1.2-1.1-2.5-1.6-3.8l-8.8,3.7c-3.9-10-6.1-20.7-6.3-32h9.1c0-1-0.1-2-0.1-3.1
			c0-0.3,0-0.9,0-0.9h-9c0.2-11.4,2.5-22.4,6.5-32.5l7.9,3.3c0.5-1.3,1-2.6,1.5-3.8l-7.8-3.2c4.4-10.1,10.6-19.3,18.2-27.1l5.7,5.7
			c0.9-1,1.9-2,2.9-2.9l-5.7-5.7c7.9-7.5,17.1-13.7,27.2-18.1l3,7.2c1.2-0.6,2.5-1.1,3.8-1.6l-3-7.2c9.9-3.8,20.5-6.1,31.6-6.3v7.7
			c1,0,1.3-0.1,2-0.1s2,0,2,0.1v-7.7c11.5,0.2,22.5,2.4,32.6,6.4l-3,7.2c1.3,0.5,2.5,1,3.8,1.6l3-7.2c10.1,4.4,19.3,10.6,27.2,18.1
			l-5.7,5.7c1,1,1.9,1.9,2.9,2.9l5.7-5.7c7.6,7.9,13.8,17,18.3,27.1l-7.8,3.2c0.5,1.3,1,2.5,1.5,3.8l7.9-3.3c4,10.1,6.3,21,6.5,32.5
			h-9c0,0,0,0.6,0,0.9c0,1,0,2.1-0.1,3.1h9.1C631.9,135.2,629.6,146,625.8,155.9z M632.7,100.5c-3.1-13.7-9.1-26.4-17.3-37.2
			l8.1-5.9c9,11.9,15.5,25.7,19,40.7L632.7,100.5z M588.4,38.8c-9.7-6-20.6-10.2-32.1-12.5l2.1-9.9c12.6,2.5,24.4,7.1,35.1,13.6
			L588.4,38.8z M519.8,26.2c-13.9,2.6-26.8,8.2-38,16l-5.6-8.3c12.3-8.6,26.3-14.6,41.5-17.5L519.8,26.2z M456.4,68.5
			c-7.5,11.4-12.7,24.5-14.9,38.5l-9.9-1.7c2.4-15.3,8.1-29.6,16.3-42.1L456.4,68.5z M442.8,143.6c3.1,13.8,9.2,26.5,17.5,37.4
			l-8.1,5.9c-9.1-11.9-15.7-25.8-19.2-40.8L442.8,143.6z M487.6,205.4c9.8,5.9,20.7,10.1,32.3,12.3l-2.1,9.9
			c-12.7-2.4-24.5-7-35.2-13.4L487.6,205.4z M556.3,217.5c13.9-2.7,26.7-8.3,37.8-16.2l5.6,8.3c-12.2,8.6-26.2,14.8-41.3,17.7
			L556.3,217.5z M619.3,175.1c7.4-11.4,12.6-24.4,14.7-38.3l9.9,1.8c-2.4,15.3-8,29.5-16.1,41.9L619.3,175.1z"/>
	</g>
	<path class="st0" d="M531.1,153.4c-0.7-0.8-1.4-1.6-2-2.4l2.6-1.9l-1.8-2.4l-2.6,1.9c-1.3-2.1-2.4-4.3-3.2-6.7l2.9-0.9l-0.9-2.8
		l-2.9,0.6c-0.6-2.3-1-4.6-1.1-7.6h4.2V129c-2,0-1.3-0.8-1.3-0.8h-2.7c0,0,0.1-0.4,0.1-0.8c-1-0.5-1.9-1.2-2.9-1.7
		c-0.1,0.9-0.2,1.5-0.2,2.5h-3v3h2.9c0.1,3,0.5,5.9,1.2,8.6l-2.8,1.1l0.9,2.9l2.8-0.9c0.9,2.7,2.2,5.2,3.7,7.5l-2.3,1.7l1.8,2.4
		l2.2-1.6c0.7,1,1.5,1.9,2.3,2.8c-6.1,5.7-14.3,9.1-23.4,9.1c-9,0-17.2-3.5-23.4-9.1c0.8-0.9,1.6-1.8,2.3-2.8l2.2,1.6l1.8-2.4
		l-2.3-1.6c1.5-2.3,2.7-4.9,3.7-7.5l2.8,0.9l0.9-2.9l-2.8-1.3c0.7-2.6,1.1-5.6,1.2-8.6h3.3v-3h-3.1c-0.1-2-0.5-5.2-1.2-7.9l2.8-0.7
		l-0.9-2.8l-2.8,1c-0.9-2.7-2.2-5.1-3.7-7.5l2.3-1.6l-1.8-2.4l-2.2,1.6c-0.7-1-1.5-1.9-2.3-2.8c5.2-4.8,12-8,19.4-8.9
		c0-0.4,0-0.8,0-1.3c0-0.6,0-1.2,0-1.7c-18.8,2-33.5,17.9-33.5,37.2c0,20.7,16.8,37.5,37.5,37.5c13.4,0,25.1-7,31.7-17.6
		c-0.6-0.9-1.2-1.9-1.8-2.9C534.3,149.4,532.9,151.5,531.1,153.4 M480.2,153.4c-5.6-6.1-9-14.3-9-23.2s3.4-17.1,9-23.2
		c0.7,0.8,1.4,1.6,2,2.4l-2.6,1.9l1.8,2.4l2.6-1.9c1.3,2.1,2.4,4.3,3.2,6.7l-2.9,0.9l0.9,2.8l2.9-1.3c0.6,2.3,1,4.9,1.1,6.9h-2.9v3
		h2.9c-0.1,3-0.5,5.3-1.1,7.6l-2.9-0.8l-0.9,2.9l2.9,1c-0.8,2.4-1.9,4.6-3.2,6.7l-2.6-1.9l-1.8,2.4l2.6,1.9
		C481.6,151.8,480.9,152.6,480.2,153.4z"/>
	<path class="st0" d="M537.3,13c-11.8,0-21.4,1.4-21.4,1.4"/>
	<path class="st0" d="M537.7,208.8c-47.9,0-86.8-38.9-86.8-86.8s39-86.8,86.8-86.8c47.9,0,86.8,38.9,86.8,86.8
		S585.6,208.8,537.7,208.8 M537.7,38.1c-46.2,0-83.8,37.6-83.8,83.8s37.6,83.8,83.8,83.8s83.8-37.6,83.8-83.8S584,38.1,537.7,38.1z"
		/>
	<path class="st0" d="M555.3,191h-35.7l4-2.7c0.1,0,6.7-5,7-22.8l3,0.1c-0.3,12.5-3.4,19.2-5.8,22.5h18.9c-2.9-3.4-6.9-10-6.9-23h3
		c0,17,8.3,23,8.4,23.1L555.3,191"/>
	<path class="st0" d="M538.2,58.1c-20.2,0-36.5,16.4-36.5,36.5s16.4,36.5,36.5,36.5c20.1,0,36.5-16.4,36.5-36.5
		S558.4,58.1,538.2,58.1 M539.6,71.5l10.3-8.4c6,2.2,11.1,6.1,14.9,11.1l-4.5,11.5l-11,4.8l-9.6-7.8L539.6,71.5L539.6,71.5z
		 M526.4,63.1l10.3,8.4v11.2l-9.7,7.9l-11-4.7l-4.5-11.7C515.3,69.2,520.4,65.4,526.4,63.1z M510.7,114c-3.6-5.1-5.8-11.3-6.1-17.9
		l11.1-7.2l10.4,4.4l3.7,12.6l-7.2,7.5L510.7,114z M547.7,126.9c-3,0.9-6.2,1.4-9.6,1.4c-3.3,0-6.5-0.5-9.6-1.4l-3.2-12.2l6.6-6.8
		h12l6.9,7.1L547.7,126.9z M553.5,113.4l-6.9-7.2l3.8-13l10.2-4.3l11.2,7.2c-0.3,6.7-2.5,12.8-6.1,17.9L553.5,113.4z"/>
	<g>
		<path class="st0" d="M574.9,93.1c0,0.5,0,1,0,1.5c0,0.7,0,1.3-0.1,2c6.5,1.3,12.2,4.5,16.7,9c-1.6,2.5-7.4,11.3-16.2,20
			c0,0,0-0.1-0.1-0.1c-0.6-0.9-1.3-1.7-2-2.6c-0.2-0.2-0.3-0.4-0.5-0.6c-0.7-0.9-1.4-1.7-2.2-2.6c-0.1-0.1-0.1-0.1-0.2-0.2
			c-0.7-0.8-1.4-1.6-2.2-2.4c-0.2-0.2-0.3-0.3-0.5-0.5l-0.1-0.1c-0.7,0.9-1.4,1.8-2.2,2.7c0.1,0.1,0.1,0.2,0.2,0.2
			c0.8,0.8,1.6,1.7,2.3,2.5l0.1,0.1c0.8,0.9,1.5,1.8,2.2,2.6c0.1,0.2,0.3,0.3,0.4,0.5c0.7,0.9,1.3,1.7,2,2.6c0,0.1,0.1,0.1,0.1,0.2
			c-0.2,0.2-0.4,0.4-0.6,0.5c-0.3,0.3-0.7,0.6-1,0.9c-0.4,0.3-0.8,0.7-1.2,1c-0.3,0.3-0.7,0.6-1,0.8c-0.4,0.3-0.8,0.7-1.2,1
			c-0.3,0.3-0.7,0.5-1,0.8c-0.4,0.3-0.8,0.6-1.2,0.9c-0.3,0.2-0.7,0.5-1,0.7c-0.4,0.3-0.8,0.6-1.3,0.9c-0.3,0.2-0.6,0.4-0.9,0.6
			c-0.4,0.3-0.9,0.6-1.3,0.9c-0.3,0.2-0.6,0.4-0.9,0.6c-0.5,0.3-1,0.6-1.5,0.9c-0.3,0.1-0.5,0.3-0.8,0.4c-0.7,0.4-1.3,0.7-2,1.1
			c-0.1,0-0.1,0.1-0.2,0.1c-0.7,0.4-1.5,0.7-2.3,1.1c-0.2,0.1-0.4,0.2-0.7,0.3c-0.5,0.2-1.1,0.5-1.6,0.7c-0.3,0.1-0.6,0.2-0.9,0.3
			c-0.5,0.2-0.9,0.4-1.4,0.5c-0.3,0.1-0.6,0.2-0.9,0.3c-0.4,0.1-0.9,0.3-1.3,0.4c-0.3,0.1-0.7,0.2-1,0.3c-0.4,0.1-0.9,0.2-1.3,0.3
			c-0.3,0.1-0.7,0.2-1,0.2c-0.4,0.1-0.8,0.2-1.3,0.3c-0.3,0.1-0.7,0.1-1,0.2c-0.4,0.1-0.8,0.1-1.3,0.2c-0.3,0.1-0.7,0.1-1,0.1
			c-0.2,0-0.4,0-0.7,0.1c-2.3-4.4-3.6-9.3-3.8-14.3c-1.2-0.1-2.3-0.3-3.4-0.5c0.1,6.1,1.8,12.2,4.8,17.5c6.6,11.6,19,19,32.3,19
			l0.2,0.1l0,0c7,0,13.8-2,19.6-6l0,0c7.4-5,13-11.9,15.6-20.2c1.1-3.6,1.7-7.3,1.7-11.1C605.2,111.7,592.3,96.3,574.9,93.1
			 M570,154.7c-0.2,0.3-0.3,0.6-0.5,1c-0.1,0.2-0.2,0.4-0.3,0.7c-0.1,0.3-0.3,0.6-0.4,0.9c-0.1,0.2-0.2,0.5-0.3,0.7
			c-0.1,0.3-0.2,0.6-0.4,0.9c-0.1,0.2-0.2,0.5-0.3,0.7c-0.1,0.3-0.2,0.6-0.3,1c-0.1,0.2-0.1,0.5-0.2,0.7c-0.1,0.3-0.2,0.7-0.3,1
			c-0.1,0.2-0.1,0.5-0.2,0.7c0,0.1,0,0.2-0.1,0.2c-10.8-0.4-20.7-6-26.8-14.9c0.7-0.1,1.5-0.2,2.2-0.4c0.1,0,0.1,0,0.2,0
			c0.7-0.1,1.4-0.3,2.1-0.5c0.3-0.1,0.5-0.1,0.8-0.2c0.5-0.1,1-0.3,1.5-0.4c0.3-0.1,0.6-0.2,0.9-0.3c0.5-0.1,0.9-0.3,1.4-0.4
			c0.3-0.1,0.7-0.2,1-0.3c0.5-0.2,0.9-0.3,1.4-0.5c0.3-0.1,0.7-0.3,1-0.4c0.5-0.2,0.9-0.4,1.4-0.6c0.3-0.1,0.7-0.3,1-0.4
			c0.5-0.2,0.9-0.4,1.4-0.7c0.3-0.2,0.6-0.3,0.9-0.5c0.5-0.2,1-0.5,1.5-0.8c0.3-0.1,0.6-0.3,0.8-0.4c0.6-0.4,1.3-0.7,1.9-1.1
			c0.1-0.1,0.3-0.2,0.4-0.2c0.8-0.5,1.5-0.9,2.3-1.4c0.2-0.2,0.5-0.3,0.7-0.5c0.5-0.4,1.1-0.7,1.6-1.1c0.3-0.2,0.6-0.4,0.9-0.6
			c0.5-0.3,0.9-0.7,1.4-1c0.3-0.2,0.6-0.5,0.9-0.7c0.4-0.4,0.9-0.7,1.3-1.1c0.3-0.3,0.6-0.5,1-0.8c0.4-0.4,0.9-0.7,1.3-1.1
			c0.3-0.3,0.6-0.5,0.9-0.8c0.2-0.1,0.3-0.3,0.5-0.4c0,0,0,0.1,0.1,0.1c0.6,0.9,1.1,1.7,1.7,2.6c0.1,0.2,0.2,0.4,0.3,0.6
			c0.5,0.9,1,1.7,1.5,2.6c0,0.1,0.1,0.2,0.1,0.2c0.4,0.8,0.9,1.6,1.3,2.5c0.1,0.2,0.2,0.4,0.3,0.5c0.4,0.9,0.8,1.7,1.2,2.6
			c0,0.1,0,0.1,0.1,0.2c0,0-0.1,0-0.1,0.1c-0.2,0.1-0.3,0.2-0.5,0.3c-0.3,0.2-0.6,0.4-0.9,0.6c-0.2,0.1-0.4,0.3-0.6,0.4
			c-0.3,0.2-0.5,0.4-0.8,0.6c-0.2,0.1-0.4,0.3-0.6,0.5c-0.3,0.2-0.5,0.4-0.7,0.6c-0.2,0.2-0.4,0.3-0.5,0.5c-0.2,0.2-0.5,0.4-0.7,0.7
			c-0.2,0.2-0.3,0.3-0.5,0.5s-0.5,0.5-0.7,0.7s-0.3,0.3-0.5,0.5c-0.2,0.3-0.5,0.5-0.7,0.8c-0.1,0.2-0.3,0.3-0.4,0.5
			c-0.3,0.3-0.5,0.7-0.8,1c-0.1,0.1-0.2,0.2-0.3,0.4c-0.3,0.5-0.6,0.9-0.9,1.4c-0.1,0.1-0.2,0.3-0.2,0.4c-0.2,0.4-0.4,0.7-0.6,1.1
			C570.2,154.3,570.1,154.5,570,154.7z M570.4,163.2c0.1-0.3,0.1-0.6,0.2-0.9c0-0.1,0.1-0.3,0.1-0.4c0.1-0.5,0.3-1,0.5-1.5
			c0-0.1,0.1-0.2,0.1-0.3c0.1-0.4,0.3-0.8,0.4-1.1c0.1-0.2,0.1-0.3,0.2-0.5c0.1-0.3,0.3-0.6,0.4-0.9c0.1-0.2,0.2-0.3,0.2-0.5
			c0.1-0.3,0.3-0.6,0.4-0.9c0.1-0.2,0.2-0.3,0.3-0.5c0.2-0.3,0.3-0.6,0.5-0.9c0.1-0.1,0.2-0.3,0.2-0.4c0.5-0.9,1.1-1.7,1.7-2.4
			c0.1-0.1,0.2-0.2,0.3-0.4c0.2-0.3,0.4-0.5,0.7-0.8c0.1-0.1,0.2-0.3,0.4-0.4c0.2-0.2,0.4-0.5,0.6-0.7c0.1-0.1,0.3-0.3,0.4-0.4
			c0.2-0.2,0.5-0.5,0.7-0.7c0.1-0.1,0.2-0.2,0.4-0.3c0.3-0.3,0.6-0.5,0.9-0.8c0.1-0.1,0.2-0.1,0.2-0.2c0.4-0.3,0.8-0.6,1.2-0.9
			c0.1-0.1,0.2-0.1,0.3-0.2c0.2-0.2,0.5-0.3,0.7-0.5l0,0c0,0.1,0.1,0.2,0.1,0.3c0.2,0.5,0.3,1,0.5,1.5c0.1,0.2,0.1,0.4,0.2,0.6
			c0.1,0.4,0.2,0.8,0.3,1.2c0.1,0.2,0.1,0.4,0.2,0.7c0.1,0.4,0.2,0.8,0.3,1.2c0,0.2,0.1,0.4,0.1,0.6c0.1,0.5,0.2,1,0.3,1.6
			c0,0.1,0,0.2,0,0.2c0.1,0.6,0.2,1.2,0.3,1.8c0,0.2,0,0.4,0.1,0.5c0.1,0.4,0.1,0.8,0.1,1.3c0,0.2,0,0.4,0.1,0.7c0,0.2,0,0.4,0,0.6
			C580.6,161.3,575.6,162.9,570.4,163.2z M588.4,156.5c0-0.1,0-0.2-0.1-0.4c-0.1-0.8-0.2-1.6-0.3-2.5c0-0.1,0-0.2,0-0.3
			c-0.2-0.9-0.3-1.8-0.5-2.7c-0.1-0.2-0.1-0.5-0.2-0.7c-0.2-0.8-0.4-1.6-0.6-2.3c0-0.2-0.1-0.3-0.1-0.5c-0.3-0.9-0.6-1.8-0.9-2.7
			c0-0.1,0-0.2-0.1-0.2c0.1-0.1,0.3-0.1,0.4-0.2c0.3-0.1,0.7-0.3,1-0.4c0.2-0.1,0.4-0.2,0.6-0.2c0.3-0.1,0.7-0.2,1-0.4
			c0.2-0.1,0.4-0.1,0.6-0.2c0.4-0.1,0.7-0.2,1.1-0.3c0.2,0,0.4-0.1,0.5-0.1c0.4-0.1,0.9-0.2,1.3-0.3c0.1,0,0.2,0,0.3-0.1
			c0.5-0.1,1.1-0.2,1.6-0.2c0.2,0,0.4,0,0.6,0c0.4,0,0.7-0.1,1.1-0.1c0.2,0,0.5,0,0.7,0c0.3,0,0.6,0,0.9,0c0.5,0,1.1,0,1.6,0.1
			c0.2,0,0.3,0,0.5,0h0.1C597.3,147.5,593.4,152.7,588.4,156.5z M600.6,138.3c-0.2,0-0.4,0-0.6,0c-0.3,0-0.6-0.1-0.9-0.1
			c-0.5,0-1-0.1-1.5-0.1c-0.2,0-0.4,0-0.6,0c-0.1,0-0.2,0-0.4,0s-0.5,0-0.7,0c-0.4,0-0.8,0-1.3,0.1c-0.2,0-0.5,0-0.7,0.1
			c-0.4,0-0.9,0.1-1.3,0.2c-0.2,0-0.4,0-0.6,0.1c-1.3,0.2-2.5,0.5-3.8,0.9c-0.2,0-0.3,0.1-0.5,0.2c-0.4,0.1-0.9,0.3-1.3,0.5
			c-0.2,0.1-0.4,0.2-0.6,0.2c-0.4,0.2-0.8,0.3-1.2,0.5c-0.1,0.1-0.3,0.1-0.4,0.2V141c-0.4-0.9-0.8-1.8-1.3-2.8
			c-0.1-0.2-0.2-0.4-0.3-0.6c-0.5-0.9-0.9-1.8-1.4-2.8c-0.1-0.1-0.1-0.2-0.2-0.4c-0.5-0.9-1-1.7-1.5-2.6c-0.1-0.2-0.2-0.3-0.3-0.5
			c-0.6-0.9-1.1-1.8-1.8-2.7c-0.1-0.1-0.1-0.2-0.2-0.2c8.7-8.4,14.4-16.8,16.6-20.2c4.9,5.9,7.7,13.4,7.7,21.4
			C601.8,132.6,601.4,135.5,600.6,138.3z"/>
		<path class="st0" d="M537.7,11.5c-60.9,0-110.4,49.6-110.4,110.5s49.5,110.4,110.4,110.4c60.9,0,110.4-49.5,110.4-110.4
			S598.6,11.5,537.7,11.5 M625.8,155.9l-8.8-3.7c-0.5,1.3-1,2.5-1.6,3.8l8.9,3.7c-4.5,10.2-10.6,19.4-18.2,27.3l-7.1-7.1
			c-1,1-1.9,1.9-2.9,2.9l7.1,7.1c-7.9,7.6-17.1,13.8-27.3,18.3l-3.9-9.5c-1.2,0.5-2.5,1.1-3.8,1.6l3.9,9.5
			c-10.2,4-21.3,6.3-32.8,6.4v-10.4c0,0-1.3,0.1-2,0.1c-0.7,0-1,0-2-0.1v10.4c-11.2-0.3-21.9-2.5-31.8-6.4l3.9-9.5
			c-1.3-0.5-2.5-1-3.8-1.6l-3.9,9.5c-10.2-4.5-19.4-10.7-27.3-18.3l7.1-7.1c-1-0.9-2-1.9-2.9-2.9l-7.1,7.1
			c-7.6-7.9-13.8-17.2-18.2-27.3l8.9-3.7c-0.6-1.2-1.1-2.5-1.6-3.8l-8.8,3.7c-3.9-10-6.1-20.7-6.3-32h9.1c0-1-0.1-2-0.1-3.1
			c0-0.3,0-0.9,0-0.9h-9c0.2-11.4,2.5-22.4,6.5-32.5l7.9,3.3c0.5-1.3,1-2.6,1.5-3.8l-7.8-3.2c4.4-10.1,10.6-19.3,18.2-27.1l5.7,5.7
			c0.9-1,1.9-2,2.9-2.9l-5.7-5.7c7.9-7.5,17.1-13.7,27.2-18.1l3,7.2c1.2-0.6,2.5-1.1,3.8-1.6l-3-7.2c9.9-3.8,20.5-6.1,31.6-6.3v7.7
			c1,0,1.3-0.1,2-0.1s2,0,2,0.1v-7.7c11.5,0.2,22.5,2.4,32.6,6.4l-3,7.2c1.3,0.5,2.5,1,3.8,1.6l3-7.2c10.1,4.4,19.3,10.6,27.2,18.1
			l-5.7,5.7c1,1,1.9,1.9,2.9,2.9l5.7-5.7c7.6,7.9,13.8,17,18.3,27.1l-7.8,3.2c0.5,1.3,1,2.5,1.5,3.8l7.9-3.3c4,10.1,6.3,21,6.5,32.5
			h-9c0,0,0,0.6,0,0.9c0,1,0,2.1-0.1,3.1h9.1C631.9,135.2,629.6,146,625.8,155.9z M632.7,100.5c-3.1-13.7-9.1-26.4-17.3-37.2
			l8.1-5.9c9,11.9,15.5,25.7,19,40.7L632.7,100.5z M588.4,38.8c-9.7-6-20.6-10.2-32.1-12.5l2.1-9.9c12.6,2.5,24.4,7.1,35.1,13.6
			L588.4,38.8z M519.8,26.2c-13.9,2.6-26.8,8.2-38,16l-5.6-8.3c12.3-8.6,26.3-14.6,41.5-17.5L519.8,26.2z M456.4,68.5
			c-7.5,11.4-12.7,24.5-14.9,38.5l-9.9-1.7c2.4-15.3,8.1-29.6,16.3-42.1L456.4,68.5z M442.8,143.6c3.1,13.8,9.2,26.5,17.5,37.4
			l-8.1,5.9c-9.1-11.9-15.7-25.8-19.2-40.8L442.8,143.6z M487.6,205.4c9.8,5.9,20.7,10.1,32.3,12.3l-2.1,9.9
			c-12.7-2.4-24.5-7-35.2-13.4L487.6,205.4z M556.3,217.5c13.9-2.7,26.7-8.3,37.8-16.2l5.6,8.3c-12.2,8.6-26.2,14.8-41.3,17.7
			L556.3,217.5z M619.3,175.1c7.4-11.4,12.6-24.4,14.7-38.3l9.9,1.8c-2.4,15.3-8,29.5-16.1,41.9L619.3,175.1z"/>
	</g>
	<path class="st0" d="M531.1,153.4c-0.7-0.8-1.4-1.6-2-2.4l2.6-1.9l-1.8-2.4l-2.6,1.9c-1.3-2.1-2.4-4.3-3.2-6.7l2.9-0.9l-0.9-2.8
		l-2.9,0.6c-0.6-2.3-1-4.6-1.1-7.6h4.2V129c-2,0-1.3-0.8-1.3-0.8h-2.7c0,0,0.1-0.4,0.1-0.8c-1-0.5-1.9-1.2-2.9-1.7
		c-0.1,0.9-0.2,1.5-0.2,2.5h-3v3h2.9c0.1,3,0.5,5.9,1.2,8.6l-2.8,1.1l0.9,2.9l2.8-0.9c0.9,2.7,2.2,5.2,3.7,7.5l-2.3,1.7l1.8,2.4
		l2.2-1.6c0.7,1,1.5,1.9,2.3,2.8c-6.1,5.7-14.3,9.1-23.4,9.1c-9,0-17.2-3.5-23.4-9.1c0.8-0.9,1.6-1.8,2.3-2.8l2.2,1.6l1.8-2.4
		l-2.3-1.6c1.5-2.3,2.7-4.9,3.7-7.5l2.8,0.9l0.9-2.9l-2.8-1.3c0.7-2.6,1.1-5.6,1.2-8.6h3.3v-3h-3.1c-0.1-2-0.5-5.2-1.2-7.9l2.8-0.7
		l-0.9-2.8l-2.8,1c-0.9-2.7-2.2-5.1-3.7-7.5l2.3-1.6l-1.8-2.4l-2.2,1.6c-0.7-1-1.5-1.9-2.3-2.8c5.2-4.8,12-8,19.4-8.9
		c0-0.4,0-0.8,0-1.3c0-0.6,0-1.2,0-1.7c-18.8,2-33.5,17.9-33.5,37.2c0,20.7,16.8,37.5,37.5,37.5c13.4,0,25.1-7,31.7-17.6
		c-0.6-0.9-1.2-1.9-1.8-2.9C534.3,149.4,532.9,151.5,531.1,153.4 M480.2,153.4c-5.6-6.1-9-14.3-9-23.2s3.4-17.1,9-23.2
		c0.7,0.8,1.4,1.6,2,2.4l-2.6,1.9l1.8,2.4l2.6-1.9c1.3,2.1,2.4,4.3,3.2,6.7l-2.9,0.9l0.9,2.8l2.9-1.3c0.6,2.3,1,4.9,1.1,6.9h-2.9v3
		h2.9c-0.1,3-0.5,5.3-1.1,7.6l-2.9-0.8l-0.9,2.9l2.9,1c-0.8,2.4-1.9,4.6-3.2,6.7l-2.6-1.9l-1.8,2.4l2.6,1.9
		C481.6,151.8,480.9,152.6,480.2,153.4z"/>
	<path class="st0" d="M537.3,13c-11.8,0-21.4,1.4-21.4,1.4"/>
</g>
</svg>
