<?xml version="1.0" encoding="utf-8"?>
<!-- Generator: Adobe Illustrator 20.0.0, SVG Export Plug-In . SVG Version: 6.00 Build 0)  -->
<!DOCTYPE svg PUBLIC "-//W3C//DTD SVG 1.1//EN" "http://www.w3.org/Graphics/SVG/1.1/DTD/svg11.dtd">
<svg version="1.1" id="Calque_1" xmlns="http://www.w3.org/2000/svg" xmlns:xlink="http://www.w3.org/1999/xlink" x="0px" y="0px"
	 viewBox="0 0 91 120" style="enable-background:new 0 0 91 120;" xml:space="preserve">
<style type="text/css">
	.st0{fill:#FFFFFF;}
</style>
<path class="st0" d="M21.2,17.2c4.5,2.1,7.5,4.7,8,5.1c-0.2-1.2-1.1-6.8-1.7-10.3c2.6,1.8,8.8,6.1,10.8,7.5C39.1,17,42,8.7,42,8.7
	s5.2,8.3,6,9.7c1.1-1.1,7.2-8,8.8-9.7c0.3,3.9,0.6,9.6,0.7,10.4c0.3-0.4,2.7-3.7,6.6-6.8c-1.7,3.4-2.5,8-2.9,11.8
	c-3.9-1.1-8-1.7-12.2-1.7c-8.1,0-15.8,2.1-22.4,5.9C25.5,24.6,23.7,20.1,21.2,17.2z M83.4,88.4l-3.6-4c-1,10.7-6.3,19.8-15.9,26.2
	l-1.5-5.8c-8.2,5.9-22.2,9.7-34.3,2.9c1.5-7.6,2.8-15.4,0-24.7c-6.7,10.3-12.6,14.4-12.6,14.4c-4.5-7.6-4.1-22.8-2.8-27.3l-7.5,2.3
	c0-5.1,3.7-15.9,9-22l-4.6-0.7c3.2-6.5,7.9-12.1,13.8-16.4c-1.8,2.9-1.8,9.7,3.3,12.3c-2.2-3.8-2.4-8.5-0.2-11
	c2.3-2.5,6.1-1.6,8.5,0.3c-0.7-2.1-2.9-4.8-6-5c6-3.1,12.9-4.8,20.1-4.8c1.4,0,2.7,0.1,4,0.2c2.1,0.8,5.2,3.8,6.6,5.7
	c0,0,0.1-2.2-1.1-4.8c7.8,1.9,11.6,5.1,13.1,6.6c0.3,3.4,1.3,5.4,2.7,8.6c-2.5-2.8-8.9-7.4-12-8.5c0,0-0.3,2.9-1.3,4.3
	c-6.1-4.4-9-5.5-9-5.5c-6.7,0.9-10.9,3.5-13.3,5.5l2,1.7c-4,1.2-6.6,4.7-6.6,4.7c0,0.1,3.6,0.6,3.6,0.6s-0.4,4.2,4.9,6.8
	c4.5,2.2,10.9-0.5,17,1.9c-4-4.6-6.7-6.7-6.7-6.7s-1.6-0.3-2.7-0.3c-1.4,0-3.5,0.3-5.7-0.6c-1.1-0.4-2.4-1.2-3.3-1.8
	c0,0,2.8-2.9,6.9-3.5c0,0,3.7,1,6.6,3.2c1.9-1.9,4-1.8,4-1.8s-2,1.9-1.4,4.1c2.9,2.6,6.1,6.3,6.1,6.3c3.2-1.8,10.2-1.4,11.7,0.3
	c-1.8-2.4-4.5-4.3-6.5-6c-0.2-0.9-2.5-4-2.8-4.3c0,0,2.1,0.7,4,2.3c0.5-0.8,1.6-1.6,2.9-1.9c1.4,1.2,1.7,3,1.6,3.3
	c-0.6,0.8-1.3,1.1-1.3,1.1l3.4,3.7l0.3-2.7C84.6,59,88.9,72,83.4,88.4z M68.5,64.2v-5.8c0,0-2.6-0.8-5.4-3
	c-5.6,0.8-12.3,6.4-12.3,6.4s2.3,4.3,4.8,9C60,71.4,66.5,65.9,68.5,64.2z M74.1,74.7c0,0-0.4-2.4-2.4-4.6l-4.3,0.1
	c0,0-5.9,5-9.4,5.1c0,0,2,3.7,3,5.6c2-0.4,5.4-2,6.8-3.6c0,0,0.9,3,0.7,6.5C70.5,82.6,73.2,79.5,74.1,74.7z M75.9,55.6
	c-2.2,1.8-4,2.9-4,2.9v5.8c1.6,1.7,3.1,3.2,4.3,5.8C78.4,66.2,77.9,60.4,75.9,55.6z"/>
</svg>
